<svg width="65" height="65" viewBox="0 0 65 65" fill="none" xmlns="http://www.w3.org/2000/svg">
<mask id="mask0" mask-type="alpha" maskUnits="userSpaceOnUse" x="0" y="0" width="65" height="65">
<rect width="65" height="65" fill="#C4C4C4"/>
</mask>
<g mask="url(#mask0)">
<path d="M6.41812 27.6244C6.46526 27.68 6.54143 27.7564 6.64351 27.8498C10.3597 20.2716 17.9799 13.5984 17.9799 13.5984C14.3326 17.3377 11.7785 25.5991 10.5755 30.208C13.6858 31.453 18.1039 31.9376 22.425 28.1698C29.8892 21.6609 23.0543 12.4672 35.7295 5.16208C35.7295 5.16208 20.9546 0.202788 10.2002 9.57985C-0.555593 18.9579 5.65938 26.737 6.41812 27.6244Z" fill="black" stroke="black"/>
<path d="M54.588 39.1856C54.588 39.1856 66.5915 27.7674 63.4763 14.2476C60.3621 0.72767 50.1162 3.24809 48.9229 3.5801C48.8483 3.6009 48.7386 3.6397 48.6029 3.69427C53.6381 10.106 55.8721 19.6969 55.8721 19.6969C54.3049 14.8871 48.0591 9.25631 44.4613 6.31581C41.7511 8.63911 39.0722 12.454 40.3249 17.8865C42.4873 27.2704 54.3367 24.7542 54.588 39.1856Z" fill="black" stroke="black"/>
<path d="M48.0593 47.8193C47.5345 44.2934 45.7783 40.1265 40.7231 38.8369C31.9907 36.609 28.0645 48.5992 16.1856 42.3555C16.1856 42.3555 19.4306 58.4811 32.0111 61.6918C44.5914 64.9024 47.7059 54.3802 48.0369 53.1375C48.0576 53.0588 48.0813 52.9432 48.1053 52.793C40.3457 54.5315 31.4088 52.2757 31.4088 52.2757C36.1148 52.9973 43.85 49.7981 48.0593 47.8193Z" fill="black" stroke="black"/>
</g>
</svg>
