<svg xmlns="http://www.w3.org/2000/svg" width="180" height="250" viewBox="0 0 180 250" fill="none"><path d="M101.523 23.1221C101.995 25.0513 101.909 27.057 101.857 29.0245C101.616 35.4722 100.025 41.7987 97.6883 47.8C96.2611 51.8083 94.7665 55.7943 93.4486 59.8408C92.3268 62.9658 91.3368 66.1674 91.0411 69.4869C90.3918 75.7337 91.9925 81.888 92.4972 88.0838C95.2197 80.7241 98.6751 73.5526 103.574 67.36C106.717 63.1572 110.516 59.4741 114.589 56.161C114.734 59.4008 114.203 62.7139 112.792 65.654C110.938 69.3306 108.874 72.9116 106.421 76.2311C100.665 84.117 96.5279 93.0838 93.7829 102.411C93.4808 103.486 93.6093 104.614 93.844 105.686C94.3679 107.995 95.0911 110.255 95.959 112.459C97.1901 115.539 97.9872 118.804 98.1479 122.118C98.2218 123.725 98.1576 125.335 98.2186 126.945C99.3758 125.086 100.382 123.097 101.944 121.521C103.876 119.598 106.039 117.934 108.148 116.212C109.144 115.437 109.668 114.27 110.304 113.221C114.261 106.576 119.285 100.574 125.045 95.3893C128.092 92.682 130.609 89.3848 132.325 85.6922C132.779 84.8727 133.026 83.83 133.936 83.3804C133.923 87.1686 133.534 90.9537 132.933 94.691C132.139 98.5653 130.754 102.424 128.176 105.498C126.649 107.392 124.846 109.047 123.358 110.973C119.7 115.864 114.904 119.745 110.86 124.302C101.851 133.569 96.1422 145.616 93.2397 158.074C95.0783 158.753 97.3861 158.753 98.7361 160.348C99.4593 161.257 99.1443 162.507 99.1347 163.572C98.7908 167.513 98.5111 171.458 98.2058 175.402C98.2347 176.604 97.6208 177.816 96.5022 178.348C91.4301 180.9 85.5961 181.059 80.029 181.027C76.0561 181.104 72.0029 180.664 68.3193 179.111C66.9115 178.588 65.4008 177.663 65.2754 176.014C64.9765 173.186 64.9122 170.332 64.684 167.497C64.1954 167.66 63.71 167.826 63.2247 167.991C63.2022 171.735 63.2086 175.475 63.2215 179.219C63.2279 179.946 63.1572 180.67 63.019 181.384C62.0708 178.964 62.09 176.32 61.6625 173.789C61.2865 171.639 61.3958 169.334 60.2579 167.395C60.7561 165.74 60.5761 163.913 59.3547 162.602C59.599 160.695 58.5222 159.031 57.4968 157.532C57.1722 157.121 56.6997 156.866 56.2851 156.563C56.0151 155.023 54.6265 154.095 53.344 153.403C52.0101 152.701 50.4929 152.507 49.0079 152.436C51.9522 156.295 53.4726 161.053 54.0061 165.823C54.8065 171.394 54.9511 177.022 55.4686 182.618C57.6543 182.366 59.8529 182.216 62.0226 181.831C63.4465 181.611 64.7676 180.9 66.2301 180.887C67.1333 180.852 68.0397 180.903 68.9268 181.075C74.7608 182.417 80.8197 182.857 86.779 182.277C89.9193 182.169 92.9665 181.349 96.0554 180.887C95.84 186.4 95.3001 191.894 94.9915 197.401C94.9786 198.584 94.3422 199.771 93.2365 200.281C89.3729 202.201 84.934 202.338 80.7008 202.344C77.2197 202.405 73.6711 201.917 70.4761 200.495C69.6918 200.16 68.9108 199.614 68.7115 198.741C68.2518 196.837 68.3579 194.86 68.2422 192.921C68.0365 189.793 67.7536 186.671 67.3583 183.559C67.0401 185.963 66.7861 188.377 66.5836 190.791C66.4904 191.792 66.1593 192.95 65.0922 193.313C59.6793 195.128 53.9097 195.66 48.2204 195.651C42.949 195.667 37.6004 195.702 32.4576 194.385C31.2072 194.034 29.8701 193.814 28.7772 193.077C27.7358 192.303 27.694 190.915 27.5558 189.748C27.3372 186.502 26.794 183.282 26.7136 180.029C32.0847 182.628 38.1983 182.832 44.0547 182.542C42.0329 182.657 40.0143 182.867 37.9861 182.781V183.001C41.8143 182.606 45.6586 182.934 49.4965 182.886C51.1776 182.883 52.8586 182.886 54.5365 182.883C51.8204 176.113 52.5983 168.702 51.5247 161.633C51.0361 158.387 50.0558 155.137 48.1304 152.43C45.6586 157.503 43.2897 162.65 41.5218 168.014C40.024 172.376 39.2943 176.961 38.9633 181.544C38.5551 177.574 38.6772 173.559 39.2879 169.614C39.9404 165.195 41.0461 160.756 43.4086 156.904C44.3601 155.192 45.7454 153.789 46.9283 152.242C45.0897 152.593 43.3572 153.317 41.5893 153.9C40.8597 154.184 40.0786 154.407 39.4615 154.908C38.7833 155.399 39.1754 156.314 39.1079 157.009C38.8154 156.767 38.5229 156.528 38.2304 156.292C37.1858 158.052 36.1958 159.844 35.1768 161.623C35.5722 161.968 35.9643 162.315 36.3533 162.666C35.8229 162.679 35.2893 162.695 34.759 162.714C32.6633 167.969 31.5093 173.613 31.609 179.27C31.4322 177.845 31.4258 176.41 31.4097 174.978C29.899 174.895 28.3658 174.908 26.8936 174.503C27.9415 173.058 29.7576 173.865 31.2008 174.028C31.2811 172.488 31.5897 170.966 31.6315 169.426C30.4904 168.907 29.2561 168.642 28.0797 168.227C29.0279 167.019 30.6479 167.953 31.8726 168.052C32.3483 166.148 32.8818 164.264 33.4058 162.379C32.689 161.725 31.6668 161.228 31.4676 160.192C32.3193 160.348 33.1615 160.539 34.0165 160.692C35.0354 158.801 36.154 156.961 37.0893 155.026C36.9029 153.964 36.7679 152.892 36.7711 151.815C37.4076 152.226 37.864 152.829 38.2979 153.435C39.7604 152.736 41.1779 151.955 42.6083 151.199C42.6372 150.402 42.6629 149.608 42.6886 148.811C42.8686 148.766 43.2254 148.677 43.4022 148.632C43.6401 149.35 43.8779 150.07 44.119 150.788C45.8515 150.676 47.5679 150.408 49.2715 150.074C49.4258 149.532 49.5865 148.989 49.7408 148.451C49.8693 148.428 50.1265 148.384 50.2551 148.358C50.5186 149.005 50.7854 149.649 51.049 150.297C53.8808 150.676 56.3365 152.252 58.3808 154.155C59.2904 153.559 60.1936 152.937 61.2029 152.519C61.3154 153.69 60.0265 154.35 59.5861 155.351C60.4668 157.621 61.6818 159.758 62.6493 161.993C62.2476 163.46 62.8454 164.911 62.9708 166.368C63.4883 166.509 64.0058 166.649 64.5233 166.786C64.4718 165.099 64.3368 163.412 64.3272 161.722C64.3561 161.139 64.34 160.421 64.9218 160.086C66.3265 159.139 68.0847 158.817 69.4476 157.813C69.6083 157.312 69.5183 156.783 69.4925 156.276C68.7372 148.907 67.9658 141.438 65.3879 134.433C63.62 129.771 61.0904 125.354 57.7154 121.646C55.4751 119.203 53.3536 116.464 52.6272 113.167C52.0583 110.361 51.8558 107.472 52.1322 104.618C52.3701 100.782 52.4922 96.8816 51.6629 93.0997C51.3993 91.9008 50.9976 90.7273 50.9461 89.4901C52.714 91.0207 54.0961 92.918 55.6936 94.6112C58.6701 97.8255 61.5083 101.161 64.4943 104.366C64.07 101.155 63.53 97.9594 63.0929 94.7547C62.1447 87.8797 61.354 80.9314 59.2197 74.2924C56.5711 66.0749 52.5533 58.2656 47.2079 51.448C46.6068 50.6827 46.0154 49.8823 45.8001 48.9161C47.3815 49.8568 48.6158 51.2503 50.0172 52.4205C53.5754 55.3765 56.6933 58.8268 59.4929 62.4939C65.7897 71.0972 70.4601 80.705 75.3843 90.1055C75.6768 88.2337 75.664 86.3172 76.1622 84.4805C77.1104 81.1004 78.2001 77.7522 79.624 74.5379C81.8322 69.8026 83.7672 64.9429 85.4965 60.0162C86.3836 57.1878 87.38 54.3753 88.8297 51.7764C90.7486 48.3708 92.7865 45.029 94.4675 41.499C96.605 37.2547 98.3118 32.8159 99.8643 28.3325C100.472 26.6138 100.854 24.8217 101.523 23.1221ZM91.459 49.6049C88.9358 54.0372 86.9654 58.7535 85.249 63.543C83.6451 67.5194 81.9383 71.4607 80.0836 75.3319C78.0329 79.7324 76.1365 84.3689 76.0561 89.2892C76.0111 91.2758 76.5704 93.2273 77.464 94.9939C79.7526 99.8727 80.8679 105.188 81.9222 110.437C84.4293 104.095 88.0968 98.3038 90.9318 92.1112C91.6004 90.7432 91.5779 89.1871 91.5361 87.7043C91.459 84.3242 90.1315 81.1387 89.8615 77.7841C89.3633 73.999 89.3054 70.1469 89.8165 66.3619C90.3693 60.6221 92.8572 55.3383 94.744 49.9556C96.8076 44.5506 98.6847 39.0532 99.919 33.4027C97.0261 38.763 94.5736 44.3593 91.459 49.6049ZM52.3508 56.3714C52.9679 57.9786 53.929 59.4231 54.6972 60.9601C57.5483 66.5181 59.7565 72.3982 61.2768 78.4473C62.8904 85.2171 63.6201 92.1527 64.2501 99.0691C64.4526 100.746 64.4847 102.465 65.0183 104.085C65.5968 106.084 67.2265 107.5 68.2358 109.273C72.6393 115.855 75.2622 123.62 75.5129 131.531C76.8597 129.372 77.9526 127.067 79.1965 124.85C80.1126 123.358 79.8618 121.563 79.9872 119.901C80.1929 117.044 79.9904 114.181 79.7879 111.33C79.3733 106.276 77.9558 101.371 76.1236 96.6584C73.4751 89.6527 69.8397 83.0806 66.3683 76.4575C62.4083 69.3274 58.2072 62.1559 52.3508 56.3714ZM108.501 64.2509C103.496 69.7898 99.4786 76.212 96.6886 83.1157C93.9275 90.3925 90.9479 97.6501 86.7661 104.254C85.5897 106.164 84.77 108.256 83.899 110.313C82.5008 113.667 81.6458 117.341 82.2083 120.979C86.149 118.065 88.9775 113.804 90.5172 109.2C91.3979 106.811 91.864 104.305 92.6065 101.875C95.1104 93.4984 98.5722 85.3542 103.403 78.0264C105.309 74.86 107.874 72.1272 109.594 68.8427C111.121 66.2088 112.117 63.2943 112.641 60.3096C111.002 61.33 109.832 62.8893 108.501 64.2509ZM109.874 115.188C113.014 113.731 116.109 112.175 119.214 110.638C123.872 108.352 127.706 104.366 129.577 99.5347C130.59 97.0634 131.033 94.4167 131.361 91.7828C123.602 98.9894 115.479 106.11 109.874 115.188ZM53.6526 104.168C53.4661 105.689 53.4565 107.229 53.524 108.76C53.7393 113.036 55.4815 117.169 58.2618 120.428C63.8225 126.576 67.2618 134.465 68.5186 142.596C69.679 149.551 70.1193 156.604 70.3154 163.642C71.1575 163.76 71.9997 163.897 72.8386 164.044C72.9351 155.265 72.0158 146.346 74.0729 137.711C74.3461 136.113 75.0951 134.589 75.0404 132.947C74.3268 124.767 71.6622 116.595 66.4776 110.105C62.4468 105.115 58.1558 100.335 53.8133 95.6157C53.6783 98.4633 54.0576 101.33 53.6526 104.168ZM89.5883 116.062C88.4343 119.924 87.4058 123.849 87.0522 127.873C86.3804 137.079 86.1393 146.308 85.6026 155.517C85.8436 155.504 86.1458 155.536 86.2422 155.252C86.8304 154.076 87.3736 152.87 87.7626 151.614C87.9072 151.796 88.0486 151.98 88.19 152.172C86.3129 155.51 85.3936 159.299 85.2233 163.1C84.9372 162.111 85.204 161.094 85.3229 160.102C85.4772 158.712 85.6508 157.319 86.0043 155.963C85.8243 155.925 85.4643 155.852 85.2843 155.813C85.2425 153.307 85.4097 150.788 85.4161 148.275C85.7729 144.248 85.5351 140.195 85.9111 136.171C85.9593 130.721 86.5058 125.284 87.4733 119.921C87.7658 118.46 88.3347 117.07 88.6272 115.609C87.1808 117.784 85.4193 119.707 83.6451 121.617C81.5526 124.021 80.1993 126.939 78.6629 129.697C76.1911 134.26 75.0918 139.398 74.3751 144.487C73.8576 147.956 73.6936 151.467 73.5522 154.968C73.5843 157.991 73.3208 161.037 73.7547 164.044C75.4968 164.487 77.3033 164.512 79.0904 164.608C85.04 164.796 91.1922 164.544 96.7979 162.379C95.5765 161.56 94.0497 161.413 92.7029 160.864C92.494 161.591 92.3043 162.322 92.0793 163.046C91.9443 159.952 92.8251 156.933 93.4872 153.938C95.104 147.443 97.5018 141.129 100.713 135.246C103.975 129.209 108.273 123.779 113.126 118.926C115.556 116.505 118.337 114.442 120.59 111.85C118.565 112.551 116.746 113.715 114.759 114.506C111.288 115.941 107.833 117.605 105.036 120.147C102.545 122.433 100.475 125.182 99.0543 128.243C97.6626 131.186 96.9875 134.398 95.7436 137.398C94.3165 140.855 92.6997 144.248 90.694 147.414C89.8968 148.683 89.2476 150.029 88.4826 151.314L88.8651 151.655C88.5404 151.63 88.219 151.56 87.8975 151.505C89.8904 147.717 91.7933 143.881 93.5161 139.965C94.4997 137.781 94.8886 135.399 95.2486 133.052C95.9461 127.883 97.2865 122.621 96.1936 117.408C95.2968 113.253 93.6865 109.276 93.0372 105.064C91.8672 108.725 90.5301 112.334 89.5883 116.062ZM66.6897 162.264C67.7054 162.743 68.7468 163.16 69.8043 163.53C69.8076 162.733 69.8108 161.936 69.8108 161.142C68.7565 161.473 67.7086 161.831 66.6897 162.264Z" fill="black"></path><path d="M126.527 125.255C127.915 126.349 128.562 128.042 129.535 129.461C130.535 131.18 132.252 132.548 132.563 134.605C133.042 136.674 131.895 138.779 132.631 140.813C133.039 142.102 133.045 143.46 132.914 144.793C132.753 145.73 133.367 146.531 133.585 147.405C134.013 148.865 133.389 150.332 133.168 151.773C132.595 154.742 133.335 157.752 133.097 160.74C132.898 163.266 132.968 165.801 132.837 168.329C132.811 168.865 132.547 169.35 132.306 169.818C132.078 168.39 132.358 166.955 132.383 165.526C132.505 161.891 131.872 158.278 131.969 154.643C132.007 153.046 132.319 151.464 132.319 149.863C132.325 148.572 131.975 147.322 131.776 146.056C131.268 142.835 131.249 139.56 131.39 136.311C131.496 134.5 130.786 132.66 129.478 131.397C129.06 130.963 128.414 131.234 127.893 131.212C127.617 132.108 127.224 132.988 127.16 133.935C127.199 134.598 127.469 135.22 127.655 135.855C127.401 136.697 127.012 137.574 127.234 138.473C127.559 140.045 128.282 141.56 128.153 143.199C128.134 144.311 127.543 145.297 127.334 146.368C127.093 147.229 128.002 147.708 128.488 148.253C128.491 149.005 128.455 149.761 128.282 150.498C127.536 153.62 127.8 156.85 127.748 160.029C127.077 156.445 126.922 152.685 128.05 149.171C127.629 148.438 127.048 147.774 126.79 146.958C126.636 145.88 127.179 144.876 127.298 143.824C127.668 141.754 126.495 139.828 126.53 137.775C126.546 136.177 126.34 134.573 126.511 132.979C126.675 131.531 127.221 130.099 126.977 128.629C126.794 127.51 126.495 126.4 126.527 125.255Z" fill="black"></path><path d="M128.8 132.918C129.751 134.936 130.031 137.169 130.291 139.359C130.744 144.707 130.873 150.131 130.037 155.45C130.731 147.928 130.105 140.345 128.8 132.918Z" fill="black"></path><path d="M110.896 143.326C111.731 143.017 112.172 141.923 113.158 141.99C114.267 141.837 115.052 142.743 115.666 143.518C116.652 144.755 117.623 146.132 119.118 146.805C120.104 147.258 121.274 147.532 121.94 148.467C123.023 149.918 122.679 151.914 123.65 153.422C124.116 154.127 124.817 154.627 125.453 155.173C124.566 154.729 123.582 154.286 123.078 153.384C122.303 151.993 122.518 150.211 121.471 148.945C120.616 147.803 119.037 147.797 117.919 147.048C116.611 146.129 115.608 144.87 114.569 143.677C114.193 143.224 113.608 142.784 112.991 143.023C112.303 143.479 111.866 144.49 110.912 144.385C109.738 144.481 108.774 143.447 107.614 143.655C106.743 144.911 106.328 146.413 105.688 147.787C107.566 148.294 107.755 145.278 109.587 145.412C110.744 145.724 111.442 146.802 112.226 147.618C112.901 146.834 113.242 145.472 114.415 145.322C115.913 145.488 116.9 146.805 117.591 148.014C118.462 149.382 118.973 151.011 120.198 152.127C121.001 152.864 122.255 152.979 122.936 153.84C123.663 155.141 122.239 156.219 122.049 157.44C122.837 159.085 124.99 159.777 125.421 161.652C125.845 162.921 124.132 163.888 124.72 165.122C125.431 166.831 125.926 168.636 126.835 170.262C124.968 171.496 124.855 174.197 122.669 175.061C122.489 175.609 122.316 176.158 122.155 176.713C121.724 176.71 121.294 176.706 120.866 176.703C121.291 176.588 121.705 176.467 122.136 176.368C121.824 175.217 120.847 174.471 120.059 173.648C119.14 172.762 118.234 171.748 116.98 171.346C115.514 170.823 113.737 171.93 113.592 173.479C113.3 174.458 113.477 175.769 112.48 176.381C111.198 176.971 109.697 176.786 108.408 177.354C107.414 177.976 108.385 179.251 107.993 180.134C107.501 181.234 106.547 182.118 106.318 183.339C106.032 184.34 106.405 185.348 106.858 186.234C107.337 185.074 107.672 183.604 108.944 183.033C109.523 182.673 110.311 182.529 110.693 181.923C111.268 180.625 111.13 179.018 112.149 177.925C113.078 176.923 114.206 176.126 115.315 175.335C115.862 174.924 116.704 174.608 117.295 175.112C117.909 175.724 117.986 176.643 118.179 177.443C117.671 176.802 117.231 176.11 116.694 175.498C115.717 175.782 115.1 176.62 114.377 177.268C113.769 177.829 112.991 178.205 112.477 178.865C111.625 180.039 112.201 181.684 111.355 182.858C110.597 183.616 109.439 183.878 108.774 184.752C107.652 186.311 108.125 188.907 110.002 189.672C111.317 190.163 112.712 190.46 114.11 190.594C115.183 190.727 116.273 190.061 116.611 189.037C117.218 187.36 116.492 185.485 117.247 183.833C117.668 182.612 118.828 181.879 119.442 180.785C119.568 179.822 119.33 178.852 119.446 177.889C119.783 177.574 120.194 177.357 120.59 177.127C120.436 178.629 120.384 180.182 119.741 181.579C119.275 182.705 118.443 183.629 117.944 184.736C117.636 186.521 118.118 188.502 117.083 190.125C115.952 191.891 115.91 194.085 116.485 196.05C116.958 197.676 116.964 199.493 117.916 200.941C118.507 201.493 119.082 200.769 119.555 200.431C118.719 199.484 117.729 198.416 117.871 197.054C118.189 194.522 119.764 192.398 120.632 190.051C120.914 189.257 120.211 188.652 119.815 188.055C120.654 187.816 121.715 187.784 122.271 187.009C122.573 185.807 121.921 184.675 121.483 183.601C122.634 183.154 123.875 182.66 124.572 181.579C125.324 180.402 125.016 178.923 125.408 177.644C125.8 176.458 127.231 176.279 128.008 175.444C128.635 174.273 128.764 172.66 130.107 172.013C131.223 171.4 132.409 172.194 133.428 172.634C134.562 170.096 135.607 167.523 136.735 164.984C137.613 163.014 138.294 160.944 139.416 159.092C139.348 160.294 138.802 161.384 138.378 162.491C137.645 164.328 137.034 166.212 136.231 168.023C135.594 169.462 134.601 170.747 134.196 172.284C133.874 173.403 134.186 174.557 134.189 175.692C134.189 176.997 133.714 178.243 133.659 179.544C133.997 180.319 134.954 180.814 134.9 181.741C134.897 183.773 135.009 185.814 134.787 187.835C134.006 185.938 134.877 183.785 134.26 181.84C133.913 181.002 132.856 180.53 132.872 179.544C132.804 177.848 133.222 176.12 132.778 174.452C132.637 173.923 132.28 173.435 131.753 173.25C131.232 173.272 130.747 173.476 130.258 173.626C130.213 174.257 130.213 174.892 130.265 175.527C129.368 176.241 128.709 177.43 129.149 178.578C129.751 180.696 130.294 182.838 130.554 185.026C130.705 186.206 130.21 187.331 129.911 188.451C129.368 187.564 128.748 186.652 128.728 185.578C128.642 182.925 128.439 180.278 128.327 177.625C127.928 177.784 127.536 177.966 127.16 178.17C126.713 179.433 127.051 180.874 126.379 182.08C125.887 183.16 124.929 183.929 124.334 184.943C124.1 186.177 124.37 187.567 123.598 188.658C123.023 189.458 122.435 190.259 122.133 191.209C129.121 191.292 136.112 191.231 143.103 191.241C144.086 189.921 145.298 188.766 146.134 187.344C146.886 186.088 146.883 184.57 147.436 183.237C147.879 182.255 149.316 181.987 149.422 180.826C149.644 179.446 149.991 177.88 149.165 176.627C148.133 175.026 146.783 173.613 145.214 172.52C144.533 173.492 144.816 174.726 144.414 175.788C143.996 176.55 143.067 176.786 142.469 177.373C142.193 177.829 142.219 178.384 142.122 178.891C141.769 182.188 140.2 185.201 138.519 188.014C139.316 185.399 140.268 182.832 141.161 180.249C141.573 179.079 141.502 177.8 141.971 176.646C142.582 176.289 143.286 176.002 143.71 175.412C144.192 174.353 143.379 172.771 144.568 172.054C145.799 171.824 146.998 172.392 147.86 173.237C148.821 174.197 149.798 175.185 150.499 176.352C150.82 177.807 150.701 179.318 150.676 180.798C150.733 182.437 148.946 183.227 148.519 184.685C148.188 185.817 148.059 187.028 147.445 188.062C146.683 189.446 145.089 190.354 144.851 192.013C144.604 193.425 145.472 194.675 146.163 195.826C145.999 194.643 145.571 193.486 145.661 192.28C145.655 191.362 146.494 190.823 147.008 190.173C147.94 189.2 148.461 187.95 148.949 186.722C149.348 185.501 150.746 185.023 151.277 183.894C151.476 182.982 151.19 182.028 151.437 181.12C151.714 179.905 152.498 178.785 152.424 177.51C152.148 176.789 151.559 176.254 151.174 175.6C150.788 174.65 151.122 173.524 150.586 172.628C150.01 171.885 148.962 171.885 148.13 171.63C147.587 171.018 147.127 170.224 146.291 169.978C145.571 169.758 144.803 169.803 144.064 169.71C144.909 169.458 145.799 169.018 146.699 169.267C147.378 169.583 147.911 170.134 148.583 170.469C149.56 170.871 150.772 170.9 151.524 171.735C152.315 172.574 152.408 173.776 152.578 174.854C153.224 175.568 153.993 176.292 154.108 177.303C154.327 178.808 153.584 180.22 153.466 181.703C153.34 182.781 153.543 183.942 153.022 184.943C152.504 185.807 151.711 186.451 151.045 187.197C152.881 187.513 155.185 187.315 156.551 188.782C157.053 190.453 156.397 192.223 156.227 193.91C155.896 195.794 155.712 197.698 155.375 199.583C155.163 200.667 154.144 201.33 153.122 201.563C145.706 203.231 138.063 203.565 130.48 203.495C123.589 203.553 116.614 203.259 109.925 201.486C108.832 201.241 107.794 200.488 107.717 199.293C107.283 196.199 106.788 193.116 106.421 190.013C106.193 187.893 104.592 186.139 104.669 183.961C104.637 182.462 105.451 181.152 105.987 179.809C106.177 178.514 105.917 176.974 107.026 176.005C108.125 174.8 109.957 175.466 111.249 174.733C111.988 173.814 111.751 172.459 112.448 171.502C113.83 169.573 116.961 169.155 118.732 170.794C119.963 171.936 120.802 173.416 121.744 174.787C122.869 174.229 124.064 173.55 124.611 172.37C125.212 170.932 125.347 169.241 124.723 167.787C124.293 166.665 123.425 165.734 123.168 164.544C122.968 163.671 123.518 162.905 123.917 162.182C123.274 160.399 121.069 159.905 120.368 158.17C120.053 156.993 120.554 155.826 120.882 154.713C119.757 154.337 118.668 153.734 118.06 152.685C116.948 150.858 116.067 148.9 114.83 147.153C114.046 147.877 113.396 149.175 112.162 149.057C111.031 148.658 110.272 147.666 109.407 146.895C108.466 147.854 107.691 149.611 106.042 149.168C104.464 148.955 103.789 147.382 103.172 146.132C103.731 146.161 104.293 146.241 104.853 146.18C105.862 145 105.994 143.278 107.267 142.271C108.572 142.271 109.658 143.078 110.896 143.326ZM150.248 189.273C149.702 189.576 149.396 190.157 149.007 190.622C150.19 190.495 151.363 190.275 152.517 189.981C151.778 189.704 151.055 189.283 150.248 189.273Z" fill="black"></path><path d="M148.68 143.999C149.879 143.221 151.155 142.28 152.665 142.373C154.24 142.366 155.414 143.533 156.539 144.471C156.789 144.219 157.04 143.967 157.291 143.718C158.66 144.445 159.894 145.389 161.267 146.116C162.832 146.936 164.227 148.275 164.668 150.026C164.963 151.381 164.831 152.784 164.664 154.149C163.909 152.911 163.552 151.234 162.077 150.628C160.637 149.866 159.261 151.285 157.811 151.199C156.503 150.647 156.002 149.174 154.964 148.291C153.826 149.573 152.829 151.378 150.875 151.41C149.323 153.253 148.249 155.437 147.063 157.519C147.731 157.774 148.381 158.269 149.13 158.195C150.496 157.851 150.663 155.947 152.051 155.66C153.376 155.408 154.263 156.569 155.25 157.207C156.307 157.908 157.612 157.564 158.795 157.621C159.772 157.612 160.701 158.285 161.039 159.187C161.37 159.888 161.476 160.724 162.051 161.292C162.684 161.964 163.526 162.577 163.668 163.556C163.848 164.844 163.048 165.973 162.691 167.156C162.205 168.3 163.983 169.311 163.16 170.427C162.138 171.917 161.476 173.983 159.566 174.566C158.242 174.927 156.911 175.456 155.523 175.456C156.397 173.093 158.245 171.228 159.499 169.066C160.026 168.147 158.901 167.628 158.323 167.159C157.034 166.311 157.413 164.601 157.323 163.297C156.41 163.422 155.516 163.702 154.591 163.683C154.102 163.412 153.713 163.007 153.318 162.624C152.797 163.013 152.293 163.434 151.714 163.741C150.679 164.13 149.641 163.549 148.728 163.119C148.468 163.61 148.284 164.158 147.892 164.566C147.233 165.003 146.343 164.847 145.655 165.188C144.938 165.861 144.263 166.582 143.608 167.312C142.923 167.985 142.981 168.999 142.855 169.876C142.573 169.018 141.988 168.141 142.248 167.21C142.743 166.241 143.408 165.364 143.89 164.385C144.276 163.565 145.189 163.291 145.967 162.988C146.288 162.197 146.59 161.205 147.548 160.989C148.895 160.711 150.129 161.531 151.283 162.108C151.823 161.301 152.572 160.373 153.684 160.571C154.301 160.903 154.678 161.524 155.243 161.926C156.352 161.932 157.901 161.343 158.525 162.647C158.676 163.629 158.49 164.64 158.718 165.616C158.969 166.416 159.75 166.84 160.386 167.312C160.836 166.314 161.447 165.338 161.582 164.235C161.717 163.517 160.952 163.205 160.537 162.787C159.386 161.977 159.936 160.22 158.908 159.33C157.786 159.187 156.645 159.493 155.533 159.244C154.404 158.721 153.742 157.557 152.64 157.019C151.348 157.168 150.968 158.906 149.753 159.295C148.268 159.63 147.095 157.947 145.636 158.425C144.884 159.286 145.083 160.577 144.418 161.496C143.489 162.822 142.219 163.948 141.711 165.529C139.037 172.468 138.031 179.901 137.115 187.229C136.896 178.396 138.844 169.605 141.943 161.352C142.434 159.92 143.203 158.552 144.437 157.621C146.481 155.947 147.892 153.68 149.072 151.358C149.67 150.048 151.367 150.121 152.286 149.158C153.08 148.348 153.835 147.506 154.678 146.748C153.736 146.878 152.743 146.964 151.913 147.468C147.185 150.472 143.768 154.981 139.786 158.814C140.149 158.125 140.564 157.455 141.1 156.885C143.485 154.257 145.861 151.62 148.31 149.05C150.059 147.392 152.418 145.858 154.948 146.263C156.686 146.636 157.786 148.147 158.879 149.41C160.348 149.413 161.816 149.429 163.282 149.385C162.196 146.999 159.329 146.681 157.529 145.061C157.082 145.376 156.641 145.695 156.198 146.011C155.471 145.061 154.758 143.951 153.559 143.556C151.99 142.975 150.313 143.75 149.053 144.668C145.035 147.765 141.01 150.985 138.008 155.109C137.449 155.903 137.173 156.853 136.671 157.682C136.147 158.31 135.443 158.766 134.955 159.429C134.196 160.415 134.019 161.677 133.666 162.832C133.727 161.834 133.698 160.781 134.177 159.869C134.71 158.744 135.736 157.959 136.356 156.888C136.931 155.909 137.407 154.86 138.156 153.989C139.635 152.261 140.891 150.338 142.576 148.788C144.463 147.015 146.558 145.478 148.68 143.999ZM156.175 174.962C157.516 174.621 158.908 174.267 160.058 173.473C160.421 172.762 160.573 171.942 161.093 171.314C161.424 170.797 161.968 170.316 161.852 169.643C161.518 169.362 161.164 169.114 160.81 168.868C159.316 170.938 157.509 172.781 156.175 174.962Z" fill="black"></path><path d="M47.4874 157.558C47.2559 156.314 47.5774 154.898 48.9113 154.449C48.937 154.768 48.9949 155.409 49.0238 155.731C48.5352 156.359 48.0242 156.968 47.4874 157.558Z" fill="black"></path><path d="M45.7133 161.84C47.0311 162.535 46.8543 164.063 46.7322 165.316C46.3175 164.78 45.8515 164.267 45.5911 163.639C45.4336 163.046 45.6393 162.43 45.7133 161.84Z" fill="black"></path><path d="M130.214 176.158C130.426 176.164 130.644 176.167 130.863 176.19C131.178 178.304 132.136 180.268 132.377 182.405C132.573 184.228 132.981 186.225 132.084 187.934C131.483 186.155 131.387 184.27 131.075 182.433C130.792 180.341 130.378 178.265 130.214 176.158Z" fill="black"></path><path d="M46.6619 179.171C46.8483 178.348 47.1022 177.542 47.3851 176.748C48.0472 177.089 48.7447 177.385 49.3426 177.835C49.5419 178.492 48.7287 178.533 48.3397 178.76C47.7965 178.961 47.2276 179.066 46.6619 179.171Z" fill="black"></path><path d="M30.8311 195.342C41.8818 197.574 53.3825 197.539 64.4364 195.338C63.98 200.683 63.71 206.046 63.1346 211.387C63.0446 212.768 61.8907 213.77 60.6468 214.2C57.0886 215.501 53.2507 215.756 49.4932 215.928C44.2218 216.174 38.7607 215.9 33.8171 213.923C32.4639 213.495 32.0943 212.048 32.0557 210.798C31.9207 205.629 31.1557 200.501 30.8311 195.342Z" fill="black"></path><path d="M110.931 202.842C116.045 203.422 121.172 203.955 126.324 204.002C129.108 204.238 131.904 204.203 134.694 204.139C137.562 203.862 140.451 204.037 143.312 203.684C146.324 203.553 149.313 203.161 152.302 202.819C151.981 206.77 151.364 210.689 150.827 214.615C150.624 215.613 150.583 216.764 149.84 217.542C149.082 218.164 148.085 218.352 147.156 218.566C138.834 220.281 130.243 220.166 121.831 219.229C119.034 218.827 116.055 219.05 113.47 217.752C112.609 217.367 112.538 216.324 112.41 215.52C111.899 211.298 111.33 207.076 110.931 202.842Z" fill="black"></path></svg>