<svg width="125" height="131" viewBox="0 0 125 131" fill="none" xmlns="http://www.w3.org/2000/svg">
<path d="M50.1026 0C52.1369 6.62059 53.4458 13.439 54.6791 20.2476C55.7292 26.4726 56.645 32.7269 57.1017 39.0251C58.0346 38.9152 58.9699 38.8444 59.9077 38.798C58.6573 33.7257 58.1494 28.4898 58.1396 23.2734C58.1787 21.6714 58.2226 20.0645 58.4717 18.4771C59.3533 21.0853 59.8027 23.8156 60.1861 26.5361C60.7331 30.5949 60.8772 34.705 60.6623 38.7931C62.3181 38.82 63.9665 38.986 65.5954 39.2766C66.3183 29.5692 68.5235 20.001 71.6787 10.8039C72.6995 7.92713 73.7765 5.05763 75.1636 2.33467C74.2063 7.34102 72.9169 12.2741 71.7276 17.2267C69.8838 24.619 68.1083 32.0309 66.0692 39.3719C67.2902 39.6259 68.4698 40.0313 69.6591 40.4049C69.9912 36.246 71.4125 32.1774 73.7374 28.7169C74.2429 27.9525 74.8168 27.237 75.4787 26.602C75.188 28.4947 74.58 30.3165 73.9865 32.131C72.9755 35.0664 71.8106 37.9579 70.3844 40.7175C71.4638 41.1766 72.509 41.709 73.5347 42.2805C75.7668 37.3449 78.0722 32.4412 80.3995 27.5496C82.2775 23.6739 83.8942 19.6591 86.1336 15.969C87.3816 13.8297 88.6881 11.7222 90.146 9.7172C90.3268 9.46811 90.5685 9.27274 90.8054 9.07492C90.1167 11.8565 88.9054 14.4793 87.7723 17.1022C86.0921 21.0462 83.7721 24.6654 81.7525 28.4361C79.1736 33.1469 76.5361 37.826 73.8888 42.4978C75.1148 43.2451 76.2675 44.1023 77.3835 45.001C80.021 40.908 83.0663 37.091 86.2533 33.418C88.395 31.0369 90.5221 28.6168 92.9911 26.5703C91.3915 29.8354 89.2669 32.8099 87.047 35.677C84.2703 39.1912 81.2128 42.4978 77.7865 45.3893C79.0564 46.4736 80.1675 47.7288 81.2005 49.0403C86.688 42.5076 93.0815 36.7735 99.917 31.6865C103.692 28.9465 107.568 26.3017 111.754 24.2258C108.489 27.1808 105.05 29.9306 101.673 32.7513C94.9277 38.2851 88.2705 43.9264 81.4472 49.3651C82.1774 50.4005 82.8661 51.4653 83.4644 52.5862C86.6392 49.8779 90.1851 47.6238 93.8874 45.7141C95.3551 44.9546 96.8765 44.2903 98.4444 43.7628C96.1317 46.4321 93.184 48.4786 90.1607 50.2613C88.1191 51.4067 86.0018 52.4324 83.7745 53.1626C84.5609 54.8061 85.2056 56.5156 85.6696 58.2812C87.2106 57.4705 88.6539 56.4912 90.1973 55.6828C94.8178 53.1992 99.7753 51.3456 104.872 50.1075C108.723 49.2234 112.662 48.5592 116.626 48.6397C111.314 50.2711 105.939 51.7046 100.674 53.4898C96.498 54.8525 92.383 56.3862 88.2681 57.9223C87.4524 58.2348 86.6172 58.4913 85.7722 58.7086C86.1043 60.1397 86.3241 61.5952 86.412 63.0605C90.8127 60.9407 95.6555 59.7734 100.53 59.5243C101.492 59.4657 102.457 59.5194 103.417 59.6098C102.005 60.3595 100.462 60.8088 98.9474 61.2924C94.874 62.5183 90.6882 63.3902 86.4511 63.7833C86.4829 65.2755 86.3827 66.7652 86.1947 68.2427C96.349 67.952 106.506 68.2451 116.663 68.1694C119.442 68.2427 122.223 68.2158 125 68.3794C119.945 69.5101 114.763 69.9473 109.598 70.1622C101.761 70.4137 93.863 70.0059 86.1629 68.4722C85.909 70.0303 85.5622 71.5737 85.0567 73.0707C90.1729 72.343 95.3893 72.4431 100.515 73.0512C102.296 73.2661 104.076 73.5543 105.802 74.0525C101.016 74.9561 96.0902 74.8803 91.2548 74.4725C89.1252 74.2796 87.0079 73.9768 84.9223 73.503C84.5414 74.453 84.1531 75.4005 83.6988 76.3163C92.8275 79.6352 101.372 84.5048 110.809 86.9884C113.647 87.7674 116.56 88.2119 119.478 88.5636C114.174 89.4525 108.733 88.5367 103.683 86.8443C96.5273 84.4071 89.9018 80.6413 83.6207 76.4799C82.3459 78.9172 80.7341 81.1835 78.7926 83.1347C85.1275 89.5111 91.2303 96.1122 97.4211 102.625C99.1037 104.447 100.833 106.232 102.401 108.159C98.4737 105.678 94.957 102.611 91.5991 99.4188C86.6587 94.5907 82.1481 89.2815 78.4996 83.4058C77.2004 84.6684 75.7204 85.7234 74.2136 86.7198C76.7974 89.4891 79.0124 92.5833 81.181 95.6848C82.363 97.4504 83.5816 99.2063 84.5145 101.123C81.5376 99.2967 79.1907 96.6079 77.2321 93.7531C75.8816 91.7212 74.7729 89.5233 74.028 87.196C73.9548 87.1203 73.8034 86.9688 73.7301 86.8931C72.5896 87.8236 71.1756 88.3389 69.8325 88.9079C71.901 92.6663 73.8376 96.498 75.8303 100.298C78.5435 105.534 81.3324 110.731 84.1287 115.925C85.2545 118.067 86.4462 120.177 87.4524 122.38C81.9527 116.162 77.6741 108.943 74.2112 101.424C72.404 97.3943 70.8069 93.2524 69.7397 88.9616C68.145 89.5209 66.5112 89.9702 64.8432 90.2486C67.5564 93.6114 69.6005 97.4749 71.2098 101.475C72.3967 104.616 73.4175 107.859 73.7423 111.214C71.5786 107.517 69.8642 103.58 68.1474 99.663C66.8433 96.5811 65.5417 93.4918 64.5184 90.3024C63.0434 90.5221 61.5561 90.6296 60.0664 90.571C63.5635 99.8437 66.2035 109.422 68.46 119.066C69.3367 123.015 70.2061 126.973 70.7141 130.991C68.7213 126.128 67.1999 121.085 65.7028 116.05C63.3169 107.673 61.1874 99.2039 59.8198 90.5954C58.3423 90.5637 56.8697 90.3976 55.4264 90.085C56.9845 95.0987 57.6121 100.364 57.7513 105.597C57.7879 107.238 57.6878 108.882 57.4998 110.513C56.8477 108.853 56.457 107.104 56.1004 105.363C55.1236 100.327 54.6816 95.1597 55.0845 90.0362C53.7951 89.7431 52.5203 89.389 51.2821 88.9225C51.2015 95.3087 50.5544 101.673 49.8901 108.02C49.0989 114.814 48.2514 121.618 46.7935 128.307C46.5297 122.846 46.9303 117.376 47.3894 111.935C48.1171 104.171 49.2112 96.4223 51.0526 88.8395C49.8046 88.3584 48.5933 87.787 47.4431 87.1105C46.9254 91.1669 45.7751 95.1255 44.2928 98.9279C43.4869 100.935 42.6297 102.938 41.4379 104.75C41.7603 100.198 43.0741 95.7605 44.7128 91.5185C45.3526 89.9067 46.0511 88.3169 46.8863 86.7955C45.8191 86.0995 44.769 85.3766 43.8019 84.5512C39.8872 91.9679 35.0493 98.8718 29.7646 105.373C26.6924 109.077 23.4957 112.701 19.9179 115.932C22.5628 111.766 25.5519 107.832 28.4532 103.844C33.3765 97.26 38.2656 90.6442 43.5015 84.3069C42.5662 83.4351 41.6406 82.5511 40.8176 81.5693C39.1643 85.5207 36.4584 88.9714 33.2837 91.8214C31.877 93.0473 30.3727 94.1926 28.6827 95.0034C30.8684 91.6602 33.5621 88.6881 36.1874 85.6892C37.5647 84.136 39.0105 82.6487 40.4879 81.1932C39.6283 80.104 38.8151 78.9758 38.1289 77.7694C32.6683 84.1677 25.7668 89.1253 18.7018 93.5992C15.1509 95.7922 11.583 97.9755 7.81479 99.7778C14.4574 93.9265 21.9229 89.1277 29.0588 83.9211C32.0382 81.7769 34.9736 79.5717 37.848 77.2907C37.0079 75.7668 36.3607 74.1502 35.7942 72.5091C31.7964 75.6276 27.5154 78.3726 23.1171 80.8929C21.1292 81.9967 19.1438 83.1372 17.0167 83.9553C19.6273 81.1102 22.7655 78.8024 25.9964 76.7119C29.0368 74.7949 32.2482 73.1342 35.6232 71.8814C35.3326 70.8069 35.0811 69.7201 34.9077 68.6187C29.7768 70.9534 24.5287 73.0121 19.3245 75.1685C13.5391 77.4641 7.80746 79.9111 1.91218 81.9161C5.66328 79.2444 9.78802 77.1442 13.947 75.1929C20.6457 72.1574 27.6277 69.6591 34.8491 68.2085C34.6635 66.8653 34.5829 65.5124 34.6146 64.157C30.8025 65.8005 26.8389 67.0704 22.8387 68.1547C21.0804 68.6236 19.3099 69.0608 17.5027 69.2854C18.9973 68.0522 20.7507 67.1901 22.4993 66.3793C26.3139 64.7114 30.4313 63.6197 34.6049 63.5245C34.6952 62.3547 34.8002 61.1874 35.0127 60.0347C28.2358 60.6403 21.4223 60.7112 14.6259 60.5085C9.73918 60.3155 4.83052 60.1055 0 59.2972C6.8648 58.4668 13.7907 58.4717 20.6921 58.5426C25.508 58.6842 30.3312 58.8893 35.1128 59.517C35.357 58.501 35.6232 57.49 35.9431 56.4936C30.3018 56.8209 24.5751 55.5754 19.559 52.977C18.6944 52.5154 17.8568 52.0001 17.0729 51.4067C20.2598 51.9146 23.3833 52.7498 26.5337 53.441C29.7621 54.2005 33.0028 54.916 36.2215 55.7219C36.6343 54.5985 37.13 53.5069 37.6868 52.447C31.4374 50.7473 25.464 48.1025 19.874 44.8496C16.1131 42.6248 12.4695 40.1583 9.25808 37.1838C11.3852 38.0898 13.395 39.24 15.4562 40.2828C22.9266 44.239 30.4874 48.0243 38.0165 51.8658C38.6393 50.7815 39.3597 49.7582 40.1167 48.7619C35.3424 46.3246 30.8269 43.3916 26.5483 40.168C25.2003 39.135 23.8693 38.0776 22.658 36.8858C25.5348 37.8089 28.2041 39.2571 30.8074 40.7663C34.3314 42.869 37.6624 45.3014 40.6662 48.1C41.3695 47.2575 42.1535 46.4882 42.9325 45.7165C35.1324 40.1119 29.093 32.5462 22.1745 25.9671C20.907 24.7045 19.559 23.5298 18.2866 22.2746C23.4151 24.8315 27.7572 28.6901 31.7549 32.7415C35.821 36.7564 39.538 41.1009 43.5308 45.1866C44.5614 44.2952 45.6457 43.4624 46.8033 42.7396C42.427 39.5453 39.4525 34.915 36.4072 30.529C34.8418 28.1967 33.1738 25.9353 31.4545 23.7154C33.6695 24.9072 35.4669 26.7168 37.1544 28.5509C40.9617 32.8685 43.8483 37.8993 47.6165 42.2536C48.7863 41.6235 49.978 41.0399 51.2186 40.5637C48.1855 35.5964 45.3429 30.5119 42.5515 25.4054C38.7467 18.3574 34.9443 11.2973 31.6743 3.98066C35.3595 8.73547 38.4805 13.8981 41.4819 19.1047C45.3673 25.9549 48.9059 33.0151 51.8316 40.3341C53.3897 39.7773 54.9966 39.3743 56.6255 39.0862C54.9868 33.0883 53.7389 26.9903 52.6521 20.8704C51.4921 13.9592 50.4396 7.00645 50.1026 0ZM59.7905 41.6089C55.1529 41.8946 50.6301 43.565 46.8985 46.3271C42.9472 49.2088 39.958 53.3384 38.3169 57.9394C36.8541 62.2448 36.5757 66.9581 37.66 71.3832C38.6148 75.5715 40.7639 79.4471 43.6969 82.5755C48.1342 87.1105 54.3543 90.1045 60.76 90.0435C66.9434 90.3121 73.144 87.9017 77.6888 83.7306C77.9354 83.4327 78.48 83.1543 78.1626 82.7196C78.5362 82.9687 78.7975 82.617 79.0466 82.3703C82.5388 78.5777 84.8222 73.6813 85.4132 68.5528C85.7185 64.7431 85.3717 60.8333 83.9748 57.2507C82.4729 53.4019 80.065 49.8657 76.856 47.2477C72.1745 43.2695 65.9153 41.1913 59.7905 41.6089Z" fill="#3E3E3E"/>
<path d="M81.1787 80.5312C84.9127 82.1284 88.2975 84.4093 91.653 86.6683C94.1976 88.473 96.7765 90.246 99.1234 92.3096C95.4358 91.406 92.0828 89.506 88.9569 87.4034C86.1435 85.3886 83.3839 83.2176 81.1787 80.5312Z" fill="#3E3E3E"/>
</svg>
