<svg width="65" height="65" viewBox="0 0 65 65" fill="none" xmlns="http://www.w3.org/2000/svg">
<mask id="mask0" mask-type="alpha" maskUnits="userSpaceOnUse" x="0" y="0" width="65" height="65">
<rect width="65" height="65" fill="#C4C4C4"/>
</mask>
<g mask="url(#mask0)">
<path d="M25.0021 23.5561C20.0023 22.358 14.7128 22.1915 9.28079 23.0611C8.11726 23.2475 7.09714 23.9413 6.40816 25.0153C5.72233 26.0841 5.45686 27.3881 5.66062 28.6869C5.75339 29.2779 5.84494 29.8304 5.93265 30.3288C6.3292 32.5812 6.75942 34.6118 7.2114 36.3641C7.90119 39.0383 9.80584 41.0393 12.1838 41.5864L12.3476 41.6237C13.2452 41.8235 14.1608 41.9248 15.0687 41.9248C21.1239 41.9248 26.5044 37.5464 28.4573 31.0298L28.576 30.6335C29.0165 29.1616 28.8787 27.5435 28.1982 26.1937C27.5164 24.8407 26.3513 23.8793 25.0021 23.5561ZM27.2775 30.1464L27.1615 30.5336C25.3968 36.4219 20.5372 40.3783 15.0689 40.3783C14.2495 40.3783 13.423 40.2867 12.6148 40.1069L12.4553 40.0707C10.5783 39.6389 9.07225 38.0527 8.52517 35.9313C8.08428 34.2219 7.66364 32.2355 7.27475 30.027C7.18882 29.5391 7.09905 28.9974 7.00806 28.4171C6.86971 27.5349 7.05006 26.6491 7.516 25.923C7.98508 25.1917 8.68007 24.7193 9.47264 24.5923C14.7458 23.7482 19.8752 23.9085 24.7181 25.0689C25.6854 25.3007 26.5205 25.9898 27.0095 26.9592C27.4967 27.9255 27.5954 29.0842 27.2775 30.1464Z" fill="black"/>
<path d="M27.2775 30.1464L27.1615 30.5336C25.3968 36.4219 20.5372 40.3783 15.0689 40.3783C14.2495 40.3783 13.423 40.2867 12.6148 40.1069L12.4553 40.0707C10.5783 39.6389 9.07225 38.0527 8.52517 35.9313C8.08428 34.2219 7.66364 32.2355 7.27475 30.027C7.18882 29.5391 7.09905 28.9974 7.00806 28.4171C6.86971 27.5349 7.05006 26.6491 7.516 25.923C7.98508 25.1917 8.68007 24.7193 9.47264 24.5923C14.7458 23.7482 19.8752 23.9085 24.7181 25.0689C25.6854 25.3007 26.5205 25.9898 27.0095 26.9592C27.4967 27.9255 27.5954 29.0842 27.2775 30.1464Z" fill="black"/>
<path d="M24.5705 25.8564C21.8332 25.2004 18.9572 24.8678 16.0224 24.8678C15.2445 24.8678 14.4484 24.8919 13.6562 24.9394C13.279 24.9619 12.9893 25.326 13.0093 25.7524C13.0293 26.1789 13.3523 26.5055 13.7288 26.4836C14.4968 26.4375 15.2685 26.4141 16.0224 26.4141C18.862 26.4141 21.6424 26.7355 24.2867 27.369C24.6792 27.463 25.0042 27.7308 25.202 28.1231C25.3983 28.5124 25.4363 28.9605 25.3093 29.385C25.1882 29.7895 25.3803 30.2284 25.7383 30.365C25.811 30.3929 25.8849 30.406 25.9575 30.406C26.2428 30.406 26.5091 30.2027 26.6056 29.8803C26.8596 29.0316 26.7833 28.1358 26.391 27.3576C25.9969 26.5763 25.3504 26.0432 24.5705 25.8564Z" fill="black"/>
<path d="M59.0667 30.3286C59.1542 29.8306 59.2458 29.2783 59.3386 28.6866C59.5423 27.3879 59.2768 26.0838 58.5912 25.0151C57.9022 23.9412 56.8819 23.2472 55.7184 23.061C50.2863 22.1915 44.9969 22.358 39.9972 23.556C38.648 23.8792 37.4829 24.8406 36.8009 26.1935C36.1204 27.5433 35.9827 29.1614 36.4229 30.6329L36.5417 31.0295C38.4945 37.5462 43.8751 41.9245 49.9303 41.9245C50.8382 41.9245 51.7537 41.8232 52.6539 41.6228L52.8167 41.5859C55.1931 41.0392 57.0978 39.0382 57.7875 36.364C58.2395 34.6127 58.6698 32.5822 59.0667 30.3286ZM56.4741 35.9312C55.9269 38.0526 54.421 39.6387 52.5457 40.0701L52.3869 40.1062C51.5763 40.2866 50.7498 40.3782 49.9304 40.3782C44.4621 40.3782 39.6025 36.422 37.8378 30.5335L37.7194 30.1377C37.404 29.0839 37.5027 27.9252 37.99 26.9588C38.4788 25.9892 39.314 25.3003 40.2813 25.0685C43.0877 24.3961 45.9896 24.0595 48.9605 24.0595C51.1165 24.0595 53.3092 24.2369 55.5267 24.5919C56.3194 24.7189 57.0144 25.1914 57.4835 25.9225C57.9494 26.6487 58.1299 27.5345 57.9915 28.4163C57.9003 28.9973 57.8105 29.5392 57.7247 30.0264C57.3355 32.2365 56.9148 34.2229 56.4741 35.9312Z" fill="black"/>
<path d="M56.4741 35.9312C55.9269 38.0526 54.421 39.6387 52.5457 40.0701L52.3869 40.1062C51.5763 40.2866 50.7498 40.3782 49.9304 40.3782C44.4621 40.3782 39.6025 36.422 37.8378 30.5335L37.7194 30.1377C37.404 29.0839 37.5027 27.9252 37.99 26.9588C38.4788 25.9892 39.314 25.3003 40.2813 25.0685C43.0877 24.3961 45.9896 24.0595 48.9605 24.0595C51.1165 24.0595 53.3092 24.2369 55.5267 24.5919C56.3194 24.7189 57.0144 25.1914 57.4835 25.9225C57.9494 26.6487 58.1299 27.5345 57.9915 28.4163C57.9003 28.9973 57.8105 29.5392 57.7247 30.0264C57.3355 32.2365 56.9148 34.2229 56.4741 35.9312Z" fill="black"/>
<path d="M64.8402 45.0196L59.531 37.8622C59.626 37.588 59.7117 37.3081 59.7855 37.0217C60.8418 32.927 61.5213 28.3614 61.753 26.6816H63.1059C63.4839 26.6816 63.7901 26.3353 63.7901 25.9084V22.1467C63.7901 21.8041 63.5904 21.5022 63.2995 21.4051C50.5916 17.1687 40.7944 19.466 36.0858 21.2127C33.74 22.0829 31.2601 22.083 28.914 21.2127C24.2055 19.4661 14.4088 17.1686 1.70033 21.4051C1.40942 21.5021 1.20977 21.8041 1.20977 22.1467V25.9084C1.20977 26.3353 1.51615 26.6816 1.89396 26.6816H3.24687C3.47854 28.3614 4.15821 32.927 5.21432 37.0219C5.28821 37.3083 5.37387 37.5882 5.46884 37.8623L0.159817 45.0196C0.0313263 45.193 -0.0236824 45.4212 0.00943225 45.6443C0.0426838 45.8673 0.160501 46.0629 0.332232 46.1792C1.08675 46.6909 1.91982 46.9399 2.7455 46.9399C3.98525 46.9399 5.20789 46.3778 6.12073 45.2986L8.60858 42.3568C9.56192 43.1023 10.6543 43.6362 11.8351 43.9048L11.9458 43.9297C12.9829 44.1608 14.0191 44.2723 15.0447 44.2721C21.0178 44.2718 26.5931 40.4859 29.4061 34.4687L35.2012 33.5616C37.8612 40.1025 43.6878 44.2724 49.9554 44.2721C50.9803 44.2721 52.0176 44.1606 53.0542 43.9297L53.1504 43.9081C54.3367 43.6389 55.4336 43.1034 56.3905 42.3552L58.8794 45.2984C59.7922 46.3778 61.0148 46.9397 62.2546 46.9397C63.0802 46.9397 63.9134 46.6904 64.6679 46.1791C64.8396 46.0626 64.9575 45.8672 64.9906 45.6442C65.0237 45.4212 64.9687 45.193 64.8402 45.0196ZM5.1314 44.2304C4.24989 45.2726 2.96033 45.6329 1.78846 45.2312L6.13031 39.3777C6.52523 40.1149 7.00156 40.7855 7.5459 41.3752L5.1314 44.2304ZM30.09 32.8006C30.21 32.4666 30.3247 32.1288 30.4281 31.7836C30.7794 30.6115 31.0895 29.5708 31.322 28.7879C31.4919 28.2156 31.9654 27.831 32.4999 27.831C33.0344 27.831 33.5078 28.2156 33.6778 28.7879C33.9102 29.5706 34.2203 30.6113 34.5716 31.7835C34.602 31.8847 34.6359 31.9837 34.6676 32.0841L30.09 32.8006ZM52.8817 42.392L52.7897 42.4126C45.528 44.0301 38.2533 39.2471 35.8677 31.2875C35.517 30.117 35.2075 29.0775 34.9753 28.2958C34.6178 27.0929 33.6232 26.2848 32.5 26.2848C31.3768 26.2848 30.382 27.0931 30.0249 28.2958C29.7927 29.0775 29.483 30.117 29.1322 31.2875C26.7467 39.2472 19.4716 44.0299 12.2101 42.4126L12.1053 42.389C9.43097 41.7806 7.29398 39.5584 6.5281 36.5892C5.23895 31.5914 4.52042 25.8586 4.5133 25.8012C4.46596 25.4194 4.17696 25.1352 3.83568 25.1352H2.57815V22.7276C14.6909 18.8295 23.9906 21.0137 28.4872 22.6819C31.1125 23.656 33.8877 23.6557 36.5126 22.6819C41.0092 21.014 50.3095 18.8298 62.4217 22.7276V25.1352H61.1642C60.823 25.1352 60.5339 25.4193 60.4866 25.8012C60.4795 25.8586 59.762 31.5875 58.472 36.5891C57.7056 39.5599 55.5633 41.7836 52.8817 42.392ZM59.8686 44.2304L57.4532 41.3741C57.9976 40.7845 58.4742 40.1141 58.8693 39.3773L63.2115 45.2313C62.0398 45.6331 60.75 45.2726 59.8686 44.2304Z" fill="black"/>
</g>
</svg>
