<svg width="65" height="65" viewBox="0 0 65 65" fill="none" xmlns="http://www.w3.org/2000/svg">
<mask id="mask0" mask-type="alpha" maskUnits="userSpaceOnUse" x="0" y="0" width="65" height="65">
<rect width="65" height="65" fill="#C4C4C4"/>
</mask>
<g mask="url(#mask0)">
<path fill-rule="evenodd" clip-rule="evenodd" d="M41.187 31.1919C41.3667 31.3716 41.5764 31.9407 41.846 32.2702C35.2561 36.4933 20.7887 45.8094 12.7011 51.7703C15.7265 54.7653 19.5306 57.0722 23.874 58.3602C37.9823 62.4938 52.869 54.3463 57.0027 40.2376C58.8902 33.8274 58.2312 27.2979 55.6556 21.6665C53.6187 23.5237 51.2815 25.4108 48.7657 27.2979C48.6755 27.3278 48.6164 27.3877 48.5261 27.4476C46.5492 28.9453 44.4819 30.443 42.3256 31.9108C42.116 31.5513 41.8763 31.1919 41.6666 30.8324C43.1643 29.784 44.6325 28.7656 46.0699 27.7472L46.1302 27.6873C47.7773 26.5191 49.3648 25.3808 50.8326 24.2126C47.8376 25.9799 44.692 27.3877 41.5768 28.5555C41.5477 27.9864 41.6067 27.4173 41.5768 26.8781C41.2477 27.1477 40.8583 27.4173 40.5284 27.6868C40.0791 27.6569 39.8099 27.4772 39.3307 27.3574C38.9708 26.8781 38.6113 26.4288 38.2523 25.9795C43.045 23.9426 48.0469 21.2767 53.3188 17.5025C49.8521 12.48 44.766 8.80006 38.9113 7.07807C24.8025 2.94441 9.9154 11.062 5.75179 25.2007C4.52368 29.4242 4.37391 33.6772 5.15271 37.7514C6.74028 36.9119 8.29788 36.1638 9.9154 35.5048V36.0436L9.28637 36.9123C7.92994 37.3273 6.5909 37.7971 5.27253 38.3205C6.32134 43.203 8.74761 47.6957 12.1919 51.2607C19.5602 45.2699 33.5786 35.8947 41.187 31.1919V31.1919Z" fill="black"/>
<path fill-rule="evenodd" clip-rule="evenodd" d="M16.8649 33.0192C16.805 33.0192 16.7451 33.0492 16.6553 33.0795L16.8649 33.4088V33.0192V33.0192Z" fill="black"/>
<path fill-rule="evenodd" clip-rule="evenodd" d="M13.1499 34.2459C12.5642 34.4478 11.9848 34.6676 11.4125 34.9049V36.2828C12.2213 36.0731 13.0899 35.8334 13.9586 35.6238L13.1499 34.2459V34.2459ZM9.91481 35.5044C6.50004 36.9118 3.20509 38.6196 0 40.956C2.72582 39.2486 5.87101 37.9901 9.28577 36.9118L9.88486 36.0132L9.91481 35.5044ZM38.2518 25.9794C38.6108 26.4287 38.9703 26.9076 39.3002 27.3573C39.8098 27.5071 40.0786 27.6568 40.5279 27.6868C40.8578 27.4172 41.2472 27.1476 41.5763 26.878C41.6063 27.4472 41.5472 28.0163 41.5763 28.5554C44.6915 27.3872 47.8371 25.9798 50.8321 24.2421C49.3648 25.3803 47.7768 26.5186 46.1297 27.6868L46.0694 27.7467C44.632 28.7651 43.1639 29.7836 41.6662 30.832C41.8758 31.1914 42.1155 31.5508 42.3252 31.9103C44.4515 30.4425 46.5487 28.9449 48.5257 27.4471C48.6159 27.3872 48.675 27.3273 48.7653 27.2974C57.6912 20.5278 64.641 13.6683 65 7.52731C55.2649 17.1426 46.4584 22.4744 38.2518 25.9794V25.9794ZM22.7951 33.6472L22.8849 33.3481C22.4656 32.7186 22.0762 32.1495 21.7167 31.5804C20.5785 31.9099 19.4702 32.2394 18.3619 32.5685V34.6053C19.7997 34.2758 21.2974 33.9771 22.7951 33.6472V33.6472ZM41.1565 31.191C41.3662 31.4007 41.5759 31.9398 41.8455 32.2693C33.1292 37.8408 10.8134 52.1888 7.36829 56.2026C7.96779 53.0574 30.7329 37.6611 41.1565 31.191V31.191ZM22.4656 31.3408C22.6753 31.7302 22.9149 32.1196 23.1246 32.479L23.5439 31.0412C23.1845 31.1311 22.825 31.2509 22.4656 31.3408ZM33.8186 31.0712C33.7583 30.9214 33.7583 30.7417 33.7583 30.562C33.7882 29.0043 35.3458 27.3269 37.3831 27.2371C37.7422 27.2071 38.0421 27.2071 38.3109 27.2071C38.0713 26.8776 37.8021 26.5781 37.5325 26.2785C34.6569 27.4767 31.9011 28.4652 29.1753 29.3338L30.1039 32.0297C31.332 31.7302 32.5601 31.4007 33.8186 31.0712V31.0712Z" fill="#ADACAC"/>
<path fill-rule="evenodd" clip-rule="evenodd" d="M39.8101 29.2152C39.7168 29.0631 39.6061 28.9224 39.4802 28.7959C38.0719 28.4664 36.9045 28.8857 36.9045 29.4548C36.9045 29.7244 37.0239 29.9041 37.2336 30.0538C38.1023 29.7843 38.9706 29.5147 39.8101 29.2152V29.2152Z" fill="black"/>
<path fill-rule="evenodd" clip-rule="evenodd" d="M46.6978 27.2973L46.0687 27.7466C45.7992 27.477 45.5895 27.2673 45.5895 27.2973H46.6978ZM34.7756 35.2651C34.5069 35.4448 34.2668 35.6241 33.9972 35.8038C33.9673 35.3254 34.0272 34.8457 33.9972 34.3664C34.1769 34.7255 34.3866 34.9955 34.7756 35.2651ZM28.6055 40.866L29.4142 40.3273C30.2829 41.0466 31.0917 41.6752 31.6308 42.0043C32.7687 42.8135 32.2599 43.6222 31.9304 43.8015C31.5709 44.0112 30.6124 43.8315 30.193 43.0231C30.0732 42.7232 29.3543 41.7647 28.6953 40.9863C28.6729 40.9411 28.6425 40.9003 28.6055 40.866V40.866ZM38.6102 34.3065C39.7788 33.5581 40.8268 32.8691 41.7558 32.33C42.2646 32.8691 42.5945 33.5876 42.5945 34.4272C42.6548 36.1346 40.4078 37.3028 38.5503 37.4222C36.7235 37.5416 36.2442 37.4222 35.2253 37.0931C34.8663 37.3618 34.3567 37.6318 33.9976 37.9318C33.9677 37.7221 33.9976 37.4825 33.9976 37.2728C34.734 36.7994 35.4728 36.33 36.2142 35.8646C37.5023 36.2236 38.8502 36.1645 39.0898 35.4452C39.2692 34.8761 39.0295 34.5462 38.6102 34.3065V34.3065Z" fill="white"/>
<path fill-rule="evenodd" clip-rule="evenodd" d="M41.8468 32.2708C42.7754 33.7385 43.5841 35.2063 44.1537 36.5243L43.2251 37.3035H44.5131C44.9325 38.3818 45.2021 39.3399 45.2923 40.0888C45.6817 43.3234 46.161 44.9114 44.8131 46.6487C43.6748 48.057 41.7881 48.2966 37.2946 46.709C39.5112 48.4464 45.6218 49.7643 46.2205 44.6118C46.4901 42.5155 46.0108 39.9398 45.0228 37.3039H46.9698L45.9809 36.1956L46.3407 34.8776H49.5754L49.9947 36.1656L49.0067 37.3039H55.3869L53.9187 35.9859L50.9537 27.2993H48.767C48.0862 27.7959 47.4072 28.2951 46.7301 28.797L44.5734 36.1656C43.5554 33.7693 42.1771 31.403 40.6195 29.1864C40.9785 29.3661 41.2485 29.6057 41.5776 29.9053C41.5776 28.9168 41.6076 27.8684 41.5776 26.8799C41.2485 27.1495 40.8591 27.4191 40.4993 27.6887C40.0799 27.6587 39.7808 27.5089 39.3015 27.3592C37.9835 25.5919 36.5453 23.9444 35.1079 22.5965C29.2361 16.9942 23.5152 13.5196 19.6507 15.7661C15.7567 18.0426 19.0816 26.7592 20.8489 30.0542C21.3282 31.0127 22.077 32.151 22.8858 33.3491L22.0471 36.1344L20.7291 37.3031H24.4734L23.4549 36.1344L23.8443 34.8768H23.8743C25.5218 37.2432 27.2291 39.4294 27.7683 39.9681C27.978 39.8188 28.2176 39.6391 28.4273 39.4897C28.0379 39.1598 27.6485 38.8008 27.319 38.4409C26.8397 37.9916 25.8213 36.6736 24.6231 34.8772H27.0794L27.4987 36.1049L26.4803 37.3035H31.7522C31.9619 37.1533 32.2015 36.9736 32.4112 36.8542L31.4227 35.9256L28.4273 27.2988H23.0955C23.0655 27.209 24.3236 28.497 24.3236 28.497L23.1254 32.5108C21.2383 29.3657 19.3212 25.5315 18.7521 22.3864C17.6139 16.3656 20.9388 14.2688 26.8098 17.0845C30.4342 18.8518 34.7472 22.7758 38.2818 27.209C38.043 27.209 37.7431 27.209 37.384 27.2389C35.3471 27.3288 33.7891 29.0062 33.7292 30.5638C33.6992 32.1214 35.6762 33.1395 36.8444 33.6187C36.9347 33.6487 37.0242 33.709 37.114 33.7389C38.4021 32.9002 39.5998 32.1813 40.7081 31.4924C40.4394 31.3426 40.1394 31.1929 39.8394 31.073C38.2818 30.474 36.9347 30.3242 36.8744 29.4555C36.9043 28.8864 38.0721 28.467 39.5104 28.7965L41.1874 31.1929L41.8468 32.2708V32.2708Z" fill="white"/>
<path fill-rule="evenodd" clip-rule="evenodd" d="M8.89673 27.2971H13.2999L16.8645 33.4074V28.4653L15.9359 27.2971H19.3506L18.3622 28.4054V35.894L19.4704 37.3023H14.9175L11.4129 31.3409V36.3134L12.4612 37.3023H8.95664L9.88521 36.0134L9.91516 28.4952L8.89673 27.2971Z" fill="white"/>
<path fill-rule="evenodd" clip-rule="evenodd" d="M24.2927 33.528H26.4494L25.3112 30.0235C25.3112 30.0231 24.3526 33.4976 24.2927 33.528Z" fill="black"/>
<path fill-rule="evenodd" clip-rule="evenodd" d="M25.461 30.4732C25.3625 30.5073 25.2626 30.5372 25.1615 30.563C24.9518 31.3418 24.5325 32.7795 24.3528 33.3191C24.9818 33.1689 25.6408 33.0191 26.2398 32.8997L25.461 30.4732Z" fill="#ADACAC"/>
<path fill-rule="evenodd" clip-rule="evenodd" d="M31.2417 7.88648C31.3914 7.94638 31.5112 8.12611 31.4513 8.27588C31.3914 8.4556 31.2117 8.54546 31.0619 8.51551C30.8822 8.4556 30.7923 8.27588 30.8223 8.09615C30.8822 7.94638 31.0619 7.85652 31.2417 7.88648ZM23.6333 46.377C23.843 46.4373 23.9928 46.6769 23.9029 46.8866C23.843 47.1262 23.6333 47.2456 23.3937 47.1866C23.3395 47.1704 23.2893 47.1433 23.246 47.1069C23.2027 47.0705 23.1673 47.0257 23.1421 46.9751C23.1168 46.9246 23.1022 46.8694 23.0991 46.8129C23.096 46.7565 23.1045 46.7 23.1241 46.647C23.184 46.4373 23.4237 46.3179 23.6333 46.377ZM15.7255 46.2276C15.7796 46.2438 15.8299 46.2709 15.8732 46.3073C15.9165 46.3436 15.9518 46.3885 15.9771 46.439C16.0024 46.4896 16.017 46.5448 16.0201 46.6013C16.0232 46.6577 16.0147 46.7142 15.9951 46.7672C15.9352 46.9769 15.6955 47.0963 15.4858 47.036C15.2762 46.9765 15.1264 46.7368 15.2163 46.5271C15.2291 46.4735 15.2526 46.423 15.2854 46.3787C15.3183 46.3344 15.3597 46.2971 15.4072 46.2691C15.4547 46.2412 15.5074 46.2231 15.5621 46.2159C15.6168 46.2088 15.6724 46.2128 15.7255 46.2276V46.2276ZM21.8661 42.693C22.0158 42.7534 22.1057 42.9327 22.0757 43.0824C22.0154 43.2326 21.8661 43.3221 21.6859 43.2921C21.5361 43.2326 21.4463 43.0525 21.4762 42.9027C21.5366 42.7529 21.7163 42.6631 21.8661 42.693ZM18.9905 45.3889C19.1103 45.4189 19.1702 45.5686 19.1402 45.688C19.1103 45.8083 18.9605 45.8686 18.8407 45.8382C18.7209 45.8078 18.661 45.6585 18.6909 45.5383C18.7209 45.4193 18.8407 45.3589 18.9905 45.3889V45.3889ZM20.8177 48.5936C20.9674 48.6539 21.0573 48.8032 21.0273 48.9534C20.9674 49.1028 20.8177 49.1931 20.6679 49.1332C20.6323 49.1269 20.5986 49.1128 20.5693 49.0917C20.54 49.0706 20.5158 49.0432 20.4985 49.0115C20.4812 48.9798 20.4713 48.9446 20.4695 48.9086C20.4677 48.8725 20.4741 48.8365 20.4882 48.8032C20.5181 48.6539 20.6679 48.5636 20.8177 48.5936ZM23.9329 49.1635C24.0527 49.1935 24.1126 49.3129 24.0826 49.4323C24.0527 49.5226 23.9329 49.6128 23.8131 49.5825C23.6932 49.5221 23.6333 49.4027 23.6633 49.3129C23.6932 49.1935 23.843 49.1332 23.9329 49.1635V49.1635ZM42.8642 42.2437C43.0136 42.3041 43.1039 42.4534 43.044 42.5736C43.014 42.723 42.8642 42.7833 42.714 42.7534C42.5946 42.7234 42.5044 42.5736 42.5343 42.4235C42.5942 42.3036 42.744 42.2134 42.8642 42.2437ZM42.9233 45.329C43.0735 45.3589 43.1629 45.5387 43.133 45.688C43.0735 45.8382 42.8933 45.9277 42.7739 45.8686C42.6246 45.8386 42.5044 45.6589 42.5643 45.5387C42.5942 45.3889 42.7739 45.2986 42.9233 45.329V45.329ZM44.9606 42.6631C45.1099 42.693 45.2302 42.9027 45.1703 43.0824C45.1403 43.263 44.9306 43.3824 44.7509 43.3221C44.5712 43.2626 44.4813 43.0525 44.5113 42.9027C44.5712 42.723 44.7809 42.6028 44.9606 42.6631V42.6631ZM44.9306 40.6258C45.1403 40.6861 45.2905 40.9557 45.2306 41.1654C45.1707 41.3751 44.9007 41.5244 44.691 41.4653C44.4514 41.405 44.3016 41.1354 44.3619 40.9258C44.451 40.6861 44.6906 40.5363 44.9306 40.6258V40.6258ZM48.8542 40.5363C49.0044 40.5663 49.1238 40.776 49.0639 40.9258C49.0348 41.0751 48.8251 41.1654 48.7048 41.1354C48.5251 41.0751 48.4353 40.8958 48.4652 40.746C48.5251 40.5967 48.7048 40.4764 48.8542 40.5363ZM51.2214 42.6327C51.3708 42.693 51.461 42.8723 51.4011 43.0521C51.3712 43.1723 51.1914 43.2917 51.0421 43.2326C50.8615 43.2027 50.7725 43.0229 50.8025 42.8728C50.8611 42.693 51.0417 42.6028 51.2214 42.6327ZM48.7048 44.9396C48.8542 44.9695 48.9445 45.1792 48.9145 45.329C48.8542 45.4783 48.6749 45.5686 48.5251 45.5387C48.3758 45.4783 48.2555 45.299 48.3154 45.1493C48.3458 44.9999 48.5251 44.8797 48.7048 44.9396ZM50.8915 46.3179C51.0117 46.347 51.1311 46.5276 51.0712 46.6769C51.0421 46.8263 50.8615 46.9166 50.7122 46.8866C50.5628 46.8263 50.4725 46.647 50.5325 46.5276C50.5624 46.377 50.7417 46.2875 50.8915 46.3179ZM52.5984 42.034C52.7486 42.0944 52.868 42.3036 52.8381 42.4534C52.7786 42.6331 52.5693 42.7534 52.4187 42.693C52.239 42.6327 52.1196 42.4235 52.1791 42.2737C52.2095 42.094 52.4191 41.9737 52.5984 42.034ZM48.2555 39.3378C48.3758 39.3677 48.4353 39.488 48.4049 39.5774C48.3758 39.6677 48.2555 39.7276 48.1661 39.6976C48.0758 39.6677 48.0159 39.5774 48.0459 39.488C48.0758 39.3681 48.1661 39.3078 48.2555 39.3378V39.3378ZM44.0316 51.0502C44.2113 51.1105 44.3615 51.3502 44.3012 51.5598C44.2409 51.7695 44.0012 51.8889 43.7916 51.8294C43.5819 51.7691 43.4625 51.5295 43.5228 51.3198C43.5823 51.1101 43.8219 50.9899 44.0316 51.0502ZM21.7163 37.7802C21.8361 37.8101 21.896 37.9303 21.8661 38.0497C21.8361 38.17 21.6863 38.2594 21.5665 38.2295C21.4467 38.17 21.3868 38.0497 21.4167 37.9303C21.4467 37.8101 21.5965 37.7211 21.7163 37.7802ZM14.5573 45.5986C14.707 45.6285 14.7969 45.8083 14.7669 45.9576C14.707 46.1373 14.5573 46.2272 14.4075 46.1673C14.368 46.1615 14.3302 46.147 14.2971 46.1246C14.264 46.1023 14.2363 46.0728 14.2162 46.0383C14.196 46.0038 14.1839 45.9652 14.1807 45.9254C14.1776 45.8855 14.1834 45.8455 14.1978 45.8083C14.2036 45.7687 14.2183 45.731 14.2406 45.6978C14.263 45.6647 14.2926 45.6371 14.3271 45.6169C14.3616 45.5968 14.4002 45.5847 14.4401 45.5815C14.4799 45.5783 14.52 45.5842 14.5573 45.5986ZM14.8868 44.011C15.0365 44.0713 15.1264 44.2207 15.0964 44.4004C15.0365 44.5506 14.8868 44.64 14.707 44.581C14.5573 44.551 14.4674 44.3705 14.5273 44.2211C14.533 44.1815 14.5475 44.1437 14.5699 44.1104C14.5922 44.0772 14.6218 44.0495 14.6563 44.0293C14.6909 44.0091 14.7296 43.997 14.7695 43.9938C14.8094 43.9906 14.8495 43.9965 14.8868 44.011V44.011ZM12.0411 44.3409C12.161 44.4004 12.2209 44.5206 12.1909 44.6097C12.161 44.7299 12.0411 44.7902 11.9213 44.7599C11.8015 44.7295 11.7416 44.6097 11.7715 44.4903C11.8015 44.4 11.9213 44.3106 12.0411 44.3409V44.3409ZM29.5343 10.7621C29.714 10.792 29.8039 10.9717 29.744 11.1515C29.684 11.3316 29.5043 11.421 29.3546 11.3611C29.1748 11.3312 29.085 11.1515 29.1449 10.9717C29.1748 10.792 29.3546 10.7022 29.5343 10.7621ZM32.6495 11.2413C32.7394 11.2713 32.7988 11.3911 32.7689 11.481C32.7394 11.5708 32.6495 11.6307 32.5297 11.6008C32.4698 11.5708 32.4099 11.481 32.4398 11.3611C32.4698 11.2713 32.5596 11.2114 32.6495 11.2413V11.2413ZM32.7689 14.4169C32.8592 14.4468 32.9191 14.5367 32.8891 14.6265C32.8592 14.7464 32.7689 14.7763 32.6495 14.7464C32.5596 14.7164 32.4997 14.6265 32.5297 14.5367C32.5596 14.4464 32.6794 14.3865 32.7689 14.4169V14.4169ZM26.1195 13.0685C26.2094 13.0985 26.2693 13.1883 26.2393 13.2782C26.2094 13.398 26.1195 13.4579 26.0297 13.428C25.9098 13.398 25.8799 13.2782 25.9098 13.1883C25.9398 13.0985 26.0297 13.0386 26.1195 13.0685ZM26.6886 13.5178C26.8085 13.5478 26.8684 13.6676 26.8384 13.7575C26.8085 13.8473 26.6886 13.9068 26.5988 13.8773C26.5089 13.8473 26.449 13.7575 26.479 13.6376C26.5089 13.5478 26.5988 13.4879 26.6886 13.5178V13.5178ZM21.5665 18.2506C21.6863 18.2805 21.7462 18.4003 21.7163 18.4902C21.6863 18.5801 21.5665 18.6395 21.4766 18.61C21.3868 18.5801 21.3269 18.4902 21.3568 18.3704C21.3868 18.2805 21.4766 18.2506 21.5665 18.2506V18.2506ZM27.5274 13.8473C27.6472 13.8773 27.7071 13.9971 27.6771 14.1169C27.6472 14.2667 27.5274 14.3266 27.3776 14.2966C27.2578 14.2667 27.1979 14.1469 27.2278 13.9971C27.2877 13.8773 27.4075 13.8174 27.5274 13.8473V13.8473ZM26.479 14.7759C26.5988 14.8358 26.6886 14.9556 26.6587 15.0754C26.5988 15.1953 26.479 15.2851 26.3592 15.2252C26.2393 15.1953 26.1495 15.0754 26.2094 14.9257C26.2393 14.8059 26.3592 14.7464 26.479 14.7759ZM30.343 13.0386C30.4928 13.0985 30.5827 13.2482 30.5228 13.3681C30.4928 13.5478 30.343 13.6077 30.1633 13.5777C30.0435 13.5178 29.9536 13.398 30.0135 13.2183C30.0435 13.0685 30.1933 13.0086 30.343 13.0386ZM22.4352 19.4487C22.5849 19.5086 22.6748 19.6584 22.6449 19.7782C22.5849 19.9579 22.4352 20.0179 22.2854 19.9879C22.1356 19.928 22.0458 19.8082 22.1057 19.6284C22.1356 19.4787 22.2854 19.4188 22.4352 19.4487ZM36.3334 16.2137C36.5131 16.2736 36.6334 16.4533 36.5731 16.633C36.5127 16.8427 36.3334 16.9326 36.1237 16.8727C36.0818 16.8598 36.0429 16.8386 36.0095 16.8103C35.976 16.782 35.9486 16.7472 35.929 16.7079C35.9094 16.6687 35.898 16.6259 35.8954 16.5822C35.8928 16.5384 35.8992 16.4946 35.9141 16.4533C35.9744 16.2436 36.1541 16.1538 36.3334 16.2137V16.2137ZM35.9444 10.5224L36.1841 8.48556L36.3638 10.5224C36.4241 10.5524 36.484 10.5823 36.5131 10.6422L37.9214 10.792L36.5435 10.9717C36.5136 11.0916 36.4541 11.1515 36.3638 11.2114L36.1841 13.3681L35.9744 11.2114C35.8898 11.1534 35.8267 11.0692 35.7947 10.9717L34.3864 10.8819L35.8246 10.6722C35.8542 10.6123 35.9145 10.5524 35.9444 10.5224V10.5224ZM23.9329 18.3704L24.1426 17.0824L24.3223 18.3704C24.3861 18.4041 24.4383 18.4563 24.472 18.5201L25.4905 18.64L24.502 18.8496C24.472 18.9395 24.4121 19.0294 24.3219 19.0593L24.1421 20.7967L23.9325 19.0593C23.8426 18.9994 23.7827 18.9395 23.7527 18.8496L22.8541 18.7598L23.7827 18.5201C23.8168 18.4564 23.8691 18.4043 23.9329 18.3704V18.3704ZM51.4901 40.2368L51.6998 38.9488L51.8804 40.2368C51.9399 40.2668 51.9998 40.2971 52.0297 40.357L52.9887 40.5368L52.0601 40.6861C52.0282 40.7836 51.965 40.8678 51.8804 40.9258L51.6707 42.2138L51.4901 40.9258C51.4057 40.8676 51.3426 40.7835 51.3104 40.6861L50.1127 40.5667L51.3404 40.387C51.3744 40.3233 51.4265 40.271 51.4901 40.2368V40.2368ZM49.0639 46.1673L49.2444 45.4189L49.4841 46.1673C49.5436 46.1972 49.5735 46.2576 49.6035 46.3175L50.2924 46.5571L49.6634 46.6466C49.6334 46.7368 49.5431 46.8263 49.4836 46.8862L49.3031 47.6654L49.0635 46.8562C48.974 46.8263 48.9141 46.7368 48.8837 46.6466L48.1053 46.5571L48.9441 46.3466C48.9744 46.2576 49.0044 46.2276 49.0639 46.1673V46.1673ZM21.4766 51.5594L21.5965 50.3309L21.896 51.5594C21.9559 51.5894 22.0158 51.6489 22.0458 51.6788L23.0942 51.829L22.0757 52.0087C22.0458 52.1281 21.9859 52.2184 21.896 52.2484L21.6863 53.506L21.4766 52.2484C21.41 52.1803 21.3589 52.0985 21.3269 52.0087L20.3084 51.8885L21.3568 51.7088C21.3868 51.6489 21.4167 51.5898 21.4766 51.5594V51.5594ZM29.9836 48.5345C30.1633 48.594 30.2831 48.7733 30.2232 48.9538C30.1629 49.1336 29.9836 49.253 29.8039 49.1935C29.6241 49.1331 29.5043 48.9538 29.5642 48.7733C29.6241 48.5936 29.8039 48.4742 29.9836 48.5345ZM35.0458 46.7672C35.166 46.7963 35.2555 46.9469 35.2255 47.0663C35.166 47.2165 35.0159 47.306 34.8965 47.246C34.7463 47.2169 34.6868 47.0663 34.7167 46.9469C34.7227 46.9113 34.7367 46.8775 34.7576 46.8481C34.7785 46.8187 34.8059 46.7944 34.8376 46.7771C34.8693 46.7598 34.9045 46.7499 34.9406 46.7482C34.9766 46.7465 35.0126 46.753 35.0458 46.7672V46.7672Z" fill="white"/>
</g>
</svg>
