<svg width="65" height="65" viewBox="0 0 65 65" fill="none" xmlns="http://www.w3.org/2000/svg">
<mask id="mask0" mask-type="alpha" maskUnits="userSpaceOnUse" x="0" y="0" width="65" height="65">
<rect width="65" height="65" fill="#C4C4C4"/>
</mask>
<g mask="url(#mask0)">
<path d="M8.33845 44.3341C8.72952 43.9431 9.23044 43.6805 9.7745 43.5814C10.3185 43.4822 10.8799 43.5511 11.3838 43.779C14.548 45.2141 17.9832 45.9538 21.4576 45.9481C25.5499 45.9485 29.577 44.9232 33.171 42.9661C36.765 41.009 39.8112 38.1824 42.0313 34.7446C44.2514 31.3068 45.5745 27.3675 45.8798 23.2866C46.1851 19.2056 45.4629 15.1133 43.779 11.3834C43.5515 10.8796 43.4828 10.3184 43.5821 9.77454C43.6815 9.23069 43.9441 8.73 44.3351 8.33912C44.726 7.94823 45.2268 7.6857 45.7706 7.58647C46.3145 7.48725 46.8757 7.55603 47.3795 7.78366C51.7942 9.77594 55.6596 12.8098 58.6437 16.6247C61.6279 20.4397 63.6418 24.9218 64.5124 29.6864C65.3831 34.4509 65.0845 39.3556 63.6424 43.9794C62.2003 48.6032 59.6577 52.808 56.2328 56.2328C52.808 59.6577 48.6032 62.2003 43.9794 63.6424C39.3556 65.0845 34.4509 65.3831 29.6864 64.5124C24.9218 63.6418 20.4397 61.6279 16.6247 58.6437C12.8098 55.6596 9.77595 51.7942 7.78367 47.3795C7.55575 46.8756 7.48675 46.3143 7.58586 45.7702C7.68498 45.2262 7.94749 44.7252 8.33845 44.3341V44.3341Z" fill="black"/>
<path d="M9.01262 28.9771C7.66155 28.0567 6.44893 26.106 5.74721 24.2426C5.69768 24.1152 5.61082 24.0058 5.49802 23.9286C5.38521 23.8514 5.25173 23.8101 5.11505 23.8101C4.97837 23.8101 4.84488 23.8514 4.73207 23.9286C4.61926 24.0058 4.53241 24.1152 4.48288 24.2426C3.78524 26.0957 2.58214 28.0353 1.23993 28.9618C1.15091 29.025 1.07832 29.1085 1.02823 29.2055C0.978132 29.3025 0.951988 29.41 0.951988 29.5192C0.951988 29.6283 0.978132 29.7358 1.02823 29.8328C1.07832 29.9298 1.15091 30.0133 1.23993 30.0765C2.62602 31.0337 3.86382 33.0698 4.54955 34.9777C4.59591 35.1093 4.6818 35.2235 4.79549 35.3045C4.90918 35.3855 5.04511 35.4294 5.18469 35.4302C5.32428 35.431 5.46072 35.3887 5.57535 35.309C5.68998 35.2294 5.7772 35.1163 5.8251 34.9851C6.53295 33.0762 7.68264 31.0347 9.02248 30.0765C9.11159 30.0147 9.18425 29.9321 9.23411 29.8359C9.28398 29.7396 9.30954 29.6326 9.30857 29.5242C9.30759 29.4158 9.28012 29.3093 9.22853 29.2139C9.17695 29.1186 9.10282 29.0373 9.01262 28.9771V28.9771Z" fill="black"/>
<path d="M19.8969 5.167C18.5458 4.24656 17.3332 2.29582 16.6315 0.432495C16.582 0.305103 16.4951 0.195646 16.3823 0.11847C16.2695 0.0412942 16.136 0 15.9993 0C15.8626 0 15.7292 0.0412942 15.6163 0.11847C15.5035 0.195646 15.4167 0.305103 15.3672 0.432495C14.6695 2.28561 13.4664 4.22513 12.1242 5.15169C12.0352 5.21484 11.9626 5.2984 11.9125 5.39536C11.8624 5.49233 11.8363 5.59988 11.8363 5.70902C11.8363 5.81816 11.8624 5.92571 11.9125 6.02268C11.9626 6.11964 12.0352 6.2032 12.1242 6.26635C13.5103 7.22352 14.7481 9.25964 15.4338 11.1675C15.4802 11.2992 15.5661 11.4133 15.6798 11.4943C15.7935 11.5753 15.9294 11.6192 16.069 11.6201C16.2086 11.6209 16.345 11.5786 16.4596 11.4989C16.5743 11.4192 16.6615 11.3061 16.7094 11.175C17.4172 9.26611 18.5669 7.22454 19.9068 6.26635C19.9959 6.20461 20.0685 6.122 20.1184 6.02574C20.1683 5.92947 20.1938 5.82247 20.1928 5.71406C20.1919 5.60565 20.1644 5.49913 20.1128 5.40377C20.0612 5.30842 19.9871 5.22713 19.8969 5.167Z" fill="black"/>
<path d="M36.2245 20.8137C34.8735 19.8933 33.6608 17.9426 32.9591 16.0792C32.9096 15.9518 32.8227 15.8424 32.7099 15.7652C32.5971 15.688 32.4636 15.6467 32.327 15.6467C32.1903 15.6467 32.0568 15.688 31.944 15.7652C31.8312 15.8424 31.7443 15.9518 31.6948 16.0792C30.9971 17.9324 29.794 19.8719 28.4518 20.7984C28.3628 20.8616 28.2902 20.9451 28.2401 21.0421C28.19 21.1391 28.1639 21.2466 28.1639 21.3558C28.1639 21.4649 28.19 21.5725 28.2401 21.6694C28.2902 21.7664 28.3628 21.8499 28.4518 21.9131C29.8379 22.8703 31.0757 24.9064 31.7615 26.8143C31.8078 26.9459 31.8937 27.0601 32.0074 27.1411C32.1211 27.2221 32.257 27.266 32.3966 27.2668C32.5362 27.2676 32.6726 27.2253 32.7873 27.1457C32.9019 27.066 32.9891 26.9529 33.037 26.8218C33.7449 24.9129 34.8946 22.8713 36.2344 21.9131C36.3235 21.8514 36.3962 21.7687 36.446 21.6725C36.4959 21.5762 36.5215 21.4692 36.5205 21.3608C36.5195 21.2524 36.492 21.1459 36.4404 21.0505C36.3889 20.9552 36.3147 20.8739 36.2245 20.8137V20.8137Z" fill="black"/>
</g>
</svg>
