<svg width="65" height="65" viewBox="0 0 65 65" fill="none" xmlns="http://www.w3.org/2000/svg">
<mask id="mask0" mask-type="alpha" maskUnits="userSpaceOnUse" x="0" y="0" width="65" height="65">
<rect width="65" height="65" fill="#C4C4C4"/>
</mask>
<g mask="url(#mask0)">
<path d="M32.5 51.3763C22.0751 51.3763 13.624 42.9249 13.624 32.5C13.624 22.0751 22.0751 13.6237 32.5 13.6237C42.9255 13.6237 51.3768 22.0751 51.3768 32.5C51.3768 42.9249 42.9255 51.3763 32.5 51.3763ZM55.2432 37.9167L65 32.5L55.2432 27.0833V37.9167ZM9.75677 27.0833L0 32.5L9.75677 37.9167V27.0833ZM32.5 65L37.9167 55.2432H27.0833L32.5 65ZM32.5 0L27.0833 9.75677H37.9167L32.5 0ZM12.5886 44.752L9.51925 55.481L20.2486 52.4125L12.5886 44.752ZM44.752 12.5875L52.4119 20.248L55.481 9.51952L44.752 12.5875ZM9.51925 9.51925L12.5883 20.248L20.2483 12.5875L9.51925 9.51925ZM44.752 52.4125L55.481 55.481L52.4119 44.752L44.752 52.4125Z" fill="black"/>
</g>
</svg>
