<svg width="65" height="65" viewBox="0 0 65 65" fill="none" xmlns="http://www.w3.org/2000/svg">
<mask id="mask0" mask-type="alpha" maskUnits="userSpaceOnUse" x="0" y="0" width="65" height="65">
<rect width="65" height="65" fill="#C4C4C4"/>
</mask>
<g mask="url(#mask0)">
</g>
<g clip-path="url(#clip0)">
<path d="M47.8613 45.8301C46.8105 45.8301 45.957 46.6835 45.957 47.7344C45.957 48.7852 46.8105 49.6387 47.8613 49.6387C48.9122 49.6387 49.7656 48.7852 49.7656 47.7344C49.7656 46.6835 48.9122 45.8301 47.8613 45.8301Z" fill="black"/>
<path d="M17.3926 19.1699C18.4434 19.1699 19.2969 18.3165 19.2969 17.2656C19.2969 16.2148 18.4434 15.3613 17.3926 15.3613C16.3417 15.3613 15.4883 16.2148 15.4883 17.2656C15.4883 18.3165 16.3417 19.1699 17.3926 19.1699Z" fill="black"/>
<path d="M59.3501 41.094L64.152 37.8929L62.0394 34.724L57.0024 38.0824C55.668 36.8178 54.0701 35.8532 52.3052 35.2234L53.537 29.0652L49.8028 28.3174L48.571 34.4761C48.331 34.4632 48.1043 34.4042 47.8613 34.4042C45.1041 34.4042 42.5338 33.6886 40.2238 32.5267L43.6714 27.9291L40.6255 25.6454L37.0311 30.4384C34.0249 27.9618 31.8365 24.538 31.0569 20.5727L36.8967 19.1123L35.9743 15.4187L30.6701 16.7453C30.5387 13.4108 29.1957 10.3947 27.045 8.12439L30.4028 3.08743L27.2339 0.974846L24.0328 5.77675C22.0695 4.63715 19.8211 3.93543 17.3926 3.93543C15.3985 3.93543 13.5235 4.40655 11.823 5.19455L7.31319 0.684738L4.6204 3.37753L8.58273 7.33986C6.28567 9.38103 4.71611 12.1799 4.25491 15.3612H0V19.1698H4.1592C4.27425 21.8299 4.60602 24.4299 5.17731 26.9472L0 28.4374L1.20506 32.0486L6.16516 30.6313C7.11235 33.578 8.3799 36.3764 9.89788 39.0157L4.91051 42.3412L7.02309 45.5101L11.9286 42.2396C14.0834 45.3306 16.6249 48.126 19.4848 50.5664L16.0462 54.0051L18.739 56.6978L22.5163 52.9205C25.1804 54.8198 28.0472 56.4469 31.106 57.7184L28.9577 63.0113L32.4876 64.443L34.684 59.0306C38.263 60.1623 42.0498 60.7985 45.957 60.9676V64.9999H49.7656V60.8719C52.9469 60.4107 55.7453 58.8412 57.7865 56.5441L61.7493 60.5064L64.4421 57.8136L59.9318 53.3038C60.4624 52.1593 60.8115 50.9294 60.999 49.6386H65V45.83H60.999C60.751 44.1211 60.1837 42.5302 59.3501 41.094V41.094ZM34.5312 37.4243L37.224 40.1171L34.5312 42.8099L31.8385 40.1171L34.5312 37.4243ZM17.3926 11.5526C20.5426 11.5526 23.1055 14.1155 23.1055 17.2655C23.1055 20.4155 20.5426 22.9784 17.3926 22.9784C14.2426 22.9784 11.6797 20.4155 11.6797 17.2655C11.6797 14.1155 14.2426 11.5526 17.3926 11.5526ZM14.6998 28.6913L17.3926 25.9985L20.0854 28.6913L17.3926 31.3841L14.6998 28.6913ZM25.0098 42.8099L22.317 40.1171L25.0098 37.4243L27.7026 40.1171L25.0098 42.8099ZM25.0098 33.2884L22.317 30.5956L25.0098 27.9028L27.7026 30.5956L25.0098 33.2884ZM36.4355 50.4271L33.7428 47.7343L36.4355 45.0415L39.1283 47.7343L36.4355 50.4271ZM47.8613 53.4472C44.7113 53.4472 42.1484 50.8843 42.1484 47.7343C42.1484 44.5842 44.7113 42.0214 47.8613 42.0214C51.0114 42.0214 53.5742 44.5842 53.5742 47.7343C53.5742 50.8843 51.0114 53.4472 47.8613 53.4472Z" fill="black"/>
<path d="M45.957 15.2344C48.0567 15.2344 49.7656 16.9433 49.7656 19.043C49.7656 23.2438 53.182 26.6602 57.3828 26.6602C61.5837 26.6602 65 23.2438 65 19.043C65 8.54355 56.4565 0 45.957 0C41.7562 0 38.3398 3.41633 38.3398 7.61719C38.3398 11.818 41.7562 15.2344 45.957 15.2344Z" fill="black"/>
</g>
<defs>
<clipPath id="clip0">
<rect width="65" height="65" fill="white"/>
</clipPath>
</defs>
</svg>
