<svg width="31" height="45" viewBox="0 0 31 45" fill="none" xmlns="http://www.w3.org/2000/svg">
<path d="M30.3312 9.72862C30.3312 10.1688 30.6403 8.88355 26.1983 25.4576C25.9522 24.503 26.026 26.568 26.026 8.44046C27.301 6.49879 30.3312 7.41514 30.3312 9.72862Z" fill="black"/>
<path d="M24.5985 2.72892V22.2641C19.3722 13.2136 21.6766 17.2023 19.1406 12.8098V2.72892C19.1406 1.22442 20.3651 0 21.8696 0C23.3975 0 24.5985 1.23843 24.5985 2.72892Z" fill="black"/>
<path d="M21.4375 19.6705L19.319 17.5529C17.4745 15.7077 15.0488 14.6498 12.1574 14.6498L7.3171 6.57797C6.57033 5.28038 7.00723 3.61143 8.31801 2.85442C9.63642 2.09419 11.3 2.56241 12.046 3.85353C19.4301 16.1252 15.6513 9.64801 21.4375 19.6705Z" fill="black"/>
<path d="M25.3462 30.0351C25.3462 34.5181 23.5636 38.8393 20.3794 42.0262C18.8255 43.5783 16.7618 44.4652 14.5679 44.5217C14.2183 44.5217 15.9133 44.5244 10.7564 44.5244C5.23926 44.5244 0.75 40.0361 0.75 34.5181V20.7298C0.75 20.281 1.11535 19.9166 1.56419 19.9166C1.63457 19.9166 1.69238 19.9125 1.77873 19.8887C2.00234 19.9775 4.02139 19.9467 5.38737 21.9237C6.26961 23.1025 6.20785 24.4756 6.20785 25.3259C6.20785 28.3987 7.53461 31.3206 9.84611 33.3448C12.3494 35.536 16.2654 33.7392 16.2654 30.4319C16.2645 26.7598 16.4056 25.9135 15.7663 24.4624C15.1942 23.1698 14.4743 22.6117 13.5095 21.7316C13.1811 21.4686 13.5863 21.544 6.8416 21.544C5.95264 19.9635 4.28476 18.7656 2.29759 18.5252C2.37838 17.7524 2.79337 17.0146 3.50316 16.5404C4.68378 15.9645 3.36573 16.0862 12.3111 16.0862C14.5741 16.0862 16.7025 16.9677 18.3031 18.5682L24.2125 24.4776L24.6595 25.2523C25.0783 26.791 25.3462 28.2071 25.3462 30.0351Z" fill="black"/>
</svg>
