<svg width="65" height="65" viewBox="0 0 65 65" fill="none" xmlns="http://www.w3.org/2000/svg">
<mask id="mask0" mask-type="alpha" maskUnits="userSpaceOnUse" x="0" y="0" width="65" height="65">
<rect width="65" height="65" fill="#C4C4C4"/>
</mask>
<g mask="url(#mask0)">
<path d="M28.4728 3.30651C31.3503 6.38186 31.3503 11.368 28.4728 14.4433C25.5953 17.5187 20.9299 17.5187 18.0524 14.4433C15.1749 11.368 15.1749 6.38186 18.0524 3.30651C20.9299 0.231162 25.5953 0.231162 28.4728 3.30651" fill="black"/>
<path d="M15.5785 17.0873C18.4561 20.1626 18.4561 25.1487 15.5785 28.2241C12.701 31.2994 8.03566 31.2994 5.15814 28.2241C2.28062 25.1487 2.28062 20.1626 5.15814 17.0873C8.03566 14.0119 12.7011 14.0119 15.5785 17.0873Z" fill="black"/>
<path d="M46.8935 3.30651C49.771 6.38186 49.771 11.368 46.8935 14.4433C44.016 17.5187 39.3506 17.5187 36.4731 14.4433C33.5956 11.368 33.5956 6.38186 36.4731 3.30651C39.3507 0.231162 44.0161 0.231162 46.8935 3.30651" fill="black"/>
<path d="M59.7887 17.0873C62.6663 20.1626 62.6663 25.1487 59.7887 28.2241C56.9112 31.2994 52.2459 31.2994 49.3683 28.2241C46.4908 25.1487 46.4908 20.1626 49.3683 17.0873C52.2459 14.0119 56.9112 14.0119 59.7887 17.0873Z" fill="black"/>
<path d="M48.1706 35.3083C47.4673 34.793 47.0355 34.124 46.8862 33.3185C46.0227 28.6255 43.319 24.7611 39.2715 22.4386C35.0801 20.0354 29.8686 20.0335 25.6736 22.4405C21.6279 24.7611 18.9241 28.6255 18.0606 33.3185C17.9113 34.124 17.4796 34.7931 16.7762 35.3083C11.8923 38.8785 9.53749 44.9827 10.6294 51.2407C11.6926 57.3315 16.224 62.311 21.9067 63.6299C22.9753 63.876 24.0456 63.999 25.1052 63.999C27.2009 63.999 29.2588 63.5203 31.1765 62.5744C31.9896 62.1744 32.9592 62.1744 33.7688 62.5744C36.6595 64.001 39.8653 64.3663 43.0421 63.6279C48.7231 62.311 53.2545 57.3315 54.3176 51.2388C55.4094 44.9827 53.0547 38.8785 48.1706 35.3083V35.3083Z" fill="black"/>
</g>
</svg>
