<?xml version="1.0" encoding="UTF-8"?>
<!DOCTYPE svg  PUBLIC '-//W3C//DTD SVG 1.1//EN'  'http://www.w3.org/Graphics/SVG/1.1/DTD/svg11.dtd'>
<svg version="1.1" xmlns="http://www.w3.org/2000/svg">
<defs>
<font id="CallunaSansW01-Regular" horiz-adv-x="1065">
<font-face font-family="1" font-weight="400" ascent="1527" bbox="-293 -494 1886 1784" cap-height="1366" descent="-521" panose-1="2 0 0 0 0 0 0 0 0 0" underline-position="-307" underline-thickness="102" unicode-range="U+0020-E36E" units-per-em="2048" x-height="922"/>
<missing-glyph/>
<glyph glyph-name="space" horiz-adv-x="492" unicode=" "/>
<glyph d="M182 1391h191l-27 -990h-141zM156 98q0 51 36 87t87 36q52 0 87 -36.5t35 -86.5q0 -52 -36.5 -87.5t-85.5 -35.5t-86 35.5t-37 87.5z" glyph-name="exclam" horiz-adv-x="555" unicode="!"/>
<glyph d="M451 1366h151v-76l-47 -407h-104v483zM131 1366h152v-76l-47 -407h-105v483z" glyph-name="quotedbl" horiz-adv-x="713" unicode='"'/>
<glyph d="M172 772h252l84 412h119l-84 -412h311l84 412h119l-84 -412h276l-20 -113h-281l-59 -290h282l-20 -113h-285l-88 -438h-121l91 438h-312l-88 -438h-121l90 438h-243l20 113h246l59 290h-247zM459 369h311l59 290h-311z" glyph-name="numbersign" horiz-adv-x="1325" unicode="#"/>
<glyph d="M119 231q54 -42 138.5 -71.5t170.5 -34.5l10 387q-134 50 -198 94t-100 102.5t-36 137.5q0 130 93.5 208.5t257.5 90.5l6 178h90l-4 -176q76 -2 151.5 -18.5t132.5 -43.5l-47 -137q-99 46 -241 60l-11 -367q174 -64 250 -149.5t76 -194.5q0 -129 -91 -210t-253 -95 l-4 -174h-90l4 170q-96 2 -187 28.5t-155 69.5zM696 291q0 60 -35.5 103t-132.5 83l-10 -350q178 23 178 164zM266 856q0 -60 37 -102t139 -82l11 336q-187 -14 -187 -152z" glyph-name="dollar" horiz-adv-x="946" unicode="$"/>
<glyph d="M1171 1376l86 -59l-917 -1317h-125zM389 731q-130 0 -219.5 88.5t-89.5 218.5q0 129 89 218.5t220 89.5q132 0 220.5 -90t88.5 -218q0 -130 -89 -218.5t-220 -88.5zM389 838q81 0 138 60t57 140q0 82 -58 141.5t-139 59.5q-79 0 -135.5 -60t-56.5 -141q0 -80 56 -140 t138 -60zM805 283q0 130 89 218.5t220 88.5q130 0 219.5 -88.5t89.5 -218.5q0 -129 -89 -218.5t-220 -89.5q-132 0 -220.5 90t-88.5 218zM920 283q0 -81 56.5 -141t137.5 -60t138 60t57 141q0 82 -58.5 141t-138.5 59q-79 0 -135.5 -60t-56.5 -140z" glyph-name="percent" horiz-adv-x="1497" unicode="%"/>
<glyph d="M88 319q0 76 30.5 141.5t88 123.5t180.5 139q-119 210 -119 352q0 86 40 158t114.5 115t177.5 43q136 0 218.5 -74t82.5 -201q0 -75 -31 -139t-88 -122t-192 -150q149 -224 315 -386q85 113 135.5 269t63.5 334h151q-13 -176 -80 -367.5t-169 -325.5q189 -161 335 -196 l-65 -119q-169 27 -379 201q-164 -140 -375 -140q-122 0 -222 43t-156 120.5t-56 180.5zM532 115q146 0 263 90q-168 158 -342 409q-118 -82 -162.5 -147t-44.5 -135q0 -98 80.5 -157.5t205.5 -59.5zM442 1079q0 -107 84 -266q125 83 171 148.5t46 132.5q0 69 -40 113 t-107 44q-70 0 -112 -47.5t-42 -124.5z" glyph-name="ampersand" horiz-adv-x="1395" unicode="&amp;"/>
<glyph d="M131 1366h152v-76l-47 -407h-105v483z" glyph-name="quotesingle" horiz-adv-x="393" unicode="'"/>
<glyph d="M109 553q0 246 80 472t223 390l127 -37q-130 -158 -210.5 -373.5t-80.5 -451.5q0 -251 81.5 -484t215.5 -395l-123 -43q-143 169 -228 413.5t-85 508.5z" glyph-name="parenleft" horiz-adv-x="586" unicode="("/>
<glyph d="M41 -326q136 167 216.5 401.5t80.5 477.5q0 231 -81 448.5t-210 376.5l127 37q138 -162 220.5 -387t82.5 -475q0 -267 -85.5 -509.5t-227.5 -412.5z" glyph-name="parenright" horiz-adv-x="586" unicode=")"/>
<glyph d="M414 1409h164l-52 -307h-61zM575 1073l242 199l82 -144l-293 -108zM92 1128l82 144l242 -199l-31 -53zM606 963l293 -109l-82 -143l-242 198zM92 854l293 109l31 -54l-242 -198zM465 881h61l52 -308h-164z" glyph-name="asterisk" horiz-adv-x="991" unicode="*"/>
<glyph d="M63 580h402v419h141v-419h395v-134h-395v-446h-141v446h-402v134z" glyph-name="plus" unicode="+"/>
<glyph d="M276 229q78 -91 78 -221q0 -205 -207 -362l-71 73q72 64 91 90t28.5 56.5t9.5 68.5q0 60 -23.5 115.5t-72.5 124.5z" glyph-name="comma" horiz-adv-x="471" unicode=","/>
<glyph d="M115 586h463v-148h-463v148z" glyph-name="hyphen" horiz-adv-x="692" unicode="-"/>
<glyph d="M121 98q0 51 36 87t87 36q53 0 88 -38t35 -85q0 -50 -36.5 -86.5t-86.5 -36.5q-49 0 -86 35.5t-37 87.5z" glyph-name="period" horiz-adv-x="487" unicode="."/>
<glyph d="M729 1366h141l-680 -1767h-143z" glyph-name="slash" horiz-adv-x="938" unicode="/"/>
<glyph d="M102 467q0 152 62.5 274t167.5 184t239 62q137 0 239 -61t157 -170t55 -248q0 -152 -57 -274.5t-162 -190.5t-250 -68q-132 0 -234.5 65t-159.5 178.5t-57 248.5zM262 485q0 -158 84.5 -264t214.5 -106q137 0 219 103t82 271q0 101 -36.5 184t-104.5 129t-158 46 q-88 0 -156.5 -48.5t-106.5 -132.5t-38 -182z" glyph-name="zero" horiz-adv-x="1124" unicode="0"/>
<glyph d="M104 137h215v699h-200v127h360v-826h201v-137h-576v137z" glyph-name="one" horiz-adv-x="741" unicode="1"/>
<glyph d="M92 104q215 159 350.5 317t135.5 271q0 69 -48 112.5t-124 43.5q-55 0 -119 -25.5t-121 -68.5l-70 104q71 56 162.5 92.5t173.5 36.5q134 0 223.5 -78.5t89.5 -195.5q0 -115 -92 -249.5t-321 -326.5h499v-137h-722z" glyph-name="two" horiz-adv-x="909" unicode="2"/>
<glyph d="M57 -262l31 -2h31q192 0 314 83t122 220q0 109 -82.5 169t-232.5 60h-58v131q76 8 157 55.5t131 113.5t50 132q0 69 -44.5 108.5t-117.5 39.5q-57 0 -123.5 -25.5t-123.5 -68.5l-70 104q68 56 160.5 92.5t177.5 36.5q135 0 222 -76t87 -194q0 -96 -68 -188t-180 -156 q136 -30 209.5 -114t73.5 -208q0 -128 -76 -229.5t-213 -157t-307 -55.5h-27l-28 2z" glyph-name="three" horiz-adv-x="815" unicode="3"/>
<glyph d="M57 162l609 825h135v-803h194v-131h-194v-448h-160v448h-584v109zM641 184v555l-410 -555h410z" glyph-name="four" unicode="4"/>
<glyph d="M63 -262l32 -2h32q194 0 314 84.5t120 226.5q0 94 -46.5 163t-144.5 113.5t-272 67.5v572h580v-138h-424v-319q238 -47 356.5 -162t118.5 -289q0 -132 -73.5 -233.5t-209.5 -157t-309 -55.5h-29l-30 2z" glyph-name="five" horiz-adv-x="817" unicode="5"/>
<glyph d="M539 -25q-134 0 -234 74.5t-153.5 209.5t-53.5 308q0 228 92.5 417.5t258 293.5t380.5 113l13 -131q-223 -14 -368 -143t-191 -351q92 113 270 113q121 0 214 -56.5t142 -156t49 -222.5q0 -127 -52.5 -236t-148.5 -171t-218 -62zM532 739q-73 0 -145.5 -32t-120.5 -84 q0 -240 73.5 -374t209.5 -134q106 0 174 86.5t68 224.5q0 92 -29.5 162t-86.5 110.5t-143 40.5z" glyph-name="six" horiz-adv-x="1040" unicode="6"/>
<glyph d="M137 -367q304 560 553 1178h-627v152h811v-109q-140 -349 -287 -658.5t-294 -598.5z" glyph-name="seven" horiz-adv-x="930" unicode="7"/>
<glyph d="M100 334q0 71 31 132.5t89 118.5t181 140q-119 95 -169 179t-50 175q0 137 102 224.5t263 87.5q152 0 248 -83t96 -216q0 -94 -56.5 -179.5t-183.5 -175.5q125 -88 179 -145.5t84 -120t30 -131.5q0 -99 -56.5 -183.5t-154 -133t-217.5 -48.5q-117 0 -212 47t-149.5 130.5 t-54.5 181.5zM776 330q0 48 -23.5 90.5t-65 83t-177.5 139.5q-152 -101 -204 -167.5t-52 -135.5q0 -97 78 -161t186 -64q107 0 182.5 60t75.5 155zM350 1085q0 -62 42 -125t149 -143q112 81 154 142t42 122q0 77 -54 123.5t-140 46.5q-84 0 -138.5 -45.5t-54.5 -120.5z" glyph-name="eight" horiz-adv-x="1044" unicode="8"/>
<glyph d="M209 -266q223 12 368.5 136.5t190.5 334.5q-91 -111 -268 -111q-118 0 -208.5 57t-140 157t-49.5 224t51.5 229.5t145 165.5t213.5 60q134 0 233.5 -74t153 -208t53.5 -310q0 -223 -93 -404t-258 -280t-380 -108zM520 233q69 0 137.5 28.5t126.5 86.5q0 233 -75 366.5 t-207 133.5q-102 0 -167 -80.5t-65 -206.5q0 -156 65 -242t185 -86z" glyph-name="nine" horiz-adv-x="1040" unicode="9"/>
<glyph d="M279 676q-51 0 -87 36t-36 87q0 52 37 87.5t86 35.5q50 0 86 -36t36 -87q0 -50 -35 -86.5t-87 -36.5zM156 98q0 51 36 87t87 36q52 0 87 -36.5t35 -86.5q0 -52 -36.5 -87.5t-85.5 -35.5t-86 35.5t-37 87.5z" glyph-name="colon" horiz-adv-x="555" unicode=":"/>
<glyph d="M319 229q78 -91 78 -221q0 -205 -207 -362l-71 73q72 64 91 90t28.5 56.5t9.5 68.5q0 60 -23.5 115.5t-72.5 124.5zM150 798q0 51 36 87t87 36q53 0 88 -38t35 -85q0 -50 -36.5 -86.5t-86.5 -36.5q-49 0 -86 35.5t-37 87.5z" glyph-name="semicolon" horiz-adv-x="547" unicode=";"/>
<glyph d="M63 557l873 469l31 -139l-719 -377l719 -397l-31 -138l-873 488v94z" glyph-name="less" unicode="&lt;"/>
<glyph d="M74 774h917v-133h-917v133zM74 385h917v-133h-917v133z" glyph-name="equal" unicode="="/>
<glyph d="M96 113l717 397l-717 377l31 139l872 -469v-94l-872 -488z" glyph-name="greater" unicode="&gt;"/>
<glyph d="M207 401q-6 27 -6 70q0 162 134 329q84 104 109 144.5t25 73.5q0 66 -102.5 136.5t-272.5 129.5l35 152q241 -78 384.5 -183t143.5 -217q0 -52 -33 -105.5t-127 -157.5q-161 -178 -161 -372h-129zM156 98q0 51 36 87t87 36q52 0 87 -36.5t35 -86.5q0 -52 -36.5 -87.5 t-85.5 -35.5t-86 35.5t-37 87.5z" glyph-name="question" horiz-adv-x="731" unicode="?"/>
<glyph d="M86 399q0 217 105.5 407.5t290.5 301.5t413 111q201 0 362.5 -86.5t251.5 -242t90 -343.5q0 -142 -49 -258t-139 -183q-30 -23 -63.5 -39t-78 -31t-245.5 -61q-24 122 -29 152q-36 -66 -107 -109t-151 -43q-126 0 -208.5 109.5t-82.5 282.5q0 159 73.5 286t203 198 t281.5 71q36 0 135 -9v-622q0 -103 14 -166q148 16 227.5 118.5t79.5 280.5q0 166 -69.5 298t-198 206t-295.5 74q-188 0 -342 -93.5t-242 -258t-88 -357.5q0 -172 72.5 -315.5t198.5 -228t274 -93.5l-20 -112q-182 8 -335 110.5t-241 275.5t-88 369zM776 115q53 0 107 41 t96 110v527q-102 0 -186 -54.5t-131.5 -150.5t-47.5 -209t45 -188.5t117 -75.5z" glyph-name="at" horiz-adv-x="1702" unicode="@"/>
<glyph d="M553 1376h162l524 -1376h-176l-154 412h-557l-153 -412h-170zM406 553h450l-225 602z" glyph-name="A" horiz-adv-x="1268" unicode="A"/>
<glyph d="M201 1366h356q150 0 253.5 -40.5t156.5 -114.5t53 -173q0 -82 -41 -161t-125 -144q126 -46 186 -133t60 -203q0 -178 -129 -287.5t-338 -109.5h-432v1366zM602 141q156 0 237 64t81 180q0 119 -83 183.5t-235 64.5h-233v-492h233zM369 774h317q70 41 112 107t42 141 q0 203 -314 203h-157v-451z" glyph-name="B" horiz-adv-x="1202" unicode="B"/>
<glyph d="M102 674q0 202 93.5 368t261.5 257.5t379 91.5q120 0 241.5 -32t210.5 -85l-67 -152q-77 54 -185 88.5t-213 34.5q-160 0 -282.5 -72.5t-190 -201.5t-67.5 -285t71 -286.5t196 -204.5t277 -74q106 0 216 37.5t192 99.5l70 -127q-91 -69 -225.5 -112.5t-266.5 -43.5 q-202 0 -366 90t-254.5 250.5t-90.5 358.5z" glyph-name="C" horiz-adv-x="1378" unicode="C"/>
<glyph d="M201 1366h413q227 0 403 -81.5t266.5 -229t90.5 -350.5q0 -218 -102 -378t-291.5 -243.5t-443.5 -83.5h-336v1366zM516 141q330 0 504 140.5t174 404.5q0 255 -160 397t-448 142h-217v-1084h147z" glyph-name="D" horiz-adv-x="1481" unicode="D"/>
<glyph d="M201 1366h805v-141h-637v-457h503v-141h-503v-486h635v-141h-803v1366z" glyph-name="E" horiz-adv-x="1110" unicode="E"/>
<glyph d="M201 1366h786v-141h-618v-463h489v-150h-489v-612h-168v1366z" glyph-name="F" horiz-adv-x="1049" unicode="F"/>
<glyph d="M102 664q0 207 97.5 378t264.5 260t376 89q122 0 241 -27.5t213 -75.5l-67 -151q-82 49 -189.5 78.5t-208.5 29.5q-164 0 -289 -73.5t-192 -203.5t-67 -290q0 -162 73 -289.5t206 -197.5t306 -70q122 0 258 35v403h-293v141h461v-661q-263 -64 -452 -64q-208 0 -378.5 87 t-265 244.5t-94.5 357.5z" glyph-name="G" horiz-adv-x="1430" unicode="G"/>
<glyph d="M201 1366h168v-598h807v598h167v-1366h-167v627h-807v-627h-168v1366z" glyph-name="H" horiz-adv-x="1544" unicode="H"/>
<glyph d="M201 1366h168v-1366h-168v1366z" glyph-name="I" horiz-adv-x="569" unicode="I"/>
<glyph d="M-35 -229q115 13 176.5 110.5t61.5 272.5v1212h168v-1210q0 -223 -88 -359.5t-252 -161.5z" glyph-name="J" horiz-adv-x="571" unicode="J"/>
<glyph d="M201 1366h168v-580h28l547 580h213l-614 -641l639 -725h-221l-564 645h-28v-645h-168v1366z" glyph-name="K" horiz-adv-x="1188" unicode="K"/>
<glyph d="M201 1366h168v-1225h655v-141h-823v1366z" glyph-name="L" horiz-adv-x="1055" unicode="L"/>
<glyph d="M227 1366h242l412 -1128l417 1128h242l49 -1366h-164l-43 1161l-438 -1161h-127l-438 1176l-37 -1176h-164z" glyph-name="M" horiz-adv-x="1767" unicode="M"/>
<glyph d="M201 1366h168l796 -1114v1114h164v-1366h-168l-796 1098v-1098h-164v1366z" glyph-name="N" horiz-adv-x="1530" unicode="N"/>
<glyph d="M102 680q0 196 95 363t258.5 257.5t367.5 90.5q201 0 362 -88t251 -245t90 -349q0 -198 -95.5 -369.5t-260 -268t-365.5 -96.5q-196 0 -357.5 92t-253.5 256.5t-92 356.5zM283 692q0 -150 67.5 -282.5t188.5 -210.5t272 -78q147 0 268.5 73.5t194 208t72.5 289.5 q0 151 -66.5 278.5t-189 201t-277.5 73.5q-154 0 -274.5 -73.5t-188 -202.5t-67.5 -277z" glyph-name="O" horiz-adv-x="1628" unicode="O"/>
<glyph d="M201 1366h395q231 0 359 -105.5t128 -297.5q0 -202 -132.5 -320.5t-354.5 -118.5h-227v-524h-168v1366zM565 666q174 0 256 75t82 207q0 136 -86.5 206.5t-251.5 70.5h-196v-559h196z" glyph-name="P" horiz-adv-x="1155" unicode="P"/>
<glyph d="M104 680q0 194 93 361t255 258.5t367 91.5q203 0 365 -88t253 -245.5t91 -348.5q0 -163 -66.5 -310.5t-188.5 -252t-278 -146.5q110 -140 179 -197.5t153 -92t186 -34.5l-24 -153h-24q-288 0 -510 275l-109 128q-35 44 -123 54q-178 19 -320.5 116t-220.5 251.5 t-78 332.5zM285 692q0 -151 67 -284.5t186.5 -210t272.5 -76.5q152 0 275 78t192.5 210.5t69.5 284.5t-71 282t-191 199.5t-269 69.5q-154 0 -275 -73.5t-189 -203t-68 -276.5z" glyph-name="Q" horiz-adv-x="1628" unicode="Q"/>
<glyph d="M201 1366h358q155 0 264.5 -46t166.5 -131t57 -196q0 -124 -76 -225t-207 -158l414 -610h-199l-391 575h-219v-575h-168v1366zM584 717q74 0 139.5 33t104 92t38.5 135q0 118 -88.5 183t-249.5 65h-159v-508h215z" glyph-name="R" horiz-adv-x="1217" unicode="R"/>
<glyph d="M143 248q79 -58 174.5 -90.5t182.5 -32.5q123 0 197.5 55t74.5 144q0 73 -52 135t-153 116q-166 88 -230.5 128t-110.5 86.5t-74.5 105.5t-28.5 139q0 160 122 258.5t322 98.5q166 0 348 -62l-43 -158q-166 70 -311 70q-122 0 -195 -50t-73 -138q0 -75 51 -136t155 -116 l119 -63q134 -71 195.5 -126t95 -122.5t33.5 -153.5q0 -165 -124 -263t-324 -98q-107 0 -210 30t-186 85z" glyph-name="S" horiz-adv-x="1042" unicode="S"/>
<glyph d="M518 1225h-483v141h1143v-141h-492v-1225h-168v1225z" glyph-name="T" horiz-adv-x="1212" unicode="T"/>
<glyph d="M182 1366h168v-842q0 -194 100.5 -298.5t286.5 -104.5q183 0 284 103t101 288v854h168v-846q0 -164 -70.5 -288t-196.5 -190.5t-288 -66.5q-265 0 -409 135t-144 382v874z" glyph-name="U" horiz-adv-x="1473" unicode="U"/>
<glyph d="M29 1366h178l399 -1128l400 1128h172l-494 -1376h-164z" glyph-name="V" horiz-adv-x="1206" unicode="V"/>
<glyph d="M51 1366h172l336 -1130l326 1130h172l323 -1130l338 1130h168l-420 -1376h-172l-325 1102l-328 -1102h-172z" glyph-name="W" horiz-adv-x="1935" unicode="W"/>
<glyph d="M508 680l-457 686h199l358 -551l361 551h192l-456 -682l456 -684h-198l-359 551l-360 -551h-193z" glyph-name="X" horiz-adv-x="1212" unicode="X"/>
<glyph d="M506 594l-490 772h199l377 -608l381 608h188l-487 -770v-596h-168v594z" glyph-name="Y" horiz-adv-x="1178" unicode="Y"/>
<glyph d="M74 96l794 1129h-747v141h962v-96l-784 -1129h797v-141h-1022v96z" glyph-name="Z" horiz-adv-x="1186" unicode="Z"/>
<glyph d="M174 1366h375v-113h-242v-1458h242v-112h-375v1683z" glyph-name="bracketleft" horiz-adv-x="588" unicode="["/>
<glyph d="M68 1366h141l682 -1767h-143z" glyph-name="backslash" horiz-adv-x="938" unicode="\"/>
<glyph d="M281 -205v1458h-242v113h375v-1683h-375v112h242z" glyph-name="bracketright" horiz-adv-x="588" unicode="]"/>
<glyph d="M455 1391h102l438 -879h-155l-336 676l-336 -676h-152z" glyph-name="asciicircum" horiz-adv-x="1012" unicode="^"/>
<glyph d="M1061 -76v-121h-1024v121h1024z" glyph-name="underscore" horiz-adv-x="1098" unicode="_"/>
<glyph d="M328 1432h174l207 -340l-95 -56z" glyph-name="grave" horiz-adv-x="1032" unicode="`"/>
<glyph d="M74 207q0 138 140 228.5t413 125.5v35q0 101 -14 136.5t-45.5 55t-92.5 19.5q-67 0 -143.5 -27t-145.5 -75l-49 129q78 52 180.5 82t202.5 30q145 0 205.5 -66t60.5 -227v-415q0 -55 28 -87t75 -36l-53 -129q-167 17 -199 149q-44 -69 -128 -114.5t-177 -45.5 q-115 0 -186.5 64t-71.5 168zM365 115q44 0 85 17t78.5 45t98.5 97v170q-195 -32 -289 -85t-94 -142q0 -54 35 -78t86 -24z" glyph-name="a" horiz-adv-x="961" unicode="a"/>
<glyph d="M152 1434l159 28v-637q45 58 115.5 89.5t151.5 31.5q178 0 287.5 -127t109.5 -327q0 -148 -63 -267t-179.5 -184.5t-271.5 -65.5q-145 0 -309 41v1418zM557 807q-131 0 -246 -123v-555q67 -20 158 -20q156 0 247 100.5t91 271.5q0 148 -68 237t-182 89z" glyph-name="b" horiz-adv-x="1067" unicode="b"/>
<glyph d="M90 451q0 133 60.5 248.5t168 181t242.5 65.5q88 0 168.5 -27.5t132.5 -72.5l-71 -125q-47 39 -112 62.5t-128 23.5q-129 0 -211 -97.5t-82 -250.5q0 -150 82.5 -247t216.5 -97q69 0 136 27.5t114 70.5l55 -119q-53 -55 -138.5 -87t-178.5 -32q-131 0 -236 61.5 t-162 171.5t-57 243z" glyph-name="c" horiz-adv-x="934" unicode="c"/>
<glyph d="M92 430q0 145 63 264.5t176.5 185.5t262.5 66q104 0 178 -33v521l160 28v-1177q0 -114 41 -285l-158 -14l-29 147q-45 -73 -123.5 -115.5t-175.5 -42.5q-114 0 -205 60t-140.5 164.5t-49.5 230.5zM508 115q73 0 146.5 47t117.5 121v397q-7 131 -176 131 q-153 0 -243.5 -100t-90.5 -271q0 -145 67.5 -235t178.5 -90z" glyph-name="d" horiz-adv-x="1092" unicode="d"/>
<glyph d="M92 440q0 143 55.5 259t158 181.5t229.5 65.5q168 0 268 -111t100 -300l-98 -29l-543 -72q10 -147 92 -233t213 -86q70 0 147 31t142 85l47 -122q-63 -60 -157.5 -97t-196.5 -37q-137 0 -241 60t-160 166.5t-56 238.5zM524 813q-102 0 -171.5 -69t-88.5 -187l463 59 q-10 82 -62.5 139.5t-140.5 57.5z" glyph-name="e" horiz-adv-x="997" unicode="e"/>
<glyph d="M57 877l146 55v98q0 216 102 338.5t279 122.5q65 0 133.5 -20.5t124.5 -57.5l-74 -127q-99 66 -188 66q-102 0 -160 -81t-58 -233v-116h261v-129h-261v-793h-159v793h-146v84z" glyph-name="f" horiz-adv-x="670" unicode="f"/>
<glyph d="M145 166q0 79 142 164q-84 43 -131 120.5t-47 174.5q0 93 49.5 166.5t138.5 114t192 40.5q57 0 135 -19q78 -20 130 -20h98q67 0 121 21l14 -144h-117q-45 0 -75 4q33 -37 51 -84t18 -96q0 -95 -52 -166.5t-142.5 -112t-196.5 -40.5q-40 0 -74 6q-32 -23 -57 -44.5 t-25 -41.5q0 -29 70 -49t201 -49q156 -35 220 -66.5t100 -77t36 -112.5q0 -90 -67 -169t-181.5 -125t-242.5 -46q-169 0 -281.5 67t-112.5 178q0 76 56 146t184 135q-154 45 -154 125zM207 -217q0 -66 70.5 -105.5t187.5 -39.5q129 0 222 58.5t93 135.5q0 44 -33.5 74.5 t-101.5 51.5t-213 48q-136 -73 -180.5 -121.5t-44.5 -101.5zM487 412q96 0 154.5 51t58.5 137q0 93 -60 158t-157 65q-95 0 -153 -59t-58 -150q0 -88 58 -145t157 -57z" glyph-name="g" horiz-adv-x="1026" unicode="g"/>
<glyph d="M156 1434l159 28v-704q77 84 179 136t200 52q116 0 179 -71t63 -205v-670h-160v625q0 180 -125 180q-62 0 -152 -52.5t-184 -142.5v-610h-159v1434z" glyph-name="h" horiz-adv-x="1081" unicode="h"/>
<glyph d="M238 1155q-47 0 -79 32t-32 79q0 46 32 78t79 32q46 0 78 -32t32 -78q0 -47 -32 -79t-78 -32zM156 922h159v-922h-159v922z" glyph-name="i" horiz-adv-x="471" unicode="i"/>
<glyph d="M236 1155q-47 0 -79 32t-32 79q0 46 32 78t79 32q46 0 78 -32t32 -78q0 -47 -32 -79t-78 -32zM156 922h159v-906q0 -226 -80.5 -349.5t-250.5 -151.5l-50 133q116 23 169 106t53 232v936z" glyph-name="j" horiz-adv-x="471" unicode="j"/>
<glyph d="M156 1434l159 28v-895h23l364 355h213l-430 -408l469 -514h-215l-399 449h-25v-449h-159v1434z" glyph-name="k" horiz-adv-x="967" unicode="k"/>
<glyph d="M156 1434l159 28v-1462h-159v1434z" glyph-name="l" horiz-adv-x="471" unicode="l"/>
<glyph d="M152 907l159 29v-178q86 90 183.5 139t187.5 49q82 0 141.5 -43t79.5 -141q92 92 186.5 138t180.5 46q111 0 171 -71t60 -205v-670h-160v625q0 180 -114 180q-118 0 -314 -180v-625h-159v625q0 180 -115 180q-61 0 -149.5 -52.5t-178.5 -142.5v-610h-159v907z" glyph-name="m" horiz-adv-x="1647" unicode="m"/>
<glyph d="M152 907l159 29v-180q87 91 186 140.5t195 49.5q116 0 179 -71t63 -205v-670h-160v625q0 180 -125 180q-65 0 -158.5 -55.5t-179.5 -141.5v-608h-159v907z" glyph-name="n" horiz-adv-x="1079" unicode="n"/>
<glyph d="M90 457q0 129 58.5 243.5t162.5 180t238 65.5q130 0 232.5 -61t161 -170t58.5 -236q0 -135 -62.5 -255.5t-165.5 -184.5t-232 -64t-232 63.5t-161 176t-58 242.5zM258 475q0 -160 78.5 -260t210.5 -100q128 0 207.5 93t79.5 245q0 160 -77.5 257t-211.5 97 q-129 0 -208 -90.5t-79 -241.5z" glyph-name="o" horiz-adv-x="1092" unicode="o"/>
<glyph d="M152 907l155 29v-143q39 70 113.5 111.5t169.5 41.5q113 0 202.5 -59t139 -164.5t49.5 -235.5q0 -142 -59 -260t-165.5 -185t-238.5 -67q-74 0 -126.5 18t-80.5 40v-479l-159 -29v1382zM569 803q-66 0 -131 -38t-127 -120v-414q0 -63 48 -91.5t126 -28.5q152 0 239 98 t87 266q0 151 -66.5 239.5t-175.5 88.5z" glyph-name="p" horiz-adv-x="1073" unicode="p"/>
<glyph d="M92 430q0 148 63 266.5t179 184t272 65.5q134 0 309 -41v-1351l-159 -29v573q-39 -57 -110.5 -90t-156.5 -33q-176 0 -286.5 127.5t-110.5 327.5zM510 119q63 0 127.5 31.5t118.5 89.5v551q-70 20 -158 20q-157 0 -247.5 -100t-90.5 -271q0 -147 68.5 -234t181.5 -87z " glyph-name="q" horiz-adv-x="1067" unicode="q"/>
<glyph d="M152 907l159 29v-182q51 90 123 141t146 51q47 0 79 -18l-41 -172q-48 16 -77 16q-56 0 -115.5 -47.5t-114.5 -140.5v-584h-159v907z" glyph-name="r" horiz-adv-x="684" unicode="r"/>
<glyph d="M121 199q52 -39 124 -64.5t140 -25.5q87 0 129.5 33t42.5 87q0 55 -49 96.5t-177 98.5q-114 50 -170.5 115t-56.5 153q0 119 89 186.5t247 67.5q143 0 256 -51l-43 -135q-46 22 -109.5 37.5t-115.5 15.5q-84 0 -123 -30t-39 -78q0 -51 46 -89.5t181 -98.5 q114 -51 170 -118t56 -157q0 -122 -89.5 -194.5t-248.5 -72.5q-85 0 -162.5 22t-132.5 60z" glyph-name="s" horiz-adv-x="805" unicode="s"/>
<glyph d="M197 793h-131v86l131 53v205l159 39v-254h299v-129h-299v-506q0 -172 113 -172q44 0 98.5 24.5t96.5 59.5l38 -129q-57 -45 -127 -70t-139 -25q-118 0 -178.5 68t-60.5 201v549z" glyph-name="t" horiz-adv-x="741" unicode="t"/>
<glyph d="M143 922h160v-625q0 -180 131 -180q65 0 146 44t165 128v633h160v-637q0 -114 41 -285l-158 -14q-20 81 -30 168q-77 -84 -174.5 -131.5t-190.5 -47.5q-250 0 -250 277v670z" glyph-name="u" unicode="u"/>
<glyph d="M37 922h168l244 -723l290 723h166l-389 -932h-151z" glyph-name="v" horiz-adv-x="934" unicode="v"/>
<glyph d="M43 922h168l219 -742l264 742h144l221 -742l260 742h166l-357 -932h-155l-219 702l-260 -702h-156z" glyph-name="w" horiz-adv-x="1518" unicode="w"/>
<glyph d="M373 461l-318 461h191l223 -338l225 338h185l-318 -457l318 -465h-183l-231 346l-234 -346h-176z" glyph-name="x" horiz-adv-x="934" unicode="x"/>
<glyph d="M43 -352q180 36 289 282l59 138l-358 854h174l268 -652l260 652h168l-411 -992q-64 -149 -120.5 -228.5t-125.5 -128t-152 -58.5z" glyph-name="y" horiz-adv-x="936" unicode="y"/>
<glyph d="M84 96l491 688h-475v138h686v-97l-499 -688h518v-137h-719z" glyph-name="z" horiz-adv-x="889" unicode="z"/>
<glyph d="M293 -135v116q0 136 -25 254t-84.5 180.5t-150.5 65.5v113q89 1 149.5 61t85.5 174t25 247v114q0 160 110 244t308 84v-105q-116 -8 -173 -35t-81.5 -82t-24.5 -215q0 -221 -54.5 -360t-164.5 -180v-4q106 -40 162.5 -188.5t56.5 -375.5q0 -158 24 -213t83 -82.5 t172 -35.5v-105q-418 0 -418 328z" glyph-name="braceleft" horiz-adv-x="696" unicode="{"/>
<glyph d="M172 1534h133v-1995h-133v1995z" glyph-name="bar" horiz-adv-x="477" unicode="|"/>
<glyph d="M483 537v4q-110 41 -164.5 180t-54.5 360q0 158 -24 214.5t-82.5 83t-171.5 34.5v105q197 0 307 -84t110 -244v-114q0 -132 25 -246.5t85.5 -174.5t150.5 -61v-113q-91 -3 -151 -65t-85 -179t-25 -256v-116q0 -328 -417 -328v105q113 8 171 35t82.5 82t24.5 214 q0 228 56.5 376t162.5 188z" glyph-name="braceright" horiz-adv-x="696" unicode="}"/>
<glyph d="M131 358q0 155 66.5 236.5t199.5 81.5q71 0 127 -24.5t108 -74.5q59 -60 92.5 -80t74.5 -20q64 0 99.5 48.5t35.5 142.5h131q0 -155 -66.5 -236.5t-199.5 -81.5q-71 0 -127 24.5t-107 75.5q-61 60 -95 79.5t-73 19.5q-64 0 -99.5 -49t-35.5 -142h-131z" glyph-name="asciitilde" horiz-adv-x="1192" unicode="~"/>
<glyph glyph-name="uni00A0" horiz-adv-x="492" unicode=" "/>
<glyph d="M357.033 -468.745h-190.965l26.9951 989.818h140.974zM383.028 824.018q0 -50.9902 -35.9932 -86.9834q-35.9932 -35.9941 -86.9844 -35.9941q-51.9902 0 -86.9834 36.4941q-34.9941 36.4932 -34.9941 86.4834q0 51.9912 36.4932 87.4844t85.4844 35.4932 t85.9844 -35.4932t36.9932 -87.4844z" glyph-name="exclamdown" horiz-adv-x="524" unicode="¡"/>
<glyph d="M430 143q-153 27 -248.5 144.5t-95.5 281.5q0 171 101 291.5t266 140.5l6 181h90l-4 -178q87 -5 162 -37t122 -84l-92 -113q-37 37 -89.5 62.5t-106.5 31.5l-17 -588q67 0 132 26.5t114 72.5l55 -119q-54 -54 -135 -86t-170 -33l-4 -182h-90zM254 575q0 -105 48.5 -181.5 t131.5 -104.5l15 571q-91 -21 -143 -99t-52 -186z" glyph-name="cent" horiz-adv-x="922" unicode="¢"/>
<glyph d="M125 592h137l23 170q45 395 360 395q90 0 172.5 -34t132.5 -89l-92 -112q-39 44 -98.5 70t-120.5 26q-89 0 -135.5 -61t-61.5 -201l-16 -164h381l-10 -103h-381q-20 -191 -74 -335q188 -66 322 -66q107 0 158 59t61 179h129q-20 -199 -100.5 -288t-219.5 -89 q-57 0 -116.5 12.5t-115.5 27.5t-107 27.5t-93 12.5q-60 0 -137 -29l-41 111q58 21 97.5 70t47.5 114l23 194h-125v103z" glyph-name="sterling" horiz-adv-x="1102" unicode="£"/>
<glyph d="M253 222q57 0 88 40.5t31 102.5q0 30 -8 56.5t-23 46t-37.5 30.5t-50.5 11q-29 0 -51 -11t-37.5 -30.5t-23.5 -46t-8 -56.5q0 -31 8 -57t23.5 -45t37.5 -30t51 -11zM19 168l69 71q-38 55 -38 126t38 124l-69 71l45 43l67 -69q24 18 54.5 29t67.5 11q36 0 67 -11t55 -29 l67 69l45 -43l-69 -71q37 -54 37 -124q0 -35 -10 -67t-28 -58l70 -72l-45 -43l-68 69q-49 -37 -121 -37t-121 37l-68 -69z" glyph-name="currency" horiz-adv-x="506" unicode="¤"/>
<glyph d="M193 655h192l-303 478h182l305 -496l312 496h170l-303 -478h215v-102h-281l-35 -57v-82h316v-103h-316v-311h-160v311h-294v103h294v80l-38 59h-256v102z" glyph-name="yen" horiz-adv-x="1139" unicode="¥"/>
<glyph d="M180 1405h148v-733h-148v733zM328 354v-733h-148v733h148z" glyph-name="brokenbar" horiz-adv-x="508" unicode="¦"/>
<glyph d="M309 -188q35 82 35 188q0 59 -10 115l-123 696q-12 70 -12 137q0 204 102 323.5t281 119.5q84 0 173.5 -29t162.5 -78l-62 -104q-60 43 -133.5 69.5t-136.5 26.5q-121 0 -189.5 -89.5t-68.5 -238.5q0 -60 12 -121l113 -620q20 -112 20 -205q0 -137 -51 -213zM119 -274 q58 -42 131.5 -69.5t138.5 -27.5q120 0 188 87.5t68 240.5q0 69 -10 121l-113 620q-22 124 -22 205q0 134 53 213l113 -22q-35 -76 -35 -189q0 -60 10 -114l123 -697q12 -71 12 -139q0 -204 -102.5 -322t-280.5 -118q-86 0 -177.5 29.5t-158.5 76.5z" glyph-name="section" horiz-adv-x="1001" unicode="§"/>
<glyph d="M698 1161q-43 0 -73.5 31.5t-30.5 73.5q0 41 31 72.5t73 31.5q46 0 76.5 -31t30.5 -73q0 -43 -31 -74t-76 -31zM332 1161q-46 0 -76.5 31t-30.5 74q0 41 31 72.5t76 31.5q43 0 73.5 -31.5t30.5 -72.5q0 -43 -31 -74t-73 -31z" glyph-name="dieresis" horiz-adv-x="1032" unicode="¨"/>
<glyph d="M90 682q0 188 94.5 352.5t258.5 259.5t354 95q188 0 352 -94.5t259 -258.5t95 -354q0 -188 -94.5 -352.5t-258.5 -259.5t-353 -95q-188 0 -352.5 94.5t-259.5 258.5t-95 354zM195 682q0 -165 80 -307t218.5 -223.5t303.5 -81.5q163 0 302.5 81.5t219.5 224t80 306.5 q0 165 -80 307t-218.5 223.5t-303.5 81.5q-163 0 -302.5 -81.5t-219.5 -224t-80 -306.5zM401 676q0 117 52.5 215.5t147 154.5t218.5 56q88 0 168.5 -34.5t126.5 -88.5l-92 -113q-41 43 -100 70t-115 27q-107 0 -172.5 -74t-65.5 -197q0 -122 74 -200t188 -78 q62 0 121.5 26.5t102.5 71.5l55 -119q-49 -56 -125.5 -87.5t-165.5 -31.5q-181 0 -299.5 115t-118.5 287z" glyph-name="copyright" horiz-adv-x="1593" unicode="©"/>
<glyph d="M280 711q-83 0 -133.5 44.5t-50.5 119.5q0 102 100 167t289 91v22q0 57 -9 81t-31 36t-58 12q-49 0 -106 -22.5t-105 -59.5l-35 111q60 37 134.5 57.5t148.5 20.5q110 0 154 -47t44 -158v-283q0 -38 20 -58.5t54 -20.5l-41 -107q-131 3 -159 100q-41 -51 -97.5 -78.5 t-118.5 -27.5zM313 817q39 0 76.5 22.5t95.5 90.5v109q-128 -23 -185.5 -60t-57.5 -94q0 -68 71 -68z" glyph-name="ordfeminine" horiz-adv-x="791" unicode="ª"/>
<glyph d="M440 518q31 25 116 117t284 311l110 -31l-309 -401q42 -57 309 -401l-110 -31l-314 341q-62 68 -86 87v8zM449 82l-314 341q-62 68 -86 87v8q31 25 116 117t284 311l110 -31l-309 -401q42 -57 309 -401z" glyph-name="guillemotleft" horiz-adv-x="1047" unicode="«"/>
<glyph d="M111 797h938v-570h-142v437h-796v133z" glyph-name="logicalnot" horiz-adv-x="1178" unicode="¬"/>
<glyph d="M115 586h463v-148h-463v148z" glyph-name="uni00AD" horiz-adv-x="692" unicode="­"/>
<glyph d="M442 733q-94 0 -176.5 47.5t-130 129.5t-47.5 177q0 94 48 177t129.5 130.5t176.5 47.5q94 0 176.5 -47.5t130.5 -130t48 -177.5q0 -94 -47.5 -176t-130 -130t-177.5 -48zM440 793q75 0 141 39t106 108.5t40 146.5t-38.5 145t-106 108t-142.5 40q-116 0 -199 -86.5 t-83 -206.5q0 -117 82 -205.5t200 -88.5zM432 1044h-37v-126h-84v348h123q144 0 144 -105q0 -42 -20 -64t-48 -36l104 -143h-94zM440 1100q52 0 52 53q0 55 -66 55h-31v-108h45z" glyph-name="registered" horiz-adv-x="885" unicode="®"/>
<glyph d="M272 1329h467v-125h-467v125z" glyph-name="macron" horiz-adv-x="1012" unicode="¯"/>
<glyph d="M340 899q-103 0 -176.5 72t-73.5 174t73.5 174t176.5 72t176.5 -72t73.5 -174t-73.5 -174t-176.5 -72zM340 993q62 0 104.5 44t42.5 108q0 63 -42.5 107t-104.5 44t-104.5 -44t-42.5 -107q0 -64 42.5 -108t104.5 -44z" glyph-name="degree" horiz-adv-x="680" unicode="°"/>
<glyph d="M78 774h381v369h141v-369h385v-133h-385v-395h-141v395h-381v133zM80 133h907v-133h-907v133z" glyph-name="plusminus" unicode="±"/>
<glyph d="M57 836q74 71 143 138t122.5 131.5t85.5 127.5t32 125q0 66 -39 99.5t-96 33.5q-77 0 -162 -74l-71 82q47 50 118.5 81.5t145.5 31.5q112 0 180 -64.5t68 -173.5q0 -101 -71.5 -210.5t-242.5 -280.5h369v-113h-571z" glyph-name="uni00B2" horiz-adv-x="698" unicode="²"/>
<glyph d="M274 756q-127 0 -225 63l55 99q85 -46 172 -46q75 0 117.5 34t42.5 89q0 60 -56.5 95.5t-146.5 35.5h-47v111q86 7 149.5 55t63.5 115q0 88 -102 88q-82 0 -162 -51l-53 88q49 37 109.5 58.5t121.5 21.5q100 0 166 -51.5t66 -135.5q0 -64 -45 -120t-121 -93 q95 -20 149 -77.5t54 -135.5q0 -103 -88.5 -173t-219.5 -70z" glyph-name="uni00B3" horiz-adv-x="662" unicode="³"/>
<glyph d="M324 1092l206 340h175l-287 -396z" glyph-name="acute" horiz-adv-x="1032" unicode="´"/>
<glyph d="M430 -356q135 0 194.5 75t59.5 240v408h-18q-183 0 -316.5 63t-206.5 176t-73 258q0 139 72.5 254.5t205 181.5t307.5 66h596v-117h-151v-1249h-127v1249h-154v-1290q0 -444 -358 -444z" glyph-name="paragraph" horiz-adv-x="1354" unicode="¶"/>
<glyph d="M256 397q-49 0 -86 35.5t-37 87.5q0 51 36 87t87 36t87 -36t36 -87q0 -53 -38 -88t-85 -35z" glyph-name="periodcentered" horiz-adv-x="512" unicode="·"/>
<glyph d="M461 -150q0 12 3 25.5t52 124.5h102q-19 -42 -28.5 -66t-9.5 -36q0 -19 20.5 -35t66.5 -37q87 -42 87 -121q0 -76 -66 -133t-162 -57q-51 0 -102 17.5t-88 45.5l43 100q28 -25 67.5 -41t75.5 -16q45 0 75 20t30 48q0 36 -83 72q-83 35 -83 89z" glyph-name="cedilla" horiz-adv-x="1032" unicode="¸"/>
<glyph d="M68 874h172v619h-158v104h297v-723h162v-104h-473v104z" glyph-name="uni00B9" horiz-adv-x="575" unicode="¹"/>
<glyph d="M420 711q-95 0 -170.5 44.5t-117.5 123t-42 170.5q0 91 42.5 170.5t119 125.5t174.5 46q95 0 170 -43t117.5 -119t42.5 -166q0 -91 -43 -173t-119.5 -130.5t-173.5 -48.5zM424 817q85 0 137 63.5t52 164.5q0 106 -51.5 172.5t-139.5 66.5q-86 0 -137 -61t-51 -162 q0 -110 51 -177t139 -67z" glyph-name="ordmasculine" horiz-adv-x="846" unicode="º"/>
<glyph d="M489 113l310 401l-44 55l-266 346l111 31q279 -308 327.5 -359t71.5 -69v-8q-24 -19 -86 -87l-313 -341zM98 113l310 401l-44 55l-266 346l111 31q279 -308 327.5 -359t71.5 -69v-8q-24 -19 -86 -87l-313 -341z" glyph-name="guillemotright" horiz-adv-x="1049" unicode="»"/>
<glyph d="M1340 217h-377l-10 80l397 539h125v-510h123v-109h-123v-215h-135v215zM1340 326v325l-242 -325h242zM97 655h172v619h-158v104h297v-723h162v-104h-473v104zM354 0l813 1407l117 -43l-784 -1364h-146z" glyph-name="onequarter" horiz-adv-x="1671" unicode="¼"/>
<glyph d="M95 655h172v619h-158v104h297v-723h162v-104h-473v104zM1136 68q74 71 143 138t122.5 131.5t85.5 127.5t32 125q0 66 -39 99.5t-96 33.5q-77 0 -162 -74l-71 82q47 50 118.5 81.5t145.5 31.5q112 0 180 -64.5t68 -173.5q0 -101 -71.5 -210.5t-242.5 -280.5h369v-113h-571 zM354 0l813 1407l117 -43l-784 -1364h-146z" glyph-name="onehalf" horiz-adv-x="1792" unicode="½"/>
<glyph d="M1317 217h-377l-10 80l397 539h125v-510h123v-109h-123v-215h-135v215zM1317 326v325l-242 -325h242zM307 537q-127 0 -225 63l55 99q85 -46 172 -46q75 0 117.5 34t42.5 89q0 60 -56.5 95.5t-146.5 35.5h-47v111q86 7 149.5 55t63.5 115q0 88 -102 88q-82 0 -162 -51 l-53 88q49 37 109.5 58.5t121.5 21.5q100 0 166 -51.5t66 -135.5q0 -64 -45 -120t-121 -93q95 -20 149 -77.5t54 -135.5q0 -103 -88.5 -173t-219.5 -70zM332 0l813 1407l117 -43l-784 -1364h-146z" glyph-name="threequarters" horiz-adv-x="1649" unicode="¾"/>
<glyph d="M522 520q6 -48 6 -69q0 -159 -134 -317q-82 -97 -108 -137.5t-26 -72.5q0 -67 102 -137t273 -129l-35 -152q-235 73 -381.5 180t-146.5 220q0 50 32.5 101t128.5 154q160 172 160 359h129zM573 823q0 -52 -36.5 -87.5t-85.5 -35.5t-86 35.5t-37 87.5q0 51 36 87t87 36 q52 0 87 -36.5t35 -86.5z" glyph-name="questiondown" horiz-adv-x="717" unicode="¿"/>
<glyph d="M553 1376h162l524 -1376h-176l-154 412h-557l-153 -412h-170zM406 553h450l-225 602zM421 1763l395 -194l-38 -99l-420 146z" glyph-name="Agrave" horiz-adv-x="1268" unicode="À"/>
<glyph d="M553 1376h162l524 -1376h-176l-154 412h-557l-153 -412h-170zM406 553h450l-225 602zM446 1569l396 194l63 -147l-420 -146z" glyph-name="Aacute" horiz-adv-x="1268" unicode="Á"/>
<glyph d="M553 1376h162l524 -1376h-176l-154 412h-557l-153 -412h-170zM406 553h450l-225 602zM303 1548l258 236h142l256 -236l-92 -78l-234 203l-237 -203z" glyph-name="Acircumflex" horiz-adv-x="1268" unicode="Â"/>
<glyph d="M553 1376h162l524 -1376h-176l-154 412h-557l-153 -412h-170zM406 553h450l-225 602zM269 1513q0 66 23.5 121.5t71 84t111.5 28.5q93 0 174 -67q47 -40 74 -54t54 -14q41 0 65.5 30.5t24.5 87.5v17h127v-15q0 -108 -55.5 -173.5t-157.5 -65.5q-94 0 -171 68 q-46 40 -71.5 53.5t-52.5 13.5q-42 0 -66 -30t-24 -85v-12h-127v12z" glyph-name="Atilde" horiz-adv-x="1268" unicode="Ã"/>
<glyph d="M553 1376h162l524 -1376h-176l-154 412h-557l-153 -412h-170zM406 553h450l-225 602zM867 1519q-41 0 -73 30.5t-32 74.5q0 41 31 72.5t74 31.5q45 0 75.5 -31.5t30.5 -72.5q0 -44 -32.5 -74.5t-73.5 -30.5zM398 1519q-43 0 -75 30.5t-32 74.5q0 41 31 72.5t76 31.5 q43 0 73.5 -31.5t30.5 -72.5q0 -44 -32 -74.5t-72 -30.5z" glyph-name="Adieresis" horiz-adv-x="1268" unicode="Ä"/>
<glyph d="M553 1376h162l524 -1376h-176l-154 412h-557l-153 -412h-170zM406 553h450l-225 602zM631 1456q-87 0 -139.5 46.5t-52.5 119.5q0 71 53 116.5t139 45.5q87 0 140 -45.5t53 -116.5q0 -73 -52.5 -119.5t-140.5 -46.5zM631 1526q46 0 72 28.5t26 65.5q0 40 -26 67t-72 27 q-45 0 -70.5 -25t-25.5 -69q0 -40 26 -67t70 -27z" glyph-name="Aring" horiz-adv-x="1268" unicode="Å"/>
<glyph d="M758 1366h905v-141h-637v-457h504v-141h-504v-486h635v-141h-803v457h-430l-252 -457h-180zM506 598h352v637z" glyph-name="AE" horiz-adv-x="1767" unicode="Æ"/>
<glyph d="M666 -150q0 25 18.5 68.5t28.5 63.5q-177 21 -316 114.5t-216 244.5t-77 333q0 202 93.5 368t261.5 257.5t379 91.5q120 0 241.5 -32t210.5 -85l-67 -152q-77 54 -185 88.5t-213 34.5q-160 0 -282.5 -72.5t-190 -201.5t-67.5 -285t71 -286.5t196 -204.5t277 -74 q106 0 216 37.5t192 99.5l70 -127q-91 -69 -225.5 -112.5t-266.5 -43.5h-4l-4 -10q-23 -49 -23 -67q0 -19 20.5 -35t66.5 -37q87 -42 87 -121q0 -76 -66 -133t-161 -57q-51 0 -102 17.5t-88 45.5l43 100q28 -25 67.5 -41t75.5 -16q45 0 74.5 20t29.5 48q0 20 -20 36.5 t-62 35.5q-42 18 -62.5 39t-20.5 50z" glyph-name="Ccedilla" horiz-adv-x="1384" unicode="Ç"/>
<glyph d="M201 1366h805v-141h-637v-457h503v-141h-503v-486h635v-141h-803v1366zM404 1763l395 -194l-38 -99l-420 146z" glyph-name="Egrave" horiz-adv-x="1110" unicode="È"/>
<glyph d="M201 1366h805v-141h-637v-457h503v-141h-503v-486h635v-141h-803v1366zM430 1569l396 194l63 -147l-420 -146z" glyph-name="Eacute" horiz-adv-x="1110" unicode="É"/>
<glyph d="M201 1366h805v-141h-637v-457h503v-141h-503v-486h635v-141h-803v1366zM286 1548l258 236h142l256 -236l-92 -78l-234 203l-237 -203z" glyph-name="Ecircumflex" horiz-adv-x="1110" unicode="Ê"/>
<glyph d="M201 1366h805v-141h-637v-457h503v-141h-503v-486h635v-141h-803v1366zM850 1519q-41 0 -73 30.5t-32 74.5q0 41 31 72.5t74 31.5q45 0 75.5 -31.5t30.5 -72.5q0 -44 -32.5 -74.5t-73.5 -30.5zM381 1519q-43 0 -75 30.5t-32 74.5q0 41 31 72.5t76 31.5q43 0 73.5 -31.5 t30.5 -72.5q0 -44 -32 -74.5t-72 -30.5z" glyph-name="Edieresis" horiz-adv-x="1110" unicode="Ë"/>
<glyph d="M201 1366h168v-1366h-168v1366zM75 1763l395 -194l-38 -99l-420 146z" glyph-name="Igrave" horiz-adv-x="569" unicode="Ì"/>
<glyph d="M201 1366h168v-1366h-168v1366zM101 1569l396 194l63 -147l-420 -146z" glyph-name="Iacute" horiz-adv-x="569" unicode="Í"/>
<glyph d="M201 1366h168v-1366h-168v1366zM-42 1548l258 236h142l256 -236l-92 -78l-234 203l-237 -203z" glyph-name="Icircumflex" horiz-adv-x="569" unicode="Î"/>
<glyph d="M201 1366h168v-1366h-168v1366zM472 1519q-43 0 -73.5 31.5t-30.5 73.5q0 41 31 72.5t73 31.5q46 0 76.5 -31t30.5 -73q0 -43 -31 -74t-76 -31zM106 1519q-46 0 -76.5 31t-30.5 74q0 41 31 72.5t76 31.5q43 0 73.5 -31.5t30.5 -72.5q0 -43 -31 -74t-73 -31z" glyph-name="Idieresis" horiz-adv-x="569" unicode="Ï"/>
<glyph d="M70 764h147v602h414q227 0 403 -81.5t266.5 -229t90.5 -350.5q0 -218 -102 -377.5t-291.5 -243.5t-444.5 -84h-336v623h-147v141zM532 141q329 0 502.5 140.5t173.5 404.5q0 254 -158.5 396.5t-447.5 142.5h-217v-461h352v-141h-352v-482h147z" glyph-name="Eth" horiz-adv-x="1497" unicode="Ð"/>
<glyph d="M201 1366h168l796 -1114v1114h164v-1366h-168l-796 1098v-1098h-164v1366zM402 1513q0 66 23.5 121.5t71 84t111.5 28.5q93 0 174 -67q47 -40 74 -54t54 -14q41 0 65.5 30.5t24.5 87.5v17h127v-15q0 -108 -55.5 -173.5t-157.5 -65.5q-94 0 -171 68q-46 40 -71.5 53.5 t-52.5 13.5q-42 0 -66 -30t-24 -85v-12h-127v12z" glyph-name="Ntilde" horiz-adv-x="1530" unicode="Ñ"/>
<glyph d="M102 680q0 196 95 363t258.5 257.5t367.5 90.5q201 0 362 -88t251 -245t90 -349q0 -198 -95.5 -369.5t-260 -268t-365.5 -96.5q-196 0 -357.5 92t-253.5 256.5t-92 356.5zM283 692q0 -150 67.5 -282.5t188.5 -210.5t272 -78q147 0 268.5 73.5t194 208t72.5 289.5 q0 151 -66.5 278.5t-189 201t-277.5 73.5q-154 0 -274.5 -73.5t-188 -202.5t-67.5 -277zM602 1763l395 -194l-38 -99l-420 146z" glyph-name="Ograve" horiz-adv-x="1628" unicode="Ò"/>
<glyph d="M102 680q0 196 95 363t258.5 257.5t367.5 90.5q201 0 362 -88t251 -245t90 -349q0 -198 -95.5 -369.5t-260 -268t-365.5 -96.5q-196 0 -357.5 92t-253.5 256.5t-92 356.5zM283 692q0 -150 67.5 -282.5t188.5 -210.5t272 -78q147 0 268.5 73.5t194 208t72.5 289.5 q0 151 -66.5 278.5t-189 201t-277.5 73.5q-154 0 -274.5 -73.5t-188 -202.5t-67.5 -277zM628 1569l396 194l63 -147l-420 -146z" glyph-name="Oacute" horiz-adv-x="1628" unicode="Ó"/>
<glyph d="M102 680q0 196 95 363t258.5 257.5t367.5 90.5q201 0 362 -88t251 -245t90 -349q0 -198 -95.5 -369.5t-260 -268t-365.5 -96.5q-196 0 -357.5 92t-253.5 256.5t-92 356.5zM283 692q0 -150 67.5 -282.5t188.5 -210.5t272 -78q147 0 268.5 73.5t194 208t72.5 289.5 q0 151 -66.5 278.5t-189 201t-277.5 73.5q-154 0 -274.5 -73.5t-188 -202.5t-67.5 -277zM485 1548l258 236h142l256 -236l-92 -78l-234 203l-237 -203z" glyph-name="Ocircumflex" horiz-adv-x="1628" unicode="Ô"/>
<glyph d="M102 680q0 196 95 363t258.5 257.5t367.5 90.5q201 0 362 -88t251 -245t90 -349q0 -198 -95.5 -369.5t-260 -268t-365.5 -96.5q-196 0 -357.5 92t-253.5 256.5t-92 356.5zM283 692q0 -150 67.5 -282.5t188.5 -210.5t272 -78q147 0 268.5 73.5t194 208t72.5 289.5 q0 151 -66.5 278.5t-189 201t-277.5 73.5q-154 0 -274.5 -73.5t-188 -202.5t-67.5 -277zM451 1513q0 66 23.5 121.5t71 84t111.5 28.5q93 0 174 -67q47 -40 74 -54t54 -14q41 0 65.5 30.5t24.5 87.5v17h127v-15q0 -108 -55.5 -173.5t-157.5 -65.5q-94 0 -171 68 q-46 40 -71.5 53.5t-52.5 13.5q-42 0 -66 -30t-24 -85v-12h-127v12z" glyph-name="Otilde" horiz-adv-x="1628" unicode="Õ"/>
<glyph d="M102 680q0 196 95 363t258.5 257.5t367.5 90.5q201 0 362 -88t251 -245t90 -349q0 -198 -95.5 -369.5t-260 -268t-365.5 -96.5q-196 0 -357.5 92t-253.5 256.5t-92 356.5zM283 692q0 -150 67.5 -282.5t188.5 -210.5t272 -78q147 0 268.5 73.5t194 208t72.5 289.5 q0 151 -66.5 278.5t-189 201t-277.5 73.5q-154 0 -274.5 -73.5t-188 -202.5t-67.5 -277zM1049 1519q-41 0 -73 30.5t-32 74.5q0 41 31 72.5t74 31.5q45 0 75.5 -31.5t30.5 -72.5q0 -44 -32.5 -74.5t-73.5 -30.5zM580 1519q-43 0 -75 30.5t-32 74.5q0 41 31 72.5t76 31.5 q43 0 73.5 -31.5t30.5 -72.5q0 -44 -32 -74.5t-72 -30.5z" glyph-name="Odieresis" horiz-adv-x="1628" unicode="Ö"/>
<glyph d="M172 977l360 -371l361 371l90 -94l-360 -371l360 -369l-92 -94l-359 369l-358 -369l-92 94l358 369l-358 371z" glyph-name="multiply" unicode="×"/>
<glyph d="M102 680q0 196 95 363t258.5 257.5t367.5 90.5q216 0 381 -99l103 135h135l-150 -196q111 -94 172.5 -229.5t61.5 -292.5q0 -198 -95.5 -369.5t-260 -268t-365.5 -96.5q-220 0 -385 109l-111 -145h-137l160 211q-110 99 -170 235.5t-60 294.5zM1346 692q0 113 -40.5 218 t-117.5 184l-672 -883q129 -90 295 -90q147 0 268.5 73.5t194 208t72.5 289.5zM283 692q0 -111 40 -220t113 -187l668 878q-127 82 -291 82q-153 0 -274 -74t-188.5 -202.5t-67.5 -276.5z" glyph-name="Oslash" horiz-adv-x="1628" unicode="Ø"/>
<glyph d="M182 1366h168v-842q0 -194 100.5 -298.5t286.5 -104.5q183 0 284 103t101 288v854h168v-846q0 -164 -70.5 -288t-196.5 -190.5t-288 -66.5q-265 0 -409 135t-144 382v874zM524 1763l395 -194l-38 -99l-420 146z" glyph-name="Ugrave" horiz-adv-x="1473" unicode="Ù"/>
<glyph d="M182 1366h168v-842q0 -194 100.5 -298.5t286.5 -104.5q183 0 284 103t101 288v854h168v-846q0 -164 -70.5 -288t-196.5 -190.5t-288 -66.5q-265 0 -409 135t-144 382v874zM551 1569l396 194l63 -147l-420 -146z" glyph-name="Uacute" horiz-adv-x="1473" unicode="Ú"/>
<glyph d="M182 1366h168v-842q0 -194 100.5 -298.5t286.5 -104.5q183 0 284 103t101 288v854h168v-846q0 -164 -70.5 -288t-196.5 -190.5t-288 -66.5q-265 0 -409 135t-144 382v874zM407 1548l258 236h142l256 -236l-92 -78l-234 203l-237 -203z" glyph-name="Ucircumflex" horiz-adv-x="1473" unicode="Û"/>
<glyph d="M182 1366h168v-842q0 -194 100.5 -298.5t286.5 -104.5q183 0 284 103t101 288v854h168v-846q0 -164 -70.5 -288t-196.5 -190.5t-288 -66.5q-265 0 -409 135t-144 382v874zM971 1519q-41 0 -73 30.5t-32 74.5q0 41 31 72.5t74 31.5q45 0 75.5 -31.5t30.5 -72.5 q0 -44 -32.5 -74.5t-73.5 -30.5zM502 1519q-43 0 -75 30.5t-32 74.5q0 41 31 72.5t76 31.5q43 0 73.5 -31.5t30.5 -72.5q0 -44 -32 -74.5t-72 -30.5z" glyph-name="Udieresis" horiz-adv-x="1473" unicode="Ü"/>
<glyph d="M506 594l-490 772h199l377 -608l381 608h188l-487 -770v-596h-168v594zM415 1569l396 194l63 -147l-420 -146z" glyph-name="Yacute" horiz-adv-x="1178" unicode="Ý"/>
<glyph d="M201 1366h168v-311h258q222 0 339 -93.5t117 -269.5q0 -185 -120.5 -291t-335.5 -106h-258v-295h-168v1366zM596 436q154 0 230.5 58.5t76.5 183.5q0 120 -77 177.5t-230 57.5h-227v-477h227z" glyph-name="Thorn" horiz-adv-x="1149" unicode="Þ"/>
<glyph d="M57 877l146 55v78q0 219 102.5 339.5t292.5 120.5q103 0 181 -36.5t121.5 -102t43.5 -145.5q0 -53 -22.5 -103.5t-75.5 -118.5q-56 -72 -77 -116t-21 -88q0 -60 40 -114t133 -124q89 -68 131 -135t42 -145q0 -122 -89.5 -194.5t-244.5 -72.5q-76 0 -147.5 20.5 t-120.5 55.5l34 142q46 -37 112 -60.5t126 -23.5q78 0 120 33.5t42 90.5q0 53 -38.5 101.5t-132.5 120.5q-85 65 -128 132.5t-43 147.5q0 60 23 115.5t73 119.5q53 67 74.5 111t21.5 90q0 71 -52.5 115.5t-135.5 44.5q-106 0 -166 -80t-60 -233v-1018h-159v793h-146v84z" glyph-name="germandbls" horiz-adv-x="1157" unicode="ß"/>
<glyph d="M74 207q0 138 140 228.5t413 125.5v35q0 101 -14 136.5t-45.5 55t-92.5 19.5q-67 0 -143.5 -27t-145.5 -75l-49 129q78 52 180.5 82t202.5 30q145 0 205.5 -66t60.5 -227v-415q0 -55 28 -87t75 -36l-53 -129q-167 17 -199 149q-44 -69 -128 -114.5t-177 -45.5 q-115 0 -186.5 64t-71.5 168zM365 115q44 0 85 17t78.5 45t98.5 97v170q-195 -32 -289 -85t-94 -142q0 -54 35 -78t86 -24zM171 1432h174l207 -340l-95 -56z" glyph-name="agrave" horiz-adv-x="961" unicode="à"/>
<glyph d="M74 207q0 138 140 228.5t413 125.5v35q0 101 -14 136.5t-45.5 55t-92.5 19.5q-67 0 -143.5 -27t-145.5 -75l-49 129q78 52 180.5 82t202.5 30q145 0 205.5 -66t60.5 -227v-415q0 -55 28 -87t75 -36l-53 -129q-167 17 -199 149q-44 -69 -128 -114.5t-177 -45.5 q-115 0 -186.5 64t-71.5 168zM365 115q44 0 85 17t78.5 45t98.5 97v170q-195 -32 -289 -85t-94 -142q0 -54 35 -78t86 -24zM375 1092l206 340h175l-287 -396z" glyph-name="aacute" horiz-adv-x="961" unicode="á"/>
<glyph d="M74 207q0 138 140 228.5t413 125.5v35q0 101 -14 136.5t-45.5 55t-92.5 19.5q-67 0 -143.5 -27t-145.5 -75l-49 129q78 52 180.5 82t202.5 30q145 0 205.5 -66t60.5 -227v-415q0 -55 28 -87t75 -36l-53 -129q-167 17 -199 149q-44 -69 -128 -114.5t-177 -45.5 q-115 0 -186.5 64t-71.5 168zM365 115q44 0 85 17t78.5 45t98.5 97v170q-195 -32 -289 -85t-94 -142q0 -54 35 -78t86 -24zM179 1085l230 347h110l230 -347l-101 -51l-184 256l-184 -256z" glyph-name="acircumflex" horiz-adv-x="961" unicode="â"/>
<glyph d="M74 207q0 138 140 228.5t413 125.5v35q0 101 -14 136.5t-45.5 55t-92.5 19.5q-67 0 -143.5 -27t-145.5 -75l-49 129q78 52 180.5 82t202.5 30q145 0 205.5 -66t60.5 -227v-415q0 -55 28 -87t75 -36l-53 -129q-167 17 -199 149q-44 -69 -128 -114.5t-177 -45.5 q-115 0 -186.5 64t-71.5 168zM365 115q44 0 85 17t78.5 45t98.5 97v170q-195 -32 -289 -85t-94 -142q0 -54 35 -78t86 -24zM163 1141q0 108 45.5 173.5t128.5 65.5q86 0 151 -78q43 -53 60 -66t37 -13q61 0 70 131v14h110v-10q0 -68 -21 -128t-61.5 -90t-95.5 -30 q-84 0 -149 79q-46 55 -62 67t-35 12q-31 0 -49 -35.5t-18 -93.5v-9h-111v11z" glyph-name="atilde" horiz-adv-x="961" unicode="ã"/>
<glyph d="M74 207q0 138 140 228.5t413 125.5v35q0 101 -14 136.5t-45.5 55t-92.5 19.5q-67 0 -143.5 -27t-145.5 -75l-49 129q78 52 180.5 82t202.5 30q145 0 205.5 -66t60.5 -227v-415q0 -55 28 -87t75 -36l-53 -129q-167 17 -199 149q-44 -69 -128 -114.5t-177 -45.5 q-115 0 -186.5 64t-71.5 168zM365 115q44 0 85 17t78.5 45t98.5 97v170q-195 -32 -289 -85t-94 -142q0 -54 35 -78t86 -24zM646 1161q-43 0 -73.5 31.5t-30.5 73.5q0 41 31 72.5t73 31.5q46 0 76.5 -31t30.5 -73q0 -43 -31 -74t-76 -31zM280 1161q-46 0 -76.5 31t-30.5 74 q0 41 31 72.5t76 31.5q43 0 73.5 -31.5t30.5 -72.5q0 -43 -31 -74t-73 -31z" glyph-name="adieresis" horiz-adv-x="961" unicode="ä"/>
<glyph d="M74 207q0 138 140 228.5t413 125.5v35q0 101 -14 136.5t-45.5 55t-92.5 19.5q-67 0 -143.5 -27t-145.5 -75l-49 129q78 52 180.5 82t202.5 30q145 0 205.5 -66t60.5 -227v-415q0 -55 28 -87t75 -36l-53 -129q-167 17 -199 149q-44 -69 -128 -114.5t-177 -45.5 q-115 0 -186.5 64t-71.5 168zM365 115q44 0 85 17t78.5 45t98.5 97v170q-195 -32 -289 -85t-94 -142q0 -54 35 -78t86 -24zM464 1098q-86 0 -137 48.5t-51 123.5q0 74 51 120t137 46t137.5 -46t51.5 -120q0 -76 -52 -124t-137 -48zM464 1178q44 0 70 25t26 65q0 41 -26 64.5 t-70 23.5q-46 0 -70 -23.5t-24 -64.5q0 -38 23.5 -64t70.5 -26z" glyph-name="aring" horiz-adv-x="961" unicode="å"/>
<glyph d="M137 834q77 51 178 81.5t201 30.5q102 0 163 -33t87 -106q122 139 311 139q166 0 266.5 -110t100.5 -295l-98 -29l-545 -72q8 -145 91 -235t214 -90q72 0 147.5 30t137.5 82l57 -116q-66 -62 -163 -99t-198 -37q-133 0 -229.5 58t-150.5 164q-47 -102 -141 -162t-206 -60 q-123 0 -204.5 65t-81.5 167q0 129 145 218.5t428 121.5v49q0 101 -14 137.5t-46.5 55t-92.5 18.5q-71 0 -153 -27.5t-155 -74.5zM381 115q120 0 189 83.5t69 229.5q-201 -29 -298 -80.5t-97 -130.5q0 -49 36 -75.5t101 -26.5zM1061 813q-99 0 -167 -66.5t-87 -183.5l461 60 q-11 83 -64 136.5t-143 53.5z" glyph-name="ae" horiz-adv-x="1538" unicode="æ"/>
<glyph d="M391 -152q0 25 13 55l36 83q-157 33 -253.5 159.5t-96.5 305.5q0 133 60.5 248.5t168 181t242.5 65.5q88 0 168.5 -27.5t132.5 -72.5l-71 -125q-47 39 -112 62.5t-128 23.5q-129 0 -211 -97.5t-82 -250.5q0 -150 82.5 -247t216.5 -97q69 0 136 27.5t114 70.5l55 -119 q-53 -55 -138.5 -87t-178.5 -32h-6q-29 -50 -29 -79q0 -19 20.5 -35t66.5 -37q87 -42 87 -121q0 -76 -66 -133t-161 -57q-50 0 -101 17t-90 46l43 100q30 -26 70 -41.5t74 -15.5q45 0 74.5 20t29.5 48q0 36 -83 72q-83 35 -83 89z" glyph-name="ccedilla" horiz-adv-x="934" unicode="ç"/>
<glyph d="M92 440q0 143 55.5 259t158 181.5t229.5 65.5q168 0 268 -111t100 -300l-98 -29l-543 -72q10 -147 92 -233t213 -86q70 0 147 31t142 85l47 -122q-63 -60 -157.5 -97t-196.5 -37q-137 0 -241 60t-160 166.5t-56 238.5zM524 813q-102 0 -171.5 -69t-88.5 -187l463 59 q-10 82 -62.5 139.5t-140.5 57.5zM223 1432h174l207 -340l-95 -56z" glyph-name="egrave" horiz-adv-x="997" unicode="è"/>
<glyph d="M92 440q0 143 55.5 259t158 181.5t229.5 65.5q168 0 268 -111t100 -300l-98 -29l-543 -72q10 -147 92 -233t213 -86q70 0 147 31t142 85l47 -122q-63 -60 -157.5 -97t-196.5 -37q-137 0 -241 60t-160 166.5t-56 238.5zM524 813q-102 0 -171.5 -69t-88.5 -187l463 59 q-10 82 -62.5 139.5t-140.5 57.5zM426 1092l206 340h175l-287 -396z" glyph-name="eacute" horiz-adv-x="997" unicode="é"/>
<glyph d="M92 440q0 143 55.5 259t158 181.5t229.5 65.5q168 0 268 -111t100 -300l-98 -29l-543 -72q10 -147 92 -233t213 -86q70 0 147 31t142 85l47 -122q-63 -60 -157.5 -97t-196.5 -37q-137 0 -241 60t-160 166.5t-56 238.5zM524 813q-102 0 -171.5 -69t-88.5 -187l463 59 q-10 82 -62.5 139.5t-140.5 57.5zM230 1085l230 347h110l230 -347l-101 -51l-184 256l-184 -256z" glyph-name="ecircumflex" horiz-adv-x="997" unicode="ê"/>
<glyph d="M92 440q0 143 55.5 259t158 181.5t229.5 65.5q168 0 268 -111t100 -300l-98 -29l-543 -72q10 -147 92 -233t213 -86q70 0 147 31t142 85l47 -122q-63 -60 -157.5 -97t-196.5 -37q-137 0 -241 60t-160 166.5t-56 238.5zM524 813q-102 0 -171.5 -69t-88.5 -187l463 59 q-10 82 -62.5 139.5t-140.5 57.5zM697 1161q-43 0 -73.5 31.5t-30.5 73.5q0 41 31 72.5t73 31.5q46 0 76.5 -31t30.5 -73q0 -43 -31 -74t-76 -31zM331 1161q-46 0 -76.5 31t-30.5 74q0 41 31 72.5t76 31.5q43 0 73.5 -31.5t30.5 -72.5q0 -43 -31 -74t-73 -31z" glyph-name="edieresis" horiz-adv-x="997" unicode="ë"/>
<glyph d="M156 922h159v-922h-159v922zM-56 1432h174l207 -340l-95 -56z" glyph-name="igrave" horiz-adv-x="471" unicode="ì"/>
<glyph d="M156 922h159v-922h-159v922zM149 1092l206 340h175l-287 -396z" glyph-name="iacute" horiz-adv-x="471" unicode="í"/>
<glyph d="M156 922h159v-922h-159v922zM-49 1085l230 347h110l230 -347l-101 -51l-184 256l-184 -256z" glyph-name="icircumflex" horiz-adv-x="471" unicode="î"/>
<glyph d="M156 922h159v-922h-159v922zM418 1161q-43 0 -73.5 31.5t-30.5 73.5q0 41 31 72.5t73 31.5q46 0 76.5 -31t30.5 -73q0 -43 -31 -74t-76 -31zM52 1161q-46 0 -76.5 31t-30.5 74q0 41 31 72.5t76 31.5q43 0 73.5 -31.5t30.5 -72.5q0 -43 -31 -74t-73 -31z" glyph-name="idieresis" horiz-adv-x="471" unicode="ï"/>
<glyph d="M236 1137l215 131q-131 81 -281 123l35 125q218 -44 385 -164l282 172l58 -103l-244 -147q148 -138 226.5 -318.5t78.5 -382.5q0 -271 -126 -434.5t-343 -163.5q-125 0 -223.5 64t-153.5 173.5t-55 236.5q0 131 59.5 246.5t163 183t224.5 67.5q77 0 144 -24t103 -64 q-75 200 -231 334l-258 -158zM258 465q0 -94 34.5 -175t96.5 -128t143 -47q140 0 218.5 117t78.5 331q0 117 -64.5 180.5t-186.5 63.5q-143 0 -231.5 -96.5t-88.5 -245.5z" glyph-name="eth" horiz-adv-x="1104" unicode="ð"/>
<glyph d="M152 907l159 29v-180q87 91 186 140.5t195 49.5q116 0 179 -71t63 -205v-670h-160v625q0 180 -125 180q-65 0 -158.5 -55.5t-179.5 -141.5v-608h-159v907zM250 1141q0 108 45.5 173.5t128.5 65.5q86 0 151 -78q43 -53 60 -66t37 -13q61 0 70 131v14h110v-10 q0 -68 -21 -128t-61.5 -90t-95.5 -30q-84 0 -149 79q-46 55 -62 67t-35 12q-31 0 -49 -35.5t-18 -93.5v-9h-111v11z" glyph-name="ntilde" horiz-adv-x="1079" unicode="ñ"/>
<glyph d="M90 457q0 129 58.5 243.5t162.5 180t238 65.5q130 0 232.5 -61t161 -170t58.5 -236q0 -135 -62.5 -255.5t-165.5 -184.5t-232 -64t-232 63.5t-161 176t-58 242.5zM258 475q0 -160 78.5 -260t210.5 -100q128 0 207.5 93t79.5 245q0 160 -77.5 257t-211.5 97 q-129 0 -208 -90.5t-79 -241.5zM253 1432h174l207 -340l-95 -56z" glyph-name="ograve" horiz-adv-x="1092" unicode="ò"/>
<glyph d="M90 457q0 129 58.5 243.5t162.5 180t238 65.5q130 0 232.5 -61t161 -170t58.5 -236q0 -135 -62.5 -255.5t-165.5 -184.5t-232 -64t-232 63.5t-161 176t-58 242.5zM258 475q0 -160 78.5 -260t210.5 -100q128 0 207.5 93t79.5 245q0 160 -77.5 257t-211.5 97 q-129 0 -208 -90.5t-79 -241.5zM457 1092l206 340h175l-287 -396z" glyph-name="oacute" horiz-adv-x="1092" unicode="ó"/>
<glyph d="M90 457q0 129 58.5 243.5t162.5 180t238 65.5q130 0 232.5 -61t161 -170t58.5 -236q0 -135 -62.5 -255.5t-165.5 -184.5t-232 -64t-232 63.5t-161 176t-58 242.5zM258 475q0 -160 78.5 -260t210.5 -100q128 0 207.5 93t79.5 245q0 160 -77.5 257t-211.5 97 q-129 0 -208 -90.5t-79 -241.5zM260 1085l230 347h110l230 -347l-101 -51l-184 256l-184 -256z" glyph-name="ocircumflex" horiz-adv-x="1092" unicode="ô"/>
<glyph d="M90 457q0 129 58.5 243.5t162.5 180t238 65.5q130 0 232.5 -61t161 -170t58.5 -236q0 -135 -62.5 -255.5t-165.5 -184.5t-232 -64t-232 63.5t-161 176t-58 242.5zM258 475q0 -160 78.5 -260t210.5 -100q128 0 207.5 93t79.5 245q0 160 -77.5 257t-211.5 97 q-129 0 -208 -90.5t-79 -241.5zM244 1141q0 108 45.5 173.5t128.5 65.5q86 0 151 -78q43 -53 60 -66t37 -13q61 0 70 131v14h110v-10q0 -68 -21 -128t-61.5 -90t-95.5 -30q-84 0 -149 79q-46 55 -62 67t-35 12q-31 0 -49 -35.5t-18 -93.5v-9h-111v11z" glyph-name="otilde" horiz-adv-x="1092" unicode="õ"/>
<glyph d="M90 457q0 129 58.5 243.5t162.5 180t238 65.5q130 0 232.5 -61t161 -170t58.5 -236q0 -135 -62.5 -255.5t-165.5 -184.5t-232 -64t-232 63.5t-161 176t-58 242.5zM258 475q0 -160 78.5 -260t210.5 -100q128 0 207.5 93t79.5 245q0 160 -77.5 257t-211.5 97 q-129 0 -208 -90.5t-79 -241.5zM727 1161q-43 0 -73.5 31.5t-30.5 73.5q0 41 31 72.5t73 31.5q46 0 76.5 -31t30.5 -73q0 -43 -31 -74t-76 -31zM361 1161q-46 0 -76.5 31t-30.5 74q0 41 31 72.5t76 31.5q43 0 73.5 -31.5t30.5 -72.5q0 -43 -31 -74t-73 -31z" glyph-name="odieresis" horiz-adv-x="1092" unicode="ö"/>
<glyph d="M532 782q-50 0 -86 36t-36 87q0 50 35 86.5t87 36.5q51 0 87 -36t36 -87q0 -53 -38 -88t-85 -35zM74 580h917v-134h-917v134zM410 121q0 52 36.5 87.5t85.5 35.5q48 0 85.5 -35t37.5 -88q0 -51 -36 -87t-87 -36q-52 0 -87 36.5t-35 86.5z" glyph-name="divide" unicode="÷"/>
<glyph d="M90 457q0 129 58.5 243.5t162.5 180t238 65.5q136 0 244 -69l79 106h127l-127 -172q62 -66 95.5 -152.5t33.5 -179.5q0 -135 -62.5 -255.5t-165.5 -184.5t-232 -64q-134 0 -240 68l-78 -104h-129l127 170q-65 69 -98 160t-33 188zM834 453q0 129 -58 229l-387 -520 q68 -47 158 -47q128 0 207.5 93t79.5 245zM258 475q0 -142 61 -235l386 518q-66 49 -160 49q-129 0 -208 -90.5t-79 -241.5z" glyph-name="oslash" horiz-adv-x="1092" unicode="ø"/>
<glyph d="M145 922h160v-625q0 -180 131 -180q65 0 146 44t165 128v633h160v-637q0 -114 41 -285l-158 -14q-20 81 -30 168q-77 -84 -174.5 -131.5t-190.5 -47.5q-250 0 -250 277v670zM237 1432h174l207 -340l-95 -56z" glyph-name="ugrave" horiz-adv-x="1067" unicode="ù"/>
<glyph d="M145 922h160v-625q0 -180 131 -180q65 0 146 44t165 128v633h160v-637q0 -114 41 -285l-158 -14q-20 81 -30 168q-77 -84 -174.5 -131.5t-190.5 -47.5q-250 0 -250 277v670zM441 1092l206 340h175l-287 -396z" glyph-name="uacute" horiz-adv-x="1067" unicode="ú"/>
<glyph d="M145 922h160v-625q0 -180 131 -180q65 0 146 44t165 128v633h160v-637q0 -114 41 -285l-158 -14q-20 81 -30 168q-77 -84 -174.5 -131.5t-190.5 -47.5q-250 0 -250 277v670zM243 1085l230 347h110l230 -347l-101 -51l-184 256l-184 -256z" glyph-name="ucircumflex" horiz-adv-x="1067" unicode="û"/>
<glyph d="M145 922h160v-625q0 -180 131 -180q65 0 146 44t165 128v633h160v-637q0 -114 41 -285l-158 -14q-20 81 -30 168q-77 -84 -174.5 -131.5t-190.5 -47.5q-250 0 -250 277v670zM710 1161q-43 0 -73.5 31.5t-30.5 73.5q0 41 31 72.5t73 31.5q46 0 76.5 -31t30.5 -73 q0 -43 -31 -74t-76 -31zM344 1161q-46 0 -76.5 31t-30.5 74q0 41 31 72.5t76 31.5q43 0 73.5 -31.5t30.5 -72.5q0 -43 -31 -74t-73 -31z" glyph-name="udieresis" horiz-adv-x="1067" unicode="ü"/>
<glyph d="M43 -352q180 36 289 282l59 138l-358 854h174l268 -652l260 652h168l-411 -992q-64 -149 -120.5 -228.5t-125.5 -128t-152 -58.5zM390 1092l206 340h175l-287 -396z" glyph-name="yacute" horiz-adv-x="936" unicode="ý"/>
<glyph d="M156 1434l159 28v-663q42 69 115 108t164 39q173 0 282 -128.5t109 -332.5q0 -142 -59.5 -260t-168.5 -184t-245 -66q-129 0 -197 56v-477l-159 -29v1909zM315 231q0 -116 172 -116q155 0 241.5 96t86.5 264q0 151 -66.5 239.5t-175.5 88.5q-66 0 -131 -38t-127 -120 v-414z" glyph-name="thorn" horiz-adv-x="1077" unicode="þ"/>
<glyph d="M-293 0l813 1407l117 -43l-784 -1364h-146z" glyph-name="fraction" horiz-adv-x="344" unicode="⁄"/>
<glyph d="M420 985h-377l-10 80l397 539h125v-510h123v-109h-123v-215h-135v215zM420 1094v325l-242 -325h242z" glyph-name="uni2074" horiz-adv-x="729" unicode="⁴"/>
<glyph d="M233 592q-83 0 -133.5 44.5t-50.5 119.5q0 102 100 167t289 91v22q0 57 -9 81t-31 36t-58 12q-49 0 -106 -22.5t-105 -59.5l-35 111q60 37 134.5 57.5t148.5 20.5q110 0 154 -47t44 -158v-283q0 -38 20 -58.5t54 -20.5l-41 -107q-131 3 -159 100q-41 -51 -97.5 -78.5 t-118.5 -27.5zM266 698q39 0 76.5 22.5t95.5 90.5v109q-128 -23 -185.5 -60t-57.5 -94q0 -68 71 -68z" glyph-name="uniE361" horiz-adv-x="694" unicode=""/>
<glyph d="M389 592q-95 0 -170.5 44.5t-117.5 123t-42 170.5q0 91 42.5 170.5t119 125.5t174.5 46q95 0 170 -43t117.5 -119t42.5 -166q0 -91 -43 -173t-119.5 -130.5t-173.5 -48.5zM393 698q85 0 137 63.5t52 164.5q0 106 -51.5 172.5t-139.5 66.5q-86 0 -137 -61t-51 -162 q0 -110 51 -177t139 -67z" glyph-name="uniE36E" horiz-adv-x="784" unicode=""/>
</font>
</defs>
</svg>
