<svg width="16" height="18" viewBox="0 0 16 18" fill="none" xmlns="http://www.w3.org/2000/svg">
<path d="M15.4324 3.96606H1.12294C0.821129 3.96606 0.590332 4.19686 0.590332 4.49867C0.590332 4.80049 0.821129 5.03128 1.12294 5.03128H1.93961L3.30664 15.9143C3.41316 16.7132 4.0878 17.3168 4.90447 17.3168H11.6864C12.503 17.3168 13.1777 16.7132 13.2842 15.9143L14.6512 5.03128H15.4679C15.7697 5.03128 16.0005 4.80049 16.0005 4.49867C16.0005 4.19686 15.7342 3.96606 15.4324 3.96606ZM5.75664 14.9556C5.73889 14.9556 5.72113 14.9556 5.72113 14.9556C5.47258 14.9556 5.25954 14.7603 5.24178 14.5117L4.63816 7.35701C4.62041 7.0907 4.8157 6.85991 5.082 6.84215C5.34831 6.8244 5.5791 7.01969 5.59686 7.28599L6.20048 14.4407C6.21823 14.707 6.02294 14.9378 5.75664 14.9556ZM8.757 14.4762C8.757 14.7425 8.54396 14.9556 8.27766 14.9556C8.01135 14.9556 7.79831 14.7425 7.79831 14.4762V7.3215C7.79831 7.0552 8.01135 6.84215 8.27766 6.84215C8.54396 6.84215 8.757 7.0552 8.757 7.3215V14.4762ZM11.3135 14.5117C11.2958 14.7603 11.0827 14.9556 10.8342 14.9556C10.8164 14.9556 10.7987 14.9556 10.7987 14.9556C10.5324 14.9378 10.3371 14.707 10.3548 14.4407L10.9585 7.28599C10.9762 7.01969 11.207 6.8244 11.4733 6.84215C11.7396 6.85991 11.9349 7.0907 11.9172 7.35701L11.3135 14.5117Z" fill="#898989"/>
<path d="M1.12294 3.23842H15.4501C15.7519 3.23842 15.9827 3.00763 15.9827 2.70582C15.9827 2.404 15.7519 2.17321 15.4501 2.17321H10.3193V1.96016C10.3193 1.12574 9.64469 0.43335 8.79251 0.43335H7.7628C6.92838 0.43335 6.23599 1.10799 6.23599 1.96016V2.17321H1.12294C0.821129 2.17321 0.590332 2.404 0.590332 2.70582C0.590332 3.00763 0.821129 3.23842 1.12294 3.23842ZM7.30121 1.97792C7.30121 1.72937 7.4965 1.53408 7.74505 1.53408H8.77476C9.02331 1.53408 9.2186 1.72937 9.2186 1.97792V2.19096H7.30121V1.97792Z" fill="#898989"/>
</svg>
