<svg xmlns="http://www.w3.org/2000/svg" width="220" height="220" viewBox="0 0 220 220" fill="none"><path d="M101.105 30.1181C103.549 28.2913 106.739 27.8395 109.717 27.9798C111.86 28.1622 114.136 28.6393 115.786 30.1181C118.112 32.1497 118.893 35.6574 117.927 38.5477C117.405 40.1977 116.14 41.4745 114.745 42.4398C121.123 43.5763 127.297 46.8089 131.217 52.062C133.9 55.564 135.359 60.124 134.629 64.5268C134.152 67.9502 132.449 71.0762 130.311 73.7449C130.294 74.2865 130.28 74.828 130.266 75.3696C131.905 74.5081 133.72 73.9974 135.581 73.9946C134.065 75.3079 132.079 75.74 130.238 76.3686C129.553 82.0566 128.885 87.8653 126.688 93.2194C125.479 96.1405 123.708 98.7867 121.819 101.309C120.127 103.56 118.006 105.592 115.379 106.7C113.376 107.553 111.061 107.859 108.962 107.16C106.15 106.212 103.509 104.699 101.332 102.682C97.8439 98.8232 95.1584 94.2773 93.1436 89.4928C92.3859 87.4444 91.4824 85.4155 91.2046 83.2324C91.951 84.9188 92.4252 86.7064 93.1436 88.4041C94.4765 91.5778 96.1798 94.5916 98.1329 97.4201C99.9765 99.8502 101.806 102.454 104.542 103.953C106.506 105.044 108.56 106.161 110.828 106.417C114.293 106.588 117.459 104.522 119.617 101.958C122.959 97.928 125.619 93.239 126.767 88.0954C127.642 84.4166 128.2 80.6648 128.422 76.8933C127.768 77.0842 127.12 77.2862 126.469 77.4798C125.888 79.6293 124.881 81.8602 122.959 83.1257C121.39 84.1837 119.398 84.1752 117.585 84.0405C115.896 83.8497 114.058 83.0472 113.401 81.3523C114.417 82.4663 115.738 83.4035 117.287 83.5046C118.968 83.5831 120.801 83.6729 122.288 82.7357C124.05 81.5711 125.052 79.5423 125.422 77.5107C123.584 77.0449 121.69 77.4237 119.827 77.3844C117.613 77.3592 115.402 77.3928 113.191 77.4742C115.525 76.7811 117.975 76.5931 120.397 76.436C121.985 76.4191 123.604 76.0206 125.175 76.4135C125.714 76.5005 126.029 76.9831 126.41 77.3199C127.154 76.927 127.892 76.5229 128.624 76.1048C127.987 75.9533 127.305 75.9533 126.724 75.625C122.072 73.0742 118.595 68.7612 116.412 63.9796C113.763 66.9653 110.634 69.5245 107.157 71.4859C102.92 73.801 98.3995 75.5689 93.7638 76.899C92.5655 77.2609 91.0979 77.202 90.2421 76.1722C89.0467 75.4314 88.6678 73.9806 88.2862 72.7178C87.2704 68.9773 87.8232 65.0291 88.9007 61.3671C90.4189 56.0186 92.9808 50.7543 97.249 47.0643C99.2497 45.3357 101.615 44.0814 104.113 43.2367C103.636 42.9589 103.164 42.6755 102.693 42.3921C103.083 41.8561 103.476 41.3257 103.855 40.7842C101.815 39.7655 99.6931 38.3456 98.9579 36.0671C98.1694 33.8839 99.3143 31.437 101.105 30.1181Z" fill="black"></path><path d="M93.3626 77.9795C95.9386 76.6213 98.986 76.9047 101.787 77.09C99.3508 77.4884 96.7524 77.4267 94.485 78.5155C93.7666 78.7933 93.9883 79.7109 94.2942 80.2356C95.195 81.6471 96.5447 82.705 97.9141 83.6366C101.918 86.2014 108.648 84.2287 109.31 79.0655C109.722 81.0887 108.375 82.7611 106.888 83.8527C104.784 85.2642 102.07 85.8226 99.6006 85.1968C97.6587 84.7759 96.0424 83.5188 94.5888 82.228C93.4299 81.1813 92.4562 79.4948 93.3626 77.9795Z" fill="black"></path><path d="M86.4175 77.7322C87.554 76.91 89.0777 76.8006 90.3489 77.3646C91.1767 77.8164 91.9624 78.3131 92.7734 78.807C92.1925 78.6639 91.0336 78.3804 90.4527 78.2373L90.4583 79.1802C90.332 78.9389 90.0795 78.4562 89.9504 78.2149C88.7634 78.1307 87.5624 78.097 86.4175 77.7322Z" fill="black"></path><path d="M98.8765 80.4402C99.6145 79.9435 100.378 79.3738 101.295 79.2924C103.088 79.1521 104.789 80.0445 106.214 81.0379C105.252 80.7095 104.278 80.4486 103.29 80.2521C103.119 80.847 102.923 81.5738 102.207 81.6861C101.408 81.9499 100.967 80.9902 100.67 80.4261C100.072 80.4317 99.4742 80.4458 98.8765 80.4402Z" fill="black"></path><path d="M114.75 81.083C115.323 80.0812 116.487 79.6435 117.582 79.5537C119.243 79.3825 120.885 79.9606 122.341 80.7126C121.755 80.62 120.584 80.4292 119.998 80.3366C119.852 80.7266 119.706 81.1167 119.563 81.5095C118.811 81.5685 118.056 81.5797 117.307 81.5348C117.141 81.2738 116.979 81.0157 116.816 80.7575C116.128 80.8866 115.438 81.0016 114.75 81.083Z" fill="black"></path><path d="M112.559 97.4536C113.718 97.2123 114.883 96.9681 116.072 96.9737C115.32 97.5265 114.523 98.0709 113.6 98.2842C111.451 98.6714 109.287 98.0625 107.264 97.3806C109.015 97.5293 110.811 97.8212 112.559 97.4536Z" fill="black"></path><path d="M122.776 100.863C122.866 100.543 123.11 100.311 123.363 100.111C121.898 103.658 122.173 107.907 124.269 111.148C125.406 112.991 127.103 114.473 129.087 115.34C132.028 116.743 135.303 117.156 138.392 118.118C140.755 118.867 143.053 119.998 144.815 121.777C146.623 123.509 147.899 125.692 149.086 127.872C151.747 132.884 153.234 138.421 154.295 143.965C155.431 149.999 156.363 156.077 156.84 162.2C157.036 164.066 157.134 165.951 156.994 167.829C157.05 167.377 157.112 166.928 157.179 166.482C157.395 172.159 157.69 177.833 157.653 183.515C157.614 185.836 157.766 188.167 157.48 190.48C157.336 189.938 157.252 189.383 157.162 188.838C155.863 175.054 154.842 161.237 152.967 147.515C151.985 141.058 150.764 134.517 147.812 128.63C146.241 125.38 144.125 122.153 140.85 120.416C137.222 118.505 133.038 118.09 129.314 116.418C126.177 119.692 121.516 121.345 117.018 121.143C110.233 121.081 103.846 118.225 98.1609 114.728C94.7178 115.823 91.2185 116.726 87.7895 117.866C84.9581 118.831 82.1155 120.228 80.2859 122.684C78.3384 125.299 77.6818 128.585 77.0673 131.717C75.1086 143.668 73.4642 155.675 70.9948 167.537C70.1979 171.85 69.2354 176.129 68.2981 180.414C67.9053 182.014 67.6359 183.652 66.9961 185.179C67.1673 181.133 67.9025 177.128 68.3851 173.11C68.8201 169.742 69.3308 166.386 69.8696 163.036C70.0492 162.129 69.8696 161.206 69.9958 160.303C70.0828 160.631 70.1333 160.971 70.1979 161.31C70.5374 157.926 71.2221 154.589 71.831 151.247C72.7178 145.812 73.8907 140.427 74.8448 135.003C75.5884 131.265 76.1188 127.392 77.9035 123.972C78.8997 121.988 80.429 120.271 82.3231 119.109C84.6803 117.582 87.4134 116.822 90.1017 116.112C92.4841 115.509 94.8665 114.9 97.2293 114.221C96.8673 113.92 96.5081 113.617 96.1629 113.303C96.7859 113.508 97.3864 113.772 97.9785 114.052C99.0729 113.699 100.406 113.222 100.731 111.973C101.068 110.505 100.838 108.979 101.012 107.489C101.183 105.94 100.917 104.357 101.281 102.83C101.511 104.654 101.332 106.498 101.45 108.33C101.422 109.821 101.674 111.417 101.023 112.815C100.619 113.707 99.6706 114.105 98.8596 114.532C103.349 116.687 108.089 118.528 113.067 119.1C118.3 119.44 123.767 118.581 128.38 115.997C125.307 114.307 122.95 111.285 122.31 107.809C121.772 105.51 121.988 103.077 122.776 100.863Z" fill="black"></path><path d="M125.728 126.708C130.271 126.36 134.82 125.751 139.383 125.855C137.483 126.621 135.437 126.901 133.451 127.353C126.755 128.793 119.933 129.609 113.092 129.904C105.044 130.285 96.9373 130.311 88.9455 129.169C85.8166 128.717 82.6149 128.411 79.6348 127.311C81.4335 127.418 83.1901 127.855 84.9804 128.035C91.1286 128.874 97.3442 128.779 103.535 128.703C110.974 128.576 118.32 127.28 125.728 126.708Z" fill="black"></path><path d="M96.2082 140C103.316 139.332 110.444 138.852 117.582 138.698C122.165 138.659 126.747 138.667 131.33 138.695C132.848 138.721 134.512 138.875 135.702 139.924C136.796 140.856 137.141 142.34 137.304 143.707C138.732 154.626 139.055 165.659 138.676 176.659C138.569 176.671 138.353 176.69 138.247 176.701C138.084 171.401 137.632 166.111 137.172 160.827C137.02 158.84 136.625 156.859 136.79 154.861C136.743 155.257 136.695 155.655 136.647 156.057C136.322 151.803 135.657 147.591 135.095 143.365C134.964 142.52 134.641 141.529 133.734 141.249C131.776 140.657 129.688 140.856 127.67 140.735C118.494 140.587 109.299 140.466 100.14 141.123C97.3503 141.336 94.4431 141.246 91.8138 142.338C90.06 143.067 88.8421 144.824 88.8197 146.729C88.1715 158.206 88.3707 169.731 89.2883 181.186C89.1957 181.152 89.0133 181.079 88.9235 181.045C88.3735 174.022 87.6411 166.998 87.6355 159.946C87.397 155.355 87.3885 150.745 87.6776 146.157C87.7758 144.428 88.7018 142.753 90.1526 141.799C91.9317 140.592 94.112 140.219 96.2082 140Z" fill="black"></path><path d="M147.304 141.79C148.41 141.4 149.575 141.762 150.68 141.964C150.523 142.994 149.392 143.382 148.55 143.718C146.165 144.142 143.718 144.1 141.305 143.996C143.224 143.056 145.287 142.47 147.304 141.79Z" fill="black"></path><path d="M75.74 145.621C78.1168 146.059 80.2999 147.229 82.702 147.583C84.4642 147.818 86.1002 148.677 87.3882 149.886C85.5698 150.47 83.5663 150.262 81.8854 149.362C79.7331 148.304 77.5612 147.207 75.74 145.621Z" fill="black"></path><path d="M113.463 155.639C114.145 154.822 115.051 154.112 116.159 154.079C117.33 153.908 118.519 154.825 118.547 156.029C118.618 157.659 116.735 158.456 116.552 159.994C117.215 161.139 118.651 160.443 119.659 160.291C119.746 161.288 119.92 162.41 119.277 163.274C118.225 164.806 116.277 165.396 114.507 165.544C112.147 165.732 109.45 164.734 108.459 162.435C107.598 160.146 108.12 157.132 110.289 155.748C111.237 155.097 112.444 155.291 113.463 155.639ZM114.044 155.344C114.035 155.558 114.021 155.981 114.016 156.195C113.019 155.656 111.765 155.221 110.716 155.886C108.148 157.446 107.758 161.605 110.093 163.552C111.877 165 114.462 165.079 116.524 164.209C117.655 163.793 118.508 162.862 118.859 161.714C118.253 161.714 117.641 161.776 117.041 161.683C115.884 161.473 115.102 160.081 115.668 159.012C116.227 157.951 117.195 157.174 117.731 156.096C117.596 155.757 117.461 155.42 117.332 155.083C116.263 154.486 115.051 154.789 114.044 155.344Z" fill="black"></path><path d="M145.452 158.363C146.62 157.603 148.118 157.656 149.381 158.139C148.587 159.009 147.717 159.968 146.491 160.17C144.56 160.488 142.713 161.161 140.786 161.473C142.135 160.151 143.858 159.334 145.452 158.363Z" fill="black"></path><path d="M73.2957 159.054C75.7482 158.91 78.1839 159.359 80.5972 159.758C82.149 160.005 83.5997 160.892 84.4388 162.236C82.8449 162.429 81.1752 162.351 79.7217 161.607C77.6479 160.583 75.3582 160.095 73.2957 159.054Z" fill="black"></path><path d="M71.9211 169.756C73.675 169.574 75.4204 169.88 77.1714 169.93C78.3808 169.944 79.4977 170.71 80.0449 171.774C78.9926 172.113 77.814 172.408 76.7477 171.956C75.1229 171.257 73.4196 170.713 71.9211 169.756Z" fill="black"></path><path d="M149.114 173.199C150.641 172.731 152.235 173.067 153.741 173.443C153.43 174.26 152.526 174.535 151.786 174.827C150.453 175.349 149.002 175.194 147.607 175.208C145.848 175.183 144.083 175.293 142.334 175.062C144.481 174.083 146.864 173.845 149.114 173.199Z" fill="black"></path><path d="M125.77 179.384C127.984 179.106 130.223 179.204 132.446 179.011C134.447 178.929 136.456 178.677 138.462 178.865C131.545 179.957 124.561 180.745 117.554 180.905C108.263 181.256 98.9548 181.256 89.6665 180.863C92.2173 180.448 94.8045 180.967 97.3693 180.683C104.483 180.523 111.605 180.363 118.701 179.788C119.737 179.724 120.772 179.693 121.811 179.642C123.121 179.451 124.448 179.443 125.77 179.384Z" fill="black"></path><path d="M126.278 182.325C130.328 182.241 134.383 182.047 138.432 182.204C135 182.911 131.475 182.939 128.004 183.31C126.245 183.386 124.488 183.444 122.734 183.599C111.532 183.812 100.322 184.25 89.1226 183.958C92.7144 183.638 96.3315 183.745 99.9317 183.548C102.519 183.279 105.131 183.501 107.713 183.178C113.909 183.063 120.085 182.485 126.278 182.325Z" fill="black"></path></svg>