<svg xmlns="http://www.w3.org/2000/svg" width="140" height="140" viewBox="0 0 140 140" fill="none"><g clip-path="url(#clip0)"><path d="M49.0682 0.0175682C60.851 -0.13462 72.6101 0.744692 84.3895 1.00849C89.2967 1.30272 94.2141 1.43123 99.1281 1.60709C104.191 1.68826 109.247 2.08057 114.313 1.88103C113.955 2.22261 113.677 2.63183 113.458 3.07149C114.462 3.10192 115.47 3.09178 116.474 3.15942C116.799 22.1289 117.316 41.2336 121.087 59.8919C122.755 67.8937 124.517 76.122 123.302 84.3199C122.606 87.5429 122.836 90.8708 122.237 94.1107C121.185 100.57 119.572 107.125 116.055 112.728C111.222 119.851 104.593 125.533 97.6401 130.507C95.7191 131.911 93.4667 132.746 91.2177 133.453C86.74 134.813 82.1337 135.712 77.5106 136.409C75.823 136.669 74.1049 136.734 72.441 137.119C66.6274 138.861 60.523 139.267 54.4861 139.395C45.4766 139.825 36.4603 140.089 27.4473 140.45C24.3021 140.505 20.6868 140.072 18.5696 137.461C16.3544 134.701 16.4999 130.967 16.2631 127.629C14.9273 101.889 19.6958 76.4162 21.5052 50.8249C22.1985 40.8244 22.3676 30.7698 21.5458 20.7761C21.3226 16.623 20.3046 12.4869 20.7984 8.31353C21.0486 6.39934 22.1139 4.56632 23.788 3.55849C26.0235 2.20908 28.6479 1.76943 31.1911 1.40079C37.1028 0.457223 43.0957 0.257688 49.0682 0.0175682ZM30.8157 2.14483C28.3368 2.52699 25.7259 2.91253 23.6223 4.39045C22.0564 5.48283 21.3124 7.39364 21.1839 9.24358C20.8457 13.6672 21.8772 18.0299 21.982 22.44C22.814 32.011 22.3946 41.6158 21.8907 51.1901C20.423 76.308 16.1583 101.355 17.7411 126.578C17.9169 129.645 17.8155 132.946 19.3306 135.722C20.7307 138.181 23.7948 138.726 26.3887 138.773C29.118 138.712 31.8472 138.553 34.5765 138.465C34.1165 138.401 33.6566 138.337 33.2 138.283C39.203 138.458 45.1959 137.833 51.1989 137.731C50.2519 137.681 49.2982 137.721 48.3682 137.539C49.9577 137.383 51.5472 137.782 53.1435 137.616C60.036 137.258 67.1212 137.048 73.6315 134.502C78.3459 132.696 82.4347 129.283 84.9611 124.9C88.4039 119.049 89.4591 112.116 89.5369 105.417C86.1312 107.114 82.3908 105.505 78.8228 105.738C77.5951 105.762 76.5264 106.401 75.4577 106.922C76.4317 105.528 77.8522 104.372 79.6108 104.23C82.8913 103.908 86.182 103.631 89.476 103.431C89.4861 100.516 89.0904 97.6212 88.8064 94.7228C90.5988 96.5153 92.2932 98.4903 94.5557 99.7146C99.7335 102.691 106.541 102.735 111.611 99.488C116.143 96.5423 118.882 91.4897 120.052 86.3186C121.649 79.4803 120.529 72.3985 119.173 65.621C117.641 58.4275 116.207 51.2003 115.436 43.8783C113.972 30.8916 113.677 17.8101 113.522 4.75232C100.701 4.57308 87.9169 3.46379 75.1263 2.63859C60.4012 1.5496 45.5307 0.169757 30.8157 2.14483ZM120.35 93.6575C117.854 98.2638 113.802 102.221 108.675 103.688C103 105.356 96.6221 104.297 91.7926 100.881C92.07 108.19 91.5694 115.721 88.6474 122.519C86.6284 127.274 83.2701 131.529 78.8228 134.228C83.73 133.382 88.6609 132.425 93.3179 130.619C95.7157 129.716 97.6739 128.022 99.7064 126.52C105.358 122.181 110.664 117.254 114.634 111.294C117.854 105.941 119.291 99.7518 120.35 93.6575Z" fill="black"></path><path d="M30.6332 12.497C31.9758 11.4858 34.0963 12.6458 34.0253 14.303C34.191 15.9872 31.9826 17.2115 30.6366 16.18C29.3041 15.4021 29.3379 13.2918 30.6332 12.497Z" fill="black"></path><path d="M103.281 14.012C104.955 13.224 107.116 14.8068 106.825 16.6567C106.815 18.8449 103.684 19.9339 102.314 18.2294C101.032 16.9746 101.607 14.5937 103.281 14.012Z" fill="black"></path><path d="M48.3951 26.7759C48.6116 29.2921 49.6803 31.6899 49.5788 34.2399C49.5552 35.5183 48.9836 36.6817 48.4053 37.7876C47.3975 36.4957 46.579 34.9501 46.6839 33.2591C46.8733 31.0101 47.8506 28.9437 48.3951 26.7759Z" fill="black"></path><path d="M86.026 30.9627C87.372 29.3732 90.0133 29.7147 91.3053 31.1927C92.7088 32.8363 93.348 35.2003 92.7291 37.2971C91.7754 39.7626 89.3471 41.2337 86.9662 42.0894C88.0856 40.5066 89.7123 39.2553 90.4428 37.4189C91.17 35.5148 89.8612 33.303 87.9436 32.8194C87.0744 32.9581 86.2424 33.2726 85.3936 33.489C85.4274 32.6199 85.2921 31.5985 86.026 30.9627Z" fill="black"></path><path d="M61.9845 33.5837C63.0058 33.0358 64.1963 33.2929 65.2684 33.5195C64.7645 34.6287 64.1117 35.7313 63.0261 36.3569C60.9597 37.6286 58.474 37.9634 56.3975 39.2248C57.9329 37.0705 59.5427 34.7843 61.9845 33.5837Z" fill="black"></path><path d="M34.3534 37.8176C35.1481 37.7398 35.9902 37.4219 36.7647 37.7601C38.1141 38.3418 39.2471 39.3293 40.2718 40.3642C38.9224 40.4521 37.5595 40.5333 36.2134 40.3947C35.3138 40.3101 34.7186 39.5593 34.0625 39.0351C34.1572 38.6293 34.2553 38.2234 34.3534 37.8176Z" fill="black"></path><path d="M95.124 38.7007C96.7136 37.2566 99.0877 37.5339 100.968 38.1799C102.412 38.6601 102.598 40.3376 102.838 41.6126C100.119 41.0918 97.5557 39.9994 95.124 38.7007Z" fill="black"></path><path d="M45.5743 39.999C48.0364 38.9642 50.6608 39.8671 52.991 40.7938C54.6278 41.4161 55.7135 43.0157 56.0077 44.7C56.3053 46.7934 56.0753 49.0796 54.7767 50.8213C53.3021 52.8843 50.4444 53.4626 48.0905 52.8573C44.4955 52.005 41.3164 48.5622 41.7121 44.7169C41.8305 42.5321 43.5384 40.6585 45.5743 39.999ZM43.5181 43.7733C42.8755 46.2658 44.6781 48.6704 46.802 49.7729C48.5031 50.774 51.0497 50.6725 52.2368 48.9274C53.2717 47.2669 53.7891 44.9435 52.5919 43.2322C51.6923 41.9065 50.052 41.4837 48.5944 41.0846C48.4659 40.8986 48.2089 40.5266 48.0804 40.3406C46.1459 40.6687 44.0592 41.7374 43.5181 43.7733Z" fill="black"></path><path d="M58.0068 45.2516C60.4351 43.3882 64.1586 42.6238 66.7086 44.6767C65.7245 45.4545 64.6321 46.3474 63.2861 46.2223C61.5004 46.0768 59.7858 45.4748 58.0068 45.2516Z" fill="black"></path><path d="M84.0146 47.5884C87.4406 44.1489 92.7672 43.1884 97.3903 44.2368C99.6021 44.7002 101.503 46.425 102.142 48.5962C103.167 51.9241 100.779 55.6442 97.5019 56.5168C96.2709 56.9159 94.8166 56.6622 93.8697 55.7626C92.5068 54.3726 92.4729 51.3965 94.5292 50.6524C95.5505 50.1282 96.1525 51.2984 96.6463 51.9646C95.997 51.826 95.351 51.6806 94.705 51.5351C94.8978 52.3198 95.094 53.101 95.3341 53.8755C96.9879 53.7571 98.5199 52.7188 99.1557 51.1767C99.7983 49.7089 99.105 47.9232 97.8435 47.0236C96.7478 46.239 95.3544 46.1477 94.0625 45.9989C90.7786 45.6742 87.214 46.337 84.6606 48.5421C83.1522 49.834 82.4691 51.7482 81.9482 53.6015C81.7859 51.4168 82.4285 49.1509 84.0146 47.5884Z" fill="black"></path><path d="M30.2305 50.8482C30.6431 49.4278 32.1785 48.8461 33.511 48.677C35.4319 48.5012 37.3766 48.6026 39.2772 48.934C37.5186 49.9419 35.7904 51.085 33.8187 51.6261C32.6215 51.8527 30.9948 52.0353 30.2305 50.8482Z" fill="black"></path><path d="M56.5361 52.6987C58.4503 53.0031 60.3848 53.2973 62.2381 53.8723C63.53 54.2477 64.5446 55.1743 65.4206 56.1551C64.4296 56.8721 63.1073 57.6499 61.9033 56.9296C59.9756 55.7154 58.1155 54.3491 56.5361 52.6987Z" fill="black"></path><path d="M39.5382 58.1807C40.6982 56.5675 42.2302 55.2722 43.627 53.8721C43.6405 55.8776 43.5627 58.1638 42.0476 59.6755C41.334 60.5413 40.1571 60.6191 39.1357 60.8085C39.1594 59.9258 38.943 58.9315 39.5382 58.1807Z" fill="black"></path><path d="M51.04 55.4409C52.5721 56.8749 54.2055 58.4847 54.6181 60.6322C54.8244 61.5555 54.5201 62.4754 54.307 63.3682C53.4649 63.0199 52.4402 62.7493 52.0208 61.8464C51.128 59.8375 51.3241 57.5749 51.04 55.4409Z" fill="black"></path><path d="M80.8651 81.4183C85.583 80.9008 90.338 80.8467 95.0728 80.5017C97.5991 80.4172 100.139 80.2041 102.662 80.4916C100.342 82.1555 97.5924 83.3088 94.7177 83.4339C91.6807 83.5455 88.6437 83.3663 85.6202 83.072C82.0049 82.5039 78.2915 82.9131 74.8926 84.2794C76.5125 82.7102 78.606 81.6381 80.8651 81.4183Z" fill="black"></path><path d="M50.2215 86.0888C51.8246 85.2805 52.9609 83.8567 54.1886 82.5952C54.2663 85.5105 52.5957 88.3682 49.9002 89.5553C46.782 91.0772 43.0483 89.9273 40.5254 87.7865C38.8818 86.3762 36.9168 84.7191 34.5866 85.1824C33.1764 85.5341 32.7908 87.1 32.1922 88.2262C32.128 87.3874 31.8912 86.4507 32.4222 85.71C33.704 83.7383 36.4467 83.0822 38.5875 83.9142C40.2345 84.3775 41.2424 85.9129 42.7778 86.5825C45.1452 87.6986 47.9759 87.3131 50.2215 86.0888Z" fill="black"></path><path d="M99.6865 85.6285C99.9875 84.7492 100.931 84.3332 101.594 83.7583C101.932 84.5936 102.264 85.4324 102.592 86.2745C101.773 86.9035 100.955 87.5326 100.13 88.1549C99.9638 87.3161 99.717 86.4842 99.6865 85.6285Z" fill="black"></path><path d="M90.876 85.7946C91.6843 85.5646 92.4993 85.3583 93.3212 85.1621C93.2163 86.1835 92.9255 87.171 92.6482 88.1552C91.806 87.9557 91.0349 87.5464 90.5107 86.8464C90.6021 86.5826 90.7847 86.055 90.876 85.7946Z" fill="black"></path><path d="M78.7686 86.9072C79.8981 87.0188 81.1427 86.8497 82.1911 87.3706C83.111 88.0097 82.7695 89.1393 82.367 89.9747C81.8665 89.9239 81.3558 89.9206 80.8688 89.7853C79.9827 88.977 79.4145 87.8981 78.7686 86.9072Z" fill="black"></path><path d="M56.671 89.5552C57.8716 89.8494 59.2447 90.2248 59.8669 91.4119C61.311 93.7116 60.0225 96.9617 57.601 97.9898C55.7477 98.974 53.4243 98.7507 51.6893 97.6144C50.6139 97.0564 49.4742 96.1128 48.1958 96.4375C46.8227 96.9143 46.7314 98.5986 46.1192 99.7011C45.9231 98.0642 46.0956 96.0046 47.7527 95.1692C49.7041 94.3136 51.6792 95.4669 53.5393 95.9944C55.3182 96.5288 57.0261 95.0373 57.5976 93.4478C58.0576 92.0714 57.1614 90.7794 56.671 89.5552Z" fill="black"></path><path d="M94.2956 91.5674C94.7352 91.6858 95.1749 91.8041 95.6145 91.9259C95.946 92.5718 96.274 93.2245 96.6055 93.8739C95.5367 94.0869 94.468 94.2966 93.3926 94.4556C93.6598 93.4816 93.9608 92.5177 94.2956 91.5674Z" fill="black"></path><path d="M86.4453 92.4233C87.4261 92.8596 88.4035 93.3128 89.3301 93.8607C88.7924 94.2293 88.1498 94.3477 87.5174 94.4255C87.1285 93.7727 86.7632 93.1099 86.4453 92.4233Z" fill="black"></path><path d="M77.2295 92.6733C77.9668 92.9642 78.7311 93.2144 79.4041 93.6473C79.6273 94.5841 78.8528 95.3485 78.4774 96.1331C78.0378 94.9866 77.6286 93.8334 77.2295 92.6733Z" fill="black"></path><path d="M98.6208 96.0859C99.3885 96.1671 100.156 96.2652 100.924 96.3802C100.122 96.945 99.3175 97.5064 98.499 98.0407C98.5295 97.388 98.57 96.7353 98.6208 96.0859Z" fill="black"></path><path d="M84.9238 97.1104C85.8911 97.3065 86.8888 97.3606 87.8391 97.6379C88.4884 97.8442 88.5764 98.6356 88.529 99.2207C88.201 99.7077 87.7579 100.1 87.3419 100.513C85.8978 99.9377 85.2925 98.5071 84.9238 97.1104Z" fill="black"></path><path d="M50.6984 104.172C52.2135 103.739 53.2179 102.478 54.2663 101.396C54.6282 103.137 54.0431 105.004 52.6971 106.171C51.0129 107.581 48.6726 108.274 46.5047 107.818C44.9355 107.422 44.2151 105.839 43.0619 104.869C41.912 103.871 40.0756 103.962 38.9156 104.882C38.2392 105.971 38.1884 107.3 38.0126 108.538C37.6609 107.703 37.1874 106.884 37.1299 105.965C37.2483 103.675 39.6495 101.619 41.9492 102.227C43.5827 102.721 44.9558 103.79 46.5047 104.48C47.8304 105.21 49.3726 104.591 50.6984 104.172Z" fill="black"></path></g><defs><clipPath id="clip0"><rect width="140" height="140" fill="white"></rect></clipPath></defs></svg>