<svg width="158" height="57" viewBox="0 0 158 57" fill="none" xmlns="http://www.w3.org/2000/svg">
<path d="M53.54 45.15H57.5L61.52 31.86L65.57 45.15H69.5L75.53 24.99H71.66L67.46 39.66L63.11 24.99H60.05L55.7 39.66L51.53 24.99H47.54L53.54 45.15ZM78.5525 45H82.4225V24.99H78.5525V45ZM87.4002 45H100.33V41.76H91.2702V24.99H87.4002V45ZM103.279 45H109.249C116.389 45 121.369 41.4 121.369 34.68C121.369 27.57 115.789 24.99 110.389 24.99H103.279V45ZM107.149 41.76V28.23H109.969C114.889 28.23 117.349 30.9 117.349 34.86C117.349 38.73 115.039 41.76 108.949 41.76H107.149ZM125.105 45H137.945V41.76H128.975V36.45H135.875V33.24H128.975V28.23H137.735V24.99L125.105 24.99V45ZM141.599 45L145.469 45V37.44H148.319L153.239 45H157.799L152.159 36.48C154.169 35.46 155.639 33.54 155.639 30.96C155.639 27.69 153.419 24.99 148.259 24.99H141.599V45ZM145.469 34.23V28.23H147.629C150.599 28.23 151.589 29.49 151.589 31.14C151.589 33.03 150.329 34.23 147.659 34.23H145.469Z" fill="black"/>
<path d="M14.9298 0.521973C15.8409 3.5023 16.4081 6.56225 17.4701 9.50276C17.7597 8.11497 18.0071 6.71581 18.3933 5.34509C19.0269 7.1367 19.232 9.05343 20.1251 10.7597C20.8552 7.65996 21.6637 4.57157 22.1585 1.42631C23.0335 4.24738 23.1783 7.20495 23.8722 10.0658C24.1799 11.209 25.254 12.1077 25.1031 13.3817C24.7954 16.0208 22.1706 18.1821 23.1843 20.9747C23.5463 19.6723 22.6292 17.3915 24.4756 16.9365C25.254 17.0616 25.1876 18.1707 25.5979 18.6826C25.2359 17.1185 24.9342 15.5032 25.2057 13.905C25.3445 12.8243 25.6582 11.4764 24.6023 10.6915C24.8316 9.6677 25.1091 8.6553 25.4229 7.64859C26.328 10.6858 26.4366 13.8652 27.2391 16.9251C27.6555 15.3781 27.921 13.7799 28.5908 12.3068C28.6571 11.3228 28.7356 10.3445 28.8201 9.36625C30.3527 12.4831 31.3966 15.8786 31.831 19.2798L30.7208 19.8372C30.6423 19.2684 30.4915 18.1309 30.413 17.5565C30.0993 18.7054 30.0027 19.8941 30.1294 21.0714C30.0812 21.3387 29.9846 21.8677 29.9424 22.135C29.4959 22.2089 28.6089 22.3568 28.1623 22.4308C28.1623 22.1407 28.1503 21.5606 28.1503 21.2705C26.7504 22.1521 26.2616 23.5057 26.6901 25.3315C26.5271 23.3749 26.3582 21.4354 26.0444 19.5016C26.1108 20.4628 25.079 23.6877 24.192 21.242C24.4816 22.1236 24.8074 23.0109 25.4591 23.7162C25.8513 24.2963 26.1832 24.939 26.853 25.286C27.9089 27.8909 30.1355 29.91 31.2337 32.5206C35.0411 39.5562 32.4405 48.7816 25.8574 53.508C24.0773 54.6171 22.0801 55.3565 20.1854 56.2722C16.4866 56.6078 12.5162 56.767 9.22767 54.8446C4.55736 52.3364 1.44985 47.8488 0.21288 42.9859C-0.493097 38.214 0.532681 33.1008 3.65226 29.2104C5.02197 27.2653 6.91062 25.3713 6.66322 22.8517L5.14869 23.5569L5.47452 24.0631C5.07025 24.0347 4.26169 23.9721 3.85741 23.9437C3.90569 23.6536 4.00826 23.0792 4.05654 22.7891C3.72467 22.8175 3.06696 22.8801 2.73509 22.9085C2.97645 20.9918 2.95231 19.0523 2.80146 17.1299C2.57217 18.165 2.10755 20.224 1.87223 21.2534C1.10591 18.3925 2.08342 15.5317 3.30832 12.9552C3.34452 12.2214 3.43504 11.4991 3.58589 10.7768C4.99181 10.6346 5.35988 12.5343 5.98138 13.45C6.34945 10.936 6.7477 8.42211 7.00716 5.89679C7.72521 8.29698 8.26223 10.7654 9.45093 13.012C10.2534 10.5152 10.4103 7.88747 11.1767 5.37922C11.6895 6.95469 12.1964 8.53586 12.7877 10.0886C13.5178 6.9035 14.6462 3.79237 14.9298 0.521973ZM16.0883 23.0962C14.797 23.2668 14.6764 24.6262 14.1574 25.5078C13.1075 28.1867 10.5189 30.2171 10.2414 33.169C9.94572 33.2145 9.35439 33.2998 9.05872 33.3453C9.36645 33.3624 9.98192 33.3965 10.2897 33.4136C10.6034 35.8763 11.3094 38.4585 13.2825 40.2274C12.7757 40.5686 12.2567 40.8872 11.7257 41.2C12.0335 42.0872 12.4619 43.2305 13.5903 43.384C12.7817 42.8835 12.3835 42.2067 12.3835 41.3479C12.6852 41.2341 13.2886 41.0009 13.5842 40.8815C14.2781 41.8142 15.1229 42.8153 16.4504 42.7982C19.3225 40.2445 21.3982 36.5475 20.7767 32.7368C20.5052 30.3821 18.5502 28.6929 17.5848 26.5998C16.6917 24.8082 16.8788 22.7777 16.6314 20.8667C16.4443 21.6061 16.2754 22.3511 16.0883 23.0962ZM18.3993 22.6981C18.9545 24.1598 19.4613 25.6386 20.0225 27.0946C20.7405 28.9545 23.0093 29.3981 24.6747 30.2285L24.6506 30.5243C26.4306 31.3149 27.8003 32.6515 28.995 34.0847C28.0598 29.1536 23.4619 26.0765 20.3001 22.4137C20.3725 23.3067 20.2699 24.1826 19.9803 25.03C19.9078 24.4613 19.763 23.3351 19.6906 22.7663L18.3993 22.6981ZM4.41858 38.669C6.21671 34.6706 9.1613 31.2921 11.7801 27.7658C12.3653 26.4064 12.9989 25.0186 12.8058 23.5171C8.58203 27.6179 3.30229 32.3671 4.41858 38.669ZM23.5524 32.3898C24.0773 33.0325 24.6325 33.6582 25.2178 34.2611C26.684 37.8841 26.3582 41.8654 25.6643 45.6079C27.2754 43.6514 29.1519 41.5754 29.2002 38.959C28.4942 36.1721 26.1892 33.6809 23.5524 32.3898ZM22.4844 34.3293C22.1223 38.1685 19.8716 41.4275 17.0658 44.1007C17.7416 44.4306 18.4114 44.7661 19.0812 45.1074C19.9259 45.7672 20.8914 46.2563 21.8689 46.717C24.3127 43.1622 25.2781 37.941 22.4844 34.3293ZM7.7071 41.7915C8.17172 44.3054 9.463 46.626 11.068 48.6565C12.1964 49.6916 13.7954 50.1239 14.9962 51.0908C16.0159 51.1761 17.0296 51.2728 18.0433 51.4036C16.3961 51.1533 15.2979 49.8623 13.7954 49.3788C14.0006 48.8271 14.2238 48.2811 14.435 47.7294C13.4937 47.6896 12.5584 47.6498 11.6232 47.5929L12.0938 47.2744C10.0362 45.8866 9.1794 43.6172 7.7071 41.7915Z" fill="black"/>
</svg>