<svg width="20" height="21" viewBox="0 0 20 21" fill="none" xmlns="http://www.w3.org/2000/svg">
<path d="M11.7688 10.4196L19.6335 2.55456C20.1222 2.06633 20.1222 1.27415 19.6335 0.78592C19.1449 0.297271 18.3536 0.297271 17.865 0.78592L10.0002 8.651L2.13504 0.78592C1.64641 0.297271 0.8551 0.297271 0.366471 0.78592C-0.122157 1.27415 -0.122157 2.06633 0.366471 2.55456L8.23164 10.4196L0.366471 18.2847C-0.122157 18.773 -0.122157 19.5651 0.366471 20.0534C0.610786 20.2973 0.930979 20.4194 1.25076 20.4194C1.57053 20.4194 1.89073 20.2973 2.13504 20.0529L10.0002 12.1879L17.865 20.0529C18.1093 20.2973 18.4295 20.4194 18.7492 20.4194C19.069 20.4194 19.3892 20.2973 19.6335 20.0529C20.1222 19.5647 20.1222 18.7725 19.6335 18.2843L11.7688 10.4196Z" fill="black"/>
</svg>
